<?xml version="1.0" encoding="UTF-8"?>
<svg version="1.1" xmlns="http://www.w3.org/2000/svg" width="512" height="512">
<path d="M0 0 C1.72582588 -0.00461468 3.45164783 -0.01097139 5.17746162 -0.01890898 C9.89733791 -0.03554752 14.61688907 -0.02738091 19.33676624 -0.0149641 C24.43569409 -0.00589347 29.53456703 -0.01989332 34.63348389 -0.03088379 C44.61335561 -0.0486521 54.59310686 -0.04483653 64.57298326 -0.03323323 C72.68524188 -0.02419255 80.79746679 -0.02297766 88.909729 -0.02732849 C90.06516366 -0.02794142 91.22059832 -0.02855436 92.41104615 -0.02918586 C94.75843224 -0.03046479 97.10581832 -0.03176164 99.45320439 -0.03307623 C121.45459403 -0.04447708 143.45591696 -0.03137606 165.45729566 -0.00987476 C184.32752087 0.00799575 203.19764765 0.00489151 222.06787109 -0.0135498 C243.99158028 -0.03496523 265.91523102 -0.04337849 287.8389492 -0.03110075 C290.17760594 -0.02982658 292.51626268 -0.0285691 294.85491943 -0.02732849 C296.58082752 -0.02640284 296.58082752 -0.02640284 298.34160244 -0.02545848 C306.44228783 -0.02200761 314.54293609 -0.02782829 322.64361572 -0.0372467 C332.5182667 -0.0484755 342.39279052 -0.04540803 352.26742697 -0.02412373 C357.30375001 -0.01362526 362.33986118 -0.00947105 367.37618256 -0.02272034 C371.99018845 -0.03467487 376.60378689 -0.02803128 381.21775603 -0.00681013 C382.88315294 -0.00235703 384.54858455 -0.00458117 386.21395898 -0.01431328 C399.81152694 -0.08765401 410.70157321 1.78907019 420.88232422 11.50793457 C432.82397462 24.01710895 432.62070301 38.08112223 432.83544922 54.42980957 C432.8544931 55.54640331 432.87353699 56.66299706 432.89315796 57.81342697 C433.0359453 66.29484729 433.09610198 74.77546934 433.13232422 83.25793457 C433.13987228 84.49580467 433.14742035 85.73367477 433.15519714 87.00905609 C433.33146089 118.59460844 432.77208291 149.08563037 424.13232422 179.63293457 C423.94940323 180.28471176 423.76648224 180.93648895 423.57801819 181.60801697 C417.14491579 204.3309449 417.14491579 204.3309449 411.88232422 208.50793457 C409.2892983 208.90031143 407.12039179 209.04624467 404.52966309 209.01129913 C403.78336167 209.0171129 403.03706026 209.02292666 402.26814365 209.0289166 C399.75314534 209.04358065 397.23911322 209.02960214 394.72412109 209.01586914 C392.90860239 209.02047554 391.0930874 209.02682669 389.27758026 209.03477812 C384.27754676 209.05153049 379.27781727 209.04319831 374.27778244 209.03083324 C368.88983819 209.02180918 363.50194741 209.03573931 358.11401367 209.04675293 C347.55466833 209.06457106 336.9954365 209.06068351 326.43608665 209.04910237 C317.85687704 209.04008126 309.27769932 209.03883831 300.69848633 209.04319763 C299.47902423 209.04381056 298.25956214 209.0444235 297.00314665 209.045055 C294.5260957 209.04633386 292.04904476 209.04763071 289.57199383 209.04894537 C266.32615791 209.06036082 243.08038502 209.04722233 219.83455944 209.0257439 C199.87388696 209.00787206 179.91330752 209.0109759 159.95263672 209.02941895 C136.79190793 209.05080862 113.63123442 209.05926209 90.47049713 209.04696989 C88.00238547 209.04569565 85.53427379 209.04443817 83.06616211 209.04319763 C81.24446353 209.04227198 81.24446353 209.04227198 79.38596296 209.04132763 C70.81369167 209.03786901 62.24145534 209.04371407 53.66918945 209.05311584 C43.22727118 209.06431608 32.78547323 209.06133744 22.3435688 209.03999287 C17.0124766 209.02945583 11.68158526 209.02540571 6.35049438 209.03858948 C1.475056 209.05046437 -3.39999437 209.04403221 -8.2753973 209.02267927 C-10.04383935 209.01819232 -11.81231383 209.02052604 -13.58073521 209.03018242 C-15.97596782 209.0422633 -18.3698536 209.02995768 -20.76501465 209.01129913 C-21.4592752 209.0206638 -22.15353575 209.03002846 -22.8688345 209.0396769 C-26.21217685 208.98725454 -27.85567482 208.71588825 -30.50918961 206.6097579 C-36.12386907 199.27300582 -37.91043494 188.38848271 -40.36767578 179.63293457 C-40.55156357 178.98276871 -40.73545135 178.33260284 -40.9249115 177.66273499 C-49.58969684 146.61801977 -49.56294952 115.28250275 -49.36767578 83.25793457 C-49.36238358 82.01861427 -49.35709137 80.77929398 -49.35163879 79.50241852 C-49.31352117 71.14361875 -49.21334292 62.78743524 -49.07080078 54.42980957 C-49.05647003 53.33880573 -49.04213928 52.2478019 -49.02737427 51.12373734 C-48.79743449 35.7955425 -48.23018611 23.1485642 -37.11767578 11.50793457 C-26.18237271 1.06875111 -14.43174467 -0.08433623 0 0 Z M-26.36767578 25.94543457 C-47.9981634 52.48937499 -32.11767578 94.26674932 -32.11767578 128.50793457 C115.72232422 128.50793457 263.56232422 128.50793457 415.88232422 128.50793457 C423.80344946 73.09461598 423.80344946 73.09461598 409.88232422 25.50793457 C402.39735203 18.07642647 395.39967682 16.38541013 384.92222881 16.37930012 C384.24265264 16.37754708 383.56307647 16.37579404 382.86290708 16.37398788 C380.58718833 16.36933832 378.31153376 16.37179069 376.03581238 16.3742218 C374.38712761 16.37235331 372.73844328 16.37005245 371.08975965 16.36735648 C366.56005669 16.36123688 362.03037218 16.36137226 357.50066602 16.36255085 C352.61507023 16.36275482 347.72948036 16.35723651 342.84388733 16.35249329 C333.27244956 16.34418534 323.70101795 16.34143838 314.12957688 16.34088091 C306.34995194 16.34040582 298.57032903 16.33835146 290.79070473 16.33518028 C268.73673219 16.32637339 246.68276453 16.32176097 224.62879022 16.32251076 C222.84522827 16.32257069 222.84522827 16.32257069 221.02563477 16.32263184 C219.83514266 16.32267272 218.64465055 16.3227136 217.41808293 16.32275572 C198.12195461 16.32316222 178.8258458 16.31359175 159.52972313 16.29949347 C139.71924094 16.28513352 119.90876826 16.27822307 100.09828073 16.27908725 C88.97513621 16.27941934 77.85201214 16.27666666 66.7288723 16.26590919 C57.25885276 16.25680923 47.78886296 16.25462481 38.31884094 16.26141862 C33.48740273 16.26468634 28.65602158 16.26473139 23.82458878 16.25606537 C19.39996108 16.24821066 14.97543578 16.2496213 10.55081061 16.2583495 C8.95191667 16.25988675 7.35301513 16.25805986 5.75413015 16.25248943 C-12.08610317 16.13364073 -12.08610317 16.13364073 -26.36767578 25.94543457 Z M-29.11767578 144.50793457 C-27.89349361 151.2409365 -26.65540813 157.81062664 -24.98876953 164.42199707 C-24.7942067 165.20311859 -24.59964386 165.98424011 -24.39918518 166.78903198 C-23.99335926 168.41435334 -23.58579562 170.03924177 -23.17651367 171.66369629 C-22.54804957 174.16125459 -21.92728536 176.66064573 -21.30712891 179.16027832 C-20.90979593 180.74763149 -20.51202598 182.33487535 -20.11376953 183.92199707 C-19.92834091 184.66978424 -19.74291229 185.41757141 -19.55186462 186.1880188 C-18.90111518 189.63223507 -18.90111518 189.63223507 -17.11767578 192.50793457 C-14.25500011 192.58118625 -11.41695679 192.60031662 -8.55517578 192.57043457 C-7.34571289 192.56366699 -7.34571289 192.56366699 -6.11181641 192.5567627 C-4.11373822 192.54493975 -2.11569795 192.52700371 -0.11767578 192.50793457 C-0.10309326 191.67544189 -0.08851074 190.84294922 -0.07348633 189.98522949 C-0.01238948 186.89303804 0.06176978 183.80151375 0.14477539 180.70983887 C0.1943374 178.71502827 0.22883555 176.719862 0.26318359 174.72473145 C0.29863281 173.47111816 0.33408203 172.21750488 0.37060547 170.92590332 C0.39678955 169.76856689 0.42297363 168.61123047 0.44995117 167.41882324 C0.88232422 164.50793457 0.88232422 164.50793457 2.0197916 162.84959924 C4.72912703 160.89794503 6.79551477 161.13183017 10.11521912 161.13041115 C11.4290989 161.12258791 12.74297869 161.11476466 14.09667301 161.10670435 C15.56355472 161.11319119 17.03043521 161.11996119 18.49731445 161.12698364 C20.04869383 161.12352925 21.60007077 161.11876616 23.15144253 161.11280191 C27.42593071 161.10023217 31.700219 161.10648929 35.97470808 161.11576056 C40.58008678 161.12252637 45.18543022 161.11208213 49.790802 161.1038208 C58.81722719 161.09045481 67.84357769 161.09337394 76.87000585 161.10205872 C84.20353514 161.10882361 91.53704344 161.10975718 98.87057495 161.10648727 C100.43396973 161.10579773 100.43396973 161.10579773 102.02894825 161.10509425 C104.14603846 161.10413511 106.26312866 161.10316247 108.38021886 161.10217647 C128.24960923 161.09361418 148.11895812 161.10346985 167.98834169 161.11957757 C185.05100508 161.13298151 202.11360725 161.13065365 219.17626953 161.11682129 C238.97274948 161.10078027 258.76919305 161.09443824 278.5656786 161.10365808 C280.67514355 161.10461377 282.78460852 161.10555688 284.89407349 161.10648727 C286.45107103 161.10718151 286.45107103 161.10718151 288.03952307 161.10788978 C295.36741185 161.11048411 302.69527762 161.10609915 310.02316284 161.09904861 C318.94887172 161.09064982 327.87450141 161.09287951 336.80020118 161.10889085 C341.35748769 161.11679547 345.914642 161.11982805 350.47192764 161.10994339 C354.63921022 161.10104109 358.80623734 161.10585502 362.97349656 161.12187605 C364.48556073 161.1252429 365.99764624 161.12348739 367.50969684 161.11624868 C369.55625977 161.10719838 371.60288266 161.11822538 373.64942932 161.13041115 C374.7888627 161.13089821 375.92829607 161.13138526 377.10225773 161.13188708 C379.88232422 161.50793457 379.88232422 161.50793457 381.74485683 162.84959924 C383.52787085 165.44908928 383.3235786 167.81137815 383.39404297 170.92590332 C383.4472168 172.80632324 383.4472168 172.80632324 383.50146484 174.72473145 C383.52402344 176.03506348 383.54658203 177.34539551 383.56982422 178.69543457 C383.60300088 180.0307547 383.63749088 181.36604289 383.67333984 182.70129395 C383.75593931 185.96987282 383.82080426 189.23889101 383.88232422 192.50793457 C389.49232422 192.50793457 395.10232422 192.50793457 400.88232422 192.50793457 C403.81791793 184.35667436 405.87028985 176.01237516 407.95385742 167.61291504 C408.5737997 165.11692866 409.20134771 162.62293701 409.82958984 160.12902832 C410.22652749 158.53929768 410.6230278 156.94945776 411.01904297 155.35949707 C411.30022224 154.24388901 411.30022224 154.24388901 411.58708191 153.10574341 C412.313119 150.16132756 412.88232422 147.55335771 412.88232422 144.50793457 C267.02232422 144.50793457 121.16232422 144.50793457 -29.11767578 144.50793457 Z M15.88232422 176.50793457 C15.88232422 181.78793457 15.88232422 187.06793457 15.88232422 192.50793457 C132.04232422 192.50793457 248.20232422 192.50793457 367.88232422 192.50793457 C367.88232422 187.22793457 367.88232422 181.94793457 367.88232422 176.50793457 C251.72232422 176.50793457 135.56232422 176.50793457 15.88232422 176.50793457 Z " fill="#000000" transform="translate(64.11767578125,119.4920654296875)"/>
<path d="M0 0 C1.0094165 -0.0112793 2.01883301 -0.02255859 3.05883789 -0.03417969 C4.16026123 -0.02608276 5.26168457 -0.01798584 6.39648438 -0.00964355 C7.56107178 -0.01665283 8.72565918 -0.02366211 9.92553711 -0.03088379 C13.78067771 -0.04850975 17.63508612 -0.03682384 21.49023438 -0.02331543 C24.1653739 -0.026009 26.84049107 -0.02988396 29.515625 -0.03491211 C35.12442987 -0.0421874 40.733024 -0.03260414 46.34179688 -0.0135498 C52.82441344 0.008219 59.30652679 0.00116752 65.78913116 -0.02085543 C71.35700027 -0.03901302 76.92471797 -0.04156609 82.49260712 -0.03110075 C85.81719107 -0.02486765 89.14148689 -0.02559741 92.46606445 -0.0372467 C96.17238595 -0.04738291 99.87773545 -0.03195028 103.58398438 -0.00964355 C104.68540771 -0.01774048 105.78683105 -0.0258374 106.92163086 -0.03417969 C108.43575562 -0.01726074 108.43575562 -0.01726074 109.98046875 0 C110.85650757 0.0015081 111.73254639 0.0030162 112.63513184 0.00457001 C115.76870882 0.67432072 116.98513012 2.06776279 118.99023438 4.50793457 C119.49816895 6.48059082 119.49816895 6.48059082 119.5078125 8.57043457 C119.52042114 9.35805176 119.53302979 10.14566895 119.54602051 10.95715332 C119.53792358 11.79891113 119.52982666 12.64066895 119.52148438 13.50793457 C119.52531128 14.38062988 119.52913818 15.2533252 119.53308105 16.15246582 C119.53579928 17.99492549 119.52844432 19.83742381 119.51171875 21.67980957 C119.49030685 24.49839391 119.51152239 27.31442942 119.53710938 30.13293457 C119.53446608 31.92460686 119.52934107 33.71627756 119.52148438 35.50793457 C119.5295813 36.34969238 119.53767822 37.1914502 119.54602051 38.05871582 C119.52710754 39.2401416 119.52710754 39.2401416 119.5078125 40.44543457 C119.50463013 41.13508301 119.50144775 41.82473145 119.49816895 42.53527832 C118.75307867 45.42897188 117.25866507 46.61029928 114.99023438 48.50793457 C112.63513184 49.01129913 112.63513184 49.01129913 109.98046875 49.01586914 C108.97105225 49.02714844 107.96163574 49.03842773 106.92163086 49.05004883 C105.82020752 49.0419519 104.71878418 49.03385498 103.58398438 49.0255127 C102.41939697 49.03252197 101.25480957 49.03953125 100.05493164 49.04675293 C96.19979104 49.06437889 92.34538263 49.05269298 88.49023438 49.03918457 C85.81509485 49.04187814 83.13997768 49.0457531 80.46484375 49.05078125 C74.85603888 49.05805654 69.24744475 49.04847328 63.63867188 49.02941895 C57.15605531 49.00765014 50.67394196 49.01470162 44.19133759 49.03672457 C38.62346848 49.05488216 33.05575078 49.05743523 27.48786163 49.04696989 C24.16327768 49.04073679 20.83898186 49.04146655 17.5144043 49.05311584 C13.8080828 49.06325205 10.1027333 49.04781942 6.39648438 49.0255127 C5.29506104 49.03360962 4.1936377 49.04170654 3.05883789 49.05004883 C2.04942139 49.03876953 1.04000488 49.02749023 0 49.01586914 C-0.87603882 49.01436104 -1.75207764 49.01285294 -2.65466309 49.01129913 C-5.78824007 48.34154842 -7.00466137 46.94810636 -9.00976562 44.50793457 C-9.5177002 42.53527832 -9.5177002 42.53527832 -9.52734375 40.44543457 C-9.53995239 39.65781738 -9.55256104 38.8702002 -9.56555176 38.05871582 C-9.55745483 37.21695801 -9.54935791 36.3752002 -9.54101562 35.50793457 C-9.54484253 34.63523926 -9.54866943 33.76254395 -9.5526123 32.86340332 C-9.55533053 31.02094365 -9.54797557 29.17844533 -9.53125 27.33605957 C-9.5098381 24.51747523 -9.53105364 21.70143972 -9.55664062 18.88293457 C-9.55399733 17.09126228 -9.54887232 15.29959158 -9.54101562 13.50793457 C-9.54911255 12.66617676 -9.55720947 11.82441895 -9.56555176 10.95715332 C-9.55294312 10.16953613 -9.54033447 9.38191895 -9.52734375 8.57043457 C-9.52416138 7.88078613 -9.520979 7.1911377 -9.5177002 6.48059082 C-8.25419061 1.57352162 -4.7111106 0.00811019 0 0 Z M6.99023438 16.50793457 C6.99023438 21.78793457 6.99023438 27.06793457 6.99023438 32.50793457 C38.67023438 32.50793457 70.35023438 32.50793457 102.99023438 32.50793457 C102.99023438 27.22793457 102.99023438 21.94793457 102.99023438 16.50793457 C71.31023437 16.50793457 39.63023437 16.50793457 6.99023438 16.50793457 Z " fill="#000000" transform="translate(201.009765625,151.4920654296875)"/>
<path d="M0 0 C2.1640625 0.40625 2.1640625 0.40625 4.7265625 2.40625 C6.5498056 6.21127909 6.93464853 9.31113569 6.1640625 13.40625 C5.52574997 14.96892382 4.83592601 16.51134783 4.1015625 18.03125 C2.19564547 21.98501406 1.78879337 24.09707339 3.1640625 28.40625 C3.68410662 29.69823462 4.20499871 30.98987811 4.7265625 32.28125 C7.57322401 39.7220286 6.26476464 44.96276267 3.17578125 52.0078125 C2.28362012 54.12281997 1.65010087 56.12146636 1.1015625 58.34375 C0.14484655 61.46902209 -0.32996783 62.45273273 -2.8359375 64.40625 C-5.90546848 65.08459939 -8.75198134 64.98518762 -11.8359375 64.40625 C-15.30741041 61.69680773 -15.7561814 60.00442078 -16.3359375 55.65625 C-16.18909873 52.2725739 -15.24022684 49.81704396 -13.7734375 46.78125 C-11.86752047 42.82748594 -11.46066837 40.71542661 -12.8359375 36.40625 C-13.35598162 35.11426538 -13.87687371 33.82262189 -14.3984375 32.53125 C-17.24509901 25.0904714 -15.93663964 19.84973733 -12.84765625 12.8046875 C-11.95549512 10.68968003 -11.32197587 8.69103364 -10.7734375 6.46875 C-8.92024834 0.41499873 -5.9239368 -0.23155453 0 0 Z " fill="#000000" transform="translate(388.8359375,343.59375)"/>
<path d="M0 0 C2.1640625 0.40625 2.1640625 0.40625 4.7265625 2.40625 C6.5498056 6.21127909 6.93464853 9.31113569 6.1640625 13.40625 C5.52574997 14.96892382 4.83592601 16.51134783 4.1015625 18.03125 C2.19564547 21.98501406 1.78879337 24.09707339 3.1640625 28.40625 C3.68410662 29.69823462 4.20499871 30.98987811 4.7265625 32.28125 C7.57322401 39.7220286 6.26476464 44.96276267 3.17578125 52.0078125 C2.28362012 54.12281997 1.65010087 56.12146636 1.1015625 58.34375 C0.14484655 61.46902209 -0.32996783 62.45273273 -2.8359375 64.40625 C-5.90546848 65.08459939 -8.75198134 64.98518762 -11.8359375 64.40625 C-15.30741041 61.69680773 -15.7561814 60.00442078 -16.3359375 55.65625 C-16.18909873 52.2725739 -15.24022684 49.81704396 -13.7734375 46.78125 C-11.86752047 42.82748594 -11.46066837 40.71542661 -12.8359375 36.40625 C-13.35598162 35.11426538 -13.87687371 33.82262189 -14.3984375 32.53125 C-17.24509901 25.0904714 -15.93663964 19.84973733 -12.84765625 12.8046875 C-11.95549512 10.68968003 -11.32197587 8.69103364 -10.7734375 6.46875 C-8.92024834 0.41499873 -5.9239368 -0.23155453 0 0 Z " fill="#000000" transform="translate(324.8359375,343.59375)"/>
<path d="M0 0 C2.1640625 0.40625 2.1640625 0.40625 4.7265625 2.40625 C6.5498056 6.21127909 6.93464853 9.31113569 6.1640625 13.40625 C5.52574997 14.96892382 4.83592601 16.51134783 4.1015625 18.03125 C2.19564547 21.98501406 1.78879337 24.09707339 3.1640625 28.40625 C3.68410662 29.69823462 4.20499871 30.98987811 4.7265625 32.28125 C7.57322401 39.7220286 6.26476464 44.96276267 3.17578125 52.0078125 C2.28362012 54.12281997 1.65010087 56.12146636 1.1015625 58.34375 C0.14484655 61.46902209 -0.32996783 62.45273273 -2.8359375 64.40625 C-5.90546848 65.08459939 -8.75198134 64.98518762 -11.8359375 64.40625 C-15.30741041 61.69680773 -15.7561814 60.00442078 -16.3359375 55.65625 C-16.18909873 52.2725739 -15.24022684 49.81704396 -13.7734375 46.78125 C-11.86752047 42.82748594 -11.46066837 40.71542661 -12.8359375 36.40625 C-13.35598162 35.11426538 -13.87687371 33.82262189 -14.3984375 32.53125 C-17.24509901 25.0904714 -15.93663964 19.84973733 -12.84765625 12.8046875 C-11.95549512 10.68968003 -11.32197587 8.69103364 -10.7734375 6.46875 C-8.92024834 0.41499873 -5.9239368 -0.23155453 0 0 Z " fill="#000000" transform="translate(260.8359375,343.59375)"/>
<path d="M0 0 C2.1640625 0.40625 2.1640625 0.40625 4.7265625 2.40625 C6.5498056 6.21127909 6.93464853 9.31113569 6.1640625 13.40625 C5.52574997 14.96892382 4.83592601 16.51134783 4.1015625 18.03125 C2.19564547 21.98501406 1.78879337 24.09707339 3.1640625 28.40625 C3.68410662 29.69823462 4.20499871 30.98987811 4.7265625 32.28125 C7.57322401 39.7220286 6.26476464 44.96276267 3.17578125 52.0078125 C2.28362012 54.12281997 1.65010087 56.12146636 1.1015625 58.34375 C0.14484655 61.46902209 -0.32996783 62.45273273 -2.8359375 64.40625 C-5.90546848 65.08459939 -8.75198134 64.98518762 -11.8359375 64.40625 C-15.30741041 61.69680773 -15.7561814 60.00442078 -16.3359375 55.65625 C-16.18909873 52.2725739 -15.24022684 49.81704396 -13.7734375 46.78125 C-11.86752047 42.82748594 -11.46066837 40.71542661 -12.8359375 36.40625 C-13.35598162 35.11426538 -13.87687371 33.82262189 -14.3984375 32.53125 C-17.24509901 25.0904714 -15.93663964 19.84973733 -12.84765625 12.8046875 C-11.95549512 10.68968003 -11.32197587 8.69103364 -10.7734375 6.46875 C-8.92024834 0.41499873 -5.9239368 -0.23155453 0 0 Z " fill="#000000" transform="translate(196.8359375,343.59375)"/>
<path d="M0 0 C2.1640625 0.40625 2.1640625 0.40625 4.7265625 2.40625 C6.5498056 6.21127909 6.93464853 9.31113569 6.1640625 13.40625 C5.52574997 14.96892382 4.83592601 16.51134783 4.1015625 18.03125 C2.19564547 21.98501406 1.78879337 24.09707339 3.1640625 28.40625 C3.68410662 29.69823462 4.20499871 30.98987811 4.7265625 32.28125 C7.57322401 39.7220286 6.26476464 44.96276267 3.17578125 52.0078125 C2.28362012 54.12281997 1.65010087 56.12146636 1.1015625 58.34375 C0.14484655 61.46902209 -0.32996783 62.45273273 -2.8359375 64.40625 C-5.90546848 65.08459939 -8.75198134 64.98518762 -11.8359375 64.40625 C-15.30741041 61.69680773 -15.7561814 60.00442078 -16.3359375 55.65625 C-16.18909873 52.2725739 -15.24022684 49.81704396 -13.7734375 46.78125 C-11.86752047 42.82748594 -11.46066837 40.71542661 -12.8359375 36.40625 C-13.35598162 35.11426538 -13.87687371 33.82262189 -14.3984375 32.53125 C-17.24509901 25.0904714 -15.93663964 19.84973733 -12.84765625 12.8046875 C-11.95549512 10.68968003 -11.32197587 8.69103364 -10.7734375 6.46875 C-8.92024834 0.41499873 -5.9239368 -0.23155453 0 0 Z " fill="#000000" transform="translate(132.8359375,343.59375)"/>
</svg>
