<?xml version="1.0" encoding="UTF-8"?>
<svg version="1.1" xmlns="http://www.w3.org/2000/svg" width="512" height="512">
<path d="M0 0 C3.40980246 -0.07138749 6.76454793 0.02018113 10.171875 0.18359375 C11.05681641 0.22468262 11.94175781 0.26577148 12.85351562 0.30810547 C59.52765078 2.66896589 104.97156014 16.92209403 143.171875 44.18359375 C143.81189453 44.63428223 144.45191406 45.0849707 145.11132812 45.54931641 C155.97936224 53.24527652 165.64975957 61.89307576 175.171875 71.18359375 C176.14148201 72.11374543 177.11148967 73.04347977 178.08203125 73.97265625 C183.93967656 79.67639125 189.12085206 85.76133091 194.171875 92.18359375 C194.96335937 93.158125 195.75484375 94.13265625 196.5703125 95.13671875 C228.75061708 135.539751 244.79736529 186.04317281 247.171875 237.18359375 C247.23246094 238.446875 247.29304688 239.71015625 247.35546875 241.01171875 C247.42685624 244.42152121 247.33528762 247.77626668 247.171875 251.18359375 C247.1102417 252.51100586 247.1102417 252.51100586 247.04736328 253.86523438 C243.66284072 320.77713723 214.90041182 380.6362699 166.171875 426.18359375 C162.60646615 429.32759305 158.9325401 432.27787122 155.171875 435.18359375 C153.71974609 436.36115234 153.71974609 436.36115234 152.23828125 437.5625 C112.05272618 469.87265399 61.15239601 485.81650838 10.171875 488.18359375 C8.90859375 488.24417969 7.6453125 488.30476563 6.34375 488.3671875 C2.93394754 488.43857499 -0.42079793 488.34700637 -3.828125 488.18359375 C-5.15553711 488.12196045 -5.15553711 488.12196045 -6.50976562 488.05908203 C-53.18390078 485.69822161 -98.62781014 471.44509347 -136.828125 444.18359375 C-137.7881543 443.50756104 -137.7881543 443.50756104 -138.76757812 442.81787109 C-149.63561224 435.12191098 -159.30600957 426.47411174 -168.828125 417.18359375 C-169.79773201 416.25344207 -170.76773967 415.32370773 -171.73828125 414.39453125 C-177.59592656 408.69079625 -182.77710206 402.60585659 -187.828125 396.18359375 C-188.61960938 395.2090625 -189.41109375 394.23453125 -190.2265625 393.23046875 C-222.40686708 352.8274365 -238.45361529 302.32401469 -240.828125 251.18359375 C-240.88871094 249.9203125 -240.94929687 248.65703125 -241.01171875 247.35546875 C-241.08310624 243.94566629 -240.99153762 240.59092082 -240.828125 237.18359375 C-240.78703613 236.29865234 -240.74594727 235.41371094 -240.70361328 234.50195312 C-237.31909072 167.59005027 -208.55666182 107.7309176 -159.828125 62.18359375 C-156.26271615 59.03959445 -152.5887901 56.08931628 -148.828125 53.18359375 C-147.86003906 52.39855469 -146.89195312 51.61351562 -145.89453125 50.8046875 C-104.30789644 17.36803166 -52.55891676 2.52068274 0 0 Z M-99.828125 50.18359375 C-100.43060059 50.50827637 -101.03307617 50.83295898 -101.65380859 51.16748047 C-117.33410182 59.66079648 -131.3615852 70.0701355 -144.515625 82.09375 C-146.47798014 83.86716216 -148.47473909 85.5650962 -150.515625 87.24609375 C-154.37781574 90.54374153 -157.56198115 94.30743082 -160.828125 98.18359375 C-161.67632812 99.15554687 -162.52453125 100.1275 -163.3984375 101.12890625 C-200.62926729 143.97390878 -219.609931 200.81441669 -216.50732422 257.4284668 C-214.30627044 288.68772225 -205.87171823 319.65654798 -190.828125 347.18359375 C-190.34110107 348.08730713 -190.34110107 348.08730713 -189.84423828 349.00927734 C-181.35092227 364.68957057 -170.94158325 378.71705395 -158.91796875 391.87109375 C-157.14455659 393.83344889 -155.44662255 395.83020784 -153.765625 397.87109375 C-150.46797722 401.73328449 -146.70428793 404.9174499 -142.828125 408.18359375 C-141.85617188 409.03179687 -140.88421875 409.88 -139.8828125 410.75390625 C-97.03780997 447.98473604 -40.19730206 466.96539975 16.41674805 463.86279297 C47.6760035 461.66173919 78.64482923 453.22718698 106.171875 438.18359375 C106.77435059 437.85891113 107.37682617 437.53422852 107.99755859 437.19970703 C123.67785182 428.70639102 137.7053352 418.297052 150.859375 406.2734375 C152.82173014 404.50002534 154.81848909 402.8020913 156.859375 401.12109375 C160.72156574 397.82344597 163.90573115 394.05975668 167.171875 390.18359375 C168.02007812 389.21164062 168.86828125 388.2396875 169.7421875 387.23828125 C206.97301729 344.39327872 225.953681 287.55277081 222.85107422 230.9387207 C220.65002044 199.67946525 212.21546823 168.71063952 197.171875 141.18359375 C196.84719238 140.58111816 196.52250977 139.97864258 196.18798828 139.35791016 C187.69467227 123.67761693 177.28533325 109.65013355 165.26171875 96.49609375 C163.48830659 94.53373861 161.79037255 92.53697966 160.109375 90.49609375 C156.81172722 86.63390301 153.04803793 83.4497376 149.171875 80.18359375 C148.19992187 79.33539063 147.22796875 78.4871875 146.2265625 77.61328125 C81.57243114 21.43107055 -15.24158795 7.54539107 -99.828125 50.18359375 Z " fill="#000000" transform="translate(252.828125,11.81640625)"/>
<path d="M0 0 C6.24047148 3.3488737 10.21224579 8.08427908 12.40919113 14.79539871 C12.93599842 17.63936083 12.94526843 20.35306287 12.95294189 23.24627686 C12.95865204 24.53599396 12.96436218 25.82571106 12.97024536 27.1545105 C12.97149065 28.58184805 12.97261576 30.00918571 12.97363281 31.43652344 C12.97826274 32.94135662 12.98328763 34.44618863 12.98867798 35.95101929 C13.00178794 40.03796565 13.0082443 44.1248956 13.01268864 48.2118597 C13.01562187 50.76680407 13.01972717 53.32174398 13.02419281 55.8766861 C13.03786458 63.87504961 13.04753258 71.8734029 13.0513947 79.8717773 C13.05587361 89.0961644 13.07341505 98.32040319 13.1023953 107.54474521 C13.12403296 114.68035139 13.13410011 121.81591591 13.13543582 128.95155454 C13.13648243 133.2107293 13.1423595 137.46976458 13.16025543 141.72890472 C13.17677203 145.73772577 13.17887431 149.74630302 13.17011642 153.75514603 C13.16934794 155.22244801 13.17366379 156.6897633 13.18357468 158.15703201 C13.24292903 167.4955916 12.99329609 174.37817301 7.5625 182.22265625 C2.29068161 187.49447464 -3.36958715 190.03248404 -10.8125 190.34765625 C-17.55594137 190.25814154 -23.09139756 187.78089792 -28.078125 183.2578125 C-32.77458663 178.04838783 -34.43434431 173.48946656 -34.45492554 166.42692566 C-34.45945665 165.78309679 -34.46398776 165.13926792 -34.46865618 164.47592908 C-34.48127878 162.32657104 -34.47968124 160.17746709 -34.47802734 158.02807617 C-34.48401398 156.48368505 -34.49081984 154.93929692 -34.49838257 153.39491272 C-34.51603696 149.20470661 -34.52073774 145.0145822 -34.52201414 140.82434249 C-34.52343672 138.20456009 -34.52770836 135.58479839 -34.53300858 132.96502113 C-34.55150764 123.82001046 -34.55967942 114.67505806 -34.55810547 105.5300293 C-34.55690439 97.01453209 -34.57800031 88.49928848 -34.6095928 79.98385543 C-34.63577303 72.66563134 -34.64647202 65.34748999 -34.64519465 58.02921945 C-34.64468549 53.66159765 -34.65034302 49.29420123 -34.67155075 44.92662621 C-34.69096245 40.81676915 -34.69103781 36.70735174 -34.67651749 32.59747887 C-34.67443184 31.09308732 -34.67911574 29.58866804 -34.6912384 28.08432388 C-34.75887725 19.10590524 -34.54797711 12.14627594 -28.51171875 4.984375 C-19.83923756 -2.03226253 -10.53737319 -4.56761136 0 0 Z " fill="#000000" transform="translate(368.1875,162.02734375)"/>
<path d="M0 0 C5.12063284 3.52264225 8.28064638 7.68661672 10.265625 13.55859375 C10.52289391 16.61903095 10.52289391 16.61903095 10.53305054 20.10432434 C10.53758165 20.74815321 10.54211276 21.39198208 10.54678118 22.05532092 C10.55940378 24.20467896 10.55780624 26.35378291 10.55615234 28.50317383 C10.56213898 30.04756495 10.56894484 31.59195308 10.57650757 33.13633728 C10.59416196 37.32654339 10.59886274 41.5166678 10.60013914 45.70690751 C10.60156172 48.32668991 10.60583336 50.94645161 10.61113358 53.56622887 C10.62963264 62.71123954 10.63780442 71.85619194 10.63623047 81.0012207 C10.63502939 89.51671791 10.65612531 98.03196152 10.6877178 106.54739457 C10.71389803 113.86561866 10.72459702 121.18376001 10.72331965 128.50203055 C10.72281049 132.86965235 10.72846802 137.23704877 10.74967575 141.60462379 C10.76908745 145.71448085 10.76916281 149.82389826 10.75464249 153.93377113 C10.75255684 155.43816268 10.75724074 156.94258196 10.7693634 158.44692612 C10.83700225 167.42534476 10.62610211 174.38497406 4.58984375 181.546875 C-1.61987081 186.57096387 -7.15393893 189.12617725 -15.24609375 188.84375 C-22.0003913 188.06970962 -26.91315045 185.3798183 -31.734375 180.55859375 C-35.74291398 174.85955271 -36.85661359 170.14837208 -36.87481689 163.28497314 C-36.88052704 161.99525604 -36.88623718 160.70553894 -36.89212036 159.3767395 C-36.89336565 157.94940195 -36.89449076 156.52206429 -36.89550781 155.09472656 C-36.90013774 153.58989338 -36.90516263 152.08506137 -36.91055298 150.58023071 C-36.92366294 146.49328435 -36.9301193 142.4063544 -36.93456364 138.3193903 C-36.93749687 135.76444593 -36.94160217 133.20950602 -36.94606781 130.6545639 C-36.95973958 122.65620039 -36.96940758 114.6578471 -36.9732697 106.6594727 C-36.97774861 97.4350856 -36.99529005 88.21084681 -37.0242703 78.98650479 C-37.04590796 71.85089861 -37.05597511 64.71533409 -37.05731082 57.57969546 C-37.05835743 53.3205207 -37.0642345 49.06148542 -37.08213043 44.80234528 C-37.09864703 40.79352423 -37.10074931 36.78494698 -37.09199142 32.77610397 C-37.09122294 31.30880199 -37.09553879 29.8414867 -37.10544968 28.37421799 C-37.16480403 19.0356584 -36.91517109 12.15307699 -31.484375 4.30859375 C-22.57688426 -4.59889699 -10.96791433 -6.08753736 0 0 Z " fill="#000000" transform="translate(167.734375,163.44140625)"/>
<path d="M0 0 C44.22 0 88.44 0 134 0 C134 15.84 134 31.68 134 48 C89.78 48 45.56 48 0 48 C0 32.16 0 16.32 0 0 Z " fill="#000000" transform="translate(189,232)"/>
<path d="M0 0 C8.93985964 2.97995321 14.08999676 5.21257532 18.9375 13.1875 C20.76806673 18.0331178 21.10066757 21.76528628 21 27 C22.5159375 26.6596875 22.5159375 26.6596875 24.0625 26.3125 C28.71651068 25.94313407 30.97859506 26.67995869 35 29 C37.55919552 32.48824309 38.37675318 34.96311038 38.38818359 39.26171875 C38.39764008 40.28628174 38.40709656 41.31084473 38.4168396 42.36645508 C38.41076691 43.4623999 38.40469421 44.55834473 38.3984375 45.6875 C38.40130768 46.82276123 38.40417786 47.95802246 38.40713501 49.12768555 C38.40917402 51.52490743 38.4036556 53.922146 38.39111328 56.31933594 C38.37505819 59.98670691 38.39096841 63.65297577 38.41015625 67.3203125 C38.40817379 69.6510441 38.40433006 71.98177501 38.3984375 74.3125 C38.40754654 75.95641724 38.40754654 75.95641724 38.4168396 77.63354492 C38.40738312 78.65810791 38.39792664 79.6826709 38.38818359 80.73828125 C38.38579681 81.63587158 38.38341003 82.53346191 38.38095093 83.45825195 C37.91091741 86.59436924 36.86879836 88.45278432 35 91 C29.94338516 93.91727779 26.66546932 94.27184005 21 93 C21.061875 93.969375 21.12375 94.93875 21.1875 95.9375 C21.13524553 102.40399012 19.3148195 107.99125423 14.9375 112.8125 C11.24105194 116.21608173 5.22417391 120 0 120 C0 80.4 0 40.8 0 0 Z " fill="#000000" transform="translate(392,196)"/>
<path d="M0 0 C0 39.6 0 79.2 0 120 C-8.93985964 117.02004679 -14.08999676 114.78742468 -18.9375 106.8125 C-20.76806673 101.9668822 -21.10066757 98.23471372 -21 93 C-22.010625 93.226875 -23.02125 93.45375 -24.0625 93.6875 C-28.71651068 94.05686593 -30.97859506 93.32004131 -35 91 C-37.55919552 87.51175691 -38.37675318 85.03688962 -38.38818359 80.73828125 C-38.40236832 79.20143677 -38.40236832 79.20143677 -38.4168396 77.63354492 C-38.41076691 76.5376001 -38.40469421 75.44165527 -38.3984375 74.3125 C-38.40130768 73.17723877 -38.40417786 72.04197754 -38.40713501 70.87231445 C-38.40917402 68.47509257 -38.4036556 66.077854 -38.39111328 63.68066406 C-38.37505819 60.01329309 -38.39096841 56.34702423 -38.41015625 52.6796875 C-38.40817379 50.3489559 -38.40433006 48.01822499 -38.3984375 45.6875 C-38.40451019 44.59155518 -38.41058289 43.49561035 -38.4168396 42.36645508 C-38.40738312 41.34189209 -38.39792664 40.3173291 -38.38818359 39.26171875 C-38.38579681 38.36412842 -38.38341003 37.46653809 -38.38095093 36.54174805 C-37.91091741 33.40563076 -36.86879836 31.54721568 -35 29 C-29.94338516 26.08272221 -26.66546932 25.72815995 -21 27 C-21.061875 26.030625 -21.12375 25.06125 -21.1875 24.0625 C-21.13524553 17.59600988 -19.3148195 12.00874577 -14.9375 7.1875 C-11.24105194 3.78391827 -5.22417391 0 0 0 Z " fill="#000000" transform="translate(120,196)"/>
</svg>
