<?xml version="1.0" encoding="UTF-8"?>
<svg version="1.1" xmlns="http://www.w3.org/2000/svg" width="512" height="512">
<path d="M0 0 C0.95643402 -0.00058411 1.91286804 -0.00116821 2.89828491 -0.00177002 C6.05853613 0.00101593 9.21784331 0.03213271 12.37792969 0.06347656 C14.56939173 0.07093712 16.76086044 0.07663092 18.95233154 0.08062744 C24.71958849 0.09589827 30.48644233 0.135193 36.25354004 0.17944336 C42.13869778 0.22036456 48.02392067 0.23863175 53.90917969 0.25878906 C65.45623177 0.30168549 77.00298471 0.3699547 88.54980469 0.45410156 C88.87980469 5.73410156 89.20980469 11.01410156 89.54980469 16.45410156 C91.19980469 11.17410156 92.84980469 5.89410156 94.54980469 0.45410156 C98.9671199 0.34636217 103.38181863 0.26689527 107.79980469 0.20410156 C109.0540625 0.17058594 110.30832031 0.13707031 111.60058594 0.10253906 C112.80585938 0.08964844 114.01113281 0.07675781 115.25292969 0.06347656 C116.36313477 0.0425293 117.47333984 0.02158203 118.6171875 0 C121.54980469 0.45410156 121.54980469 0.45410156 123.94458008 2.22583008 C126.26303174 5.44415834 125.75327117 7.11697157 125.14501953 10.88134766 C123.81413154 16.63397181 121.78600559 22.16406998 119.81347656 27.72167969 C119.49572266 28.66076172 119.17796875 29.59984375 118.85058594 30.56738281 C118.40453003 31.83255737 118.40453003 31.83255737 117.94946289 33.12329102 C117.45799219 35.98955295 117.99505048 37.04704041 119.54980469 39.45410156 C120.35417969 40.53691406 120.35417969 40.53691406 121.17480469 41.64160156 C123.11848412 45.61730949 123.1271536 49.10421249 122.54980469 53.45410156 C120.78502761 57.72671975 118.73173766 59.56892644 114.54980469 61.45410156 C110.88475696 61.86762077 107.2456632 61.80300851 103.56152344 61.74707031 C102.62296509 61.74404907 101.68440674 61.74102783 100.71740723 61.73791504 C97.22392726 61.72226312 93.7306045 61.68037915 90.23730469 61.64160156 C78.51199219 61.54878906 78.51199219 61.54878906 66.54980469 61.45410156 C66.54980469 86.20410156 66.54980469 110.95410156 66.54980469 136.45410156 C68.85980469 136.78410156 71.16980469 137.11410156 73.54980469 137.45410156 C79.85897147 139.77175466 83.5622949 144.11147146 86.92480469 149.76660156 C88.43353568 156.25414484 88.42339555 162.55747551 85.08105469 168.44238281 C81.22731055 173.50533748 76.19588072 178.20773152 70.43146038 180.92292213 C67.23110925 183.73403623 67.10758578 184.10014597 66.80428028 188.09937096 C66.775546 190.07640539 66.78029449 192.05408492 66.8105011 194.03109741 C66.80340769 195.1205902 66.79631429 196.21008298 66.78900594 197.3325907 C66.77238922 200.99651638 66.79862539 204.65889961 66.82446289 208.32275391 C66.82120536 210.94412178 66.8152717 213.56548749 66.80685425 216.18684387 C66.79270773 221.8383394 66.80016359 227.48947507 66.82192421 233.14094162 C66.85311672 241.31851061 66.84841728 249.49575621 66.83438101 257.6733584 C66.81229094 270.94927417 66.81475175 284.22506126 66.8347168 297.50097656 C66.83590612 298.29563484 66.83709545 299.09029311 66.83832081 299.90903194 C66.83951298 300.70467762 66.84070514 301.50032329 66.84193343 302.32007945 C66.85877415 313.59554848 66.86980683 324.8710031 66.8737793 336.14648438 C66.87420763 337.33611113 66.87420763 337.33611113 66.87464461 338.54977076 C66.87891267 351.77334161 66.87108446 364.99688957 66.85708112 378.2204529 C66.84922594 386.37719968 66.85376418 394.53377378 66.8743377 402.69049944 C66.88955592 408.9401686 66.89027097 415.18975918 66.88576889 421.43944359 C66.88655666 424.00412508 66.89253739 426.56881093 66.90404701 429.13346672 C66.91911071 432.63017821 66.91588113 436.12641403 66.90815735 439.62313843 C66.91709764 440.6418161 66.92603794 441.66049376 66.93524915 442.71004045 C66.90270153 448.02243457 66.63814182 451.91357187 63.54980469 456.45410156 C59.54725853 459.12246567 56.2566717 459.28812537 51.54980469 458.45410156 C48.79411022 456.27251011 47.11391722 454.58232663 45.54980469 451.45410156 C45.45713485 450.06790487 45.42606429 448.67733652 45.42675686 447.28804588 C45.42377029 445.9705743 45.42377029 445.9705743 45.42072338 444.62648714 C45.42363622 443.6556848 45.42654906 442.68488246 45.42955017 441.68466187 C45.42826853 440.14464113 45.42826853 440.14464113 45.426961 438.57350886 C45.4253054 435.11100023 45.43082891 431.64853937 45.4362793 428.18603516 C45.43656118 425.71286521 45.43640342 423.23969517 45.43583679 420.76652527 C45.4356086 415.43049879 45.43845687 410.09448737 45.44407463 404.75846481 C45.45219175 397.04341455 45.45480507 389.3283702 45.45606262 381.61331613 C45.45825281 369.09702512 45.46491199 356.58074061 45.47436523 344.06445312 C45.48354022 331.90397169 45.49062063 319.74349201 45.49487305 307.58300781 C45.49526713 306.45919215 45.49526713 306.45919215 45.49566918 305.31267314 C45.49697419 301.55421253 45.4982379 297.79575191 45.49948108 294.03729129 C45.50985265 262.84288998 45.52754425 231.64849676 45.54980469 200.45410156 C45.01613281 200.84776413 44.48246094 201.2414267 43.93261719 201.64701843 C41.47189481 203.46191094 39.01085159 205.27636791 36.54980469 207.09082031 C35.710625 207.70985229 34.87144531 208.32888428 34.00683594 208.9666748 C28.86927263 212.75388535 23.71998274 216.52403187 18.54980469 220.26660156 C17.70228638 220.88408264 17.70228638 220.88408264 16.83764648 221.51403809 C10.87284498 225.78949497 5.73272567 226.14287481 -1.45019531 225.45410156 C-7.43678838 223.75824073 -12.38441671 219.88267768 -15.45019531 214.45410156 C-16.97937509 209.14924721 -17.71038085 204.48987075 -17.76904297 198.93652344 C-17.7841114 197.8813855 -17.7841114 197.8813855 -17.79948425 196.80493164 C-17.83004382 194.51091226 -17.8472744 192.21700804 -17.86425781 189.92285156 C-17.88299147 188.32001778 -17.90256648 186.71719362 -17.92294312 185.11437988 C-17.97403843 180.91908475 -18.01378431 176.72375773 -18.05108643 172.52832031 C-18.09126864 168.23787696 -18.14229576 163.94756369 -18.19238281 159.65722656 C-18.28887411 151.25627412 -18.37336365 142.85525671 -18.45019531 134.45410156 C-20.10019531 133.79410156 -21.75019531 133.13410156 -23.45019531 132.45410156 C-23.45109095 133.55928983 -23.45109095 133.55928983 -23.45200467 134.68680513 C-23.4879028 178.36032871 -23.54454822 222.03378316 -23.62811626 265.70724287 C-23.63813366 270.95180096 -23.6479778 276.19635935 -23.65771484 281.44091797 C-23.6606269 283.00705607 -23.6606269 283.00705607 -23.66359779 284.60483332 C-23.69461432 301.50804117 -23.71159748 318.41123545 -23.72338954 335.3144664 C-23.73580288 352.66024376 -23.76330847 370.00594991 -23.80480838 387.35168231 C-23.82993846 398.05393133 -23.84331294 408.75606224 -23.84162489 419.4583412 C-23.84159512 426.79845475 -23.85623224 434.13844803 -23.88235959 441.47851472 C-23.8969994 445.71263591 -23.90521377 449.94651045 -23.895998 454.18065262 C-23.88769514 458.06108538 -23.89790916 461.94102314 -23.92253193 465.8213826 C-23.92820346 467.22127116 -23.92721886 468.62120684 -23.91870776 470.02108102 C-23.86573158 479.55522507 -24.5779628 487.76666221 -30.82519531 495.32910156 C-39.32959038 502.21361186 -45.63645983 503.28315462 -56.45019531 502.45410156 C-62.97531448 500.82282177 -67.9587098 496.0846744 -71.45019531 490.45410156 C-73.91066492 484.53894067 -74.88578568 479.22738377 -74.81095886 472.85496521 C-74.81352214 472.03873202 -74.81608541 471.22249883 -74.81872636 470.3815313 C-74.82362955 467.67301087 -74.80722925 464.96506002 -74.79077148 462.2565918 C-74.78992446 460.3045503 -74.79040182 458.35250786 -74.792099 456.40046692 C-74.79295743 451.1200921 -74.77535617 445.83992297 -74.75437713 440.55959582 C-74.73558506 435.03429385 -74.73385789 429.50898683 -74.7303009 423.98365784 C-74.72098788 413.52911869 -74.6963841 403.07467399 -74.66625243 392.62017637 C-74.63268534 380.7145243 -74.6162166 368.80886764 -74.60116613 356.90318 C-74.56983393 332.42010155 -74.51708783 307.93710686 -74.45019531 283.45410156 C-77.42019531 283.45410156 -80.39019531 283.45410156 -83.45019531 283.45410156 C-83.44835173 284.45593696 -83.44650814 285.45777235 -83.44460869 286.48996639 C-83.40019035 310.87779269 -83.36733463 335.26561373 -83.34657097 359.65347195 C-83.33626268 371.44729997 -83.32221086 383.24110125 -83.29931641 395.03491211 C-83.27936888 405.31555689 -83.26647562 415.5961823 -83.26201832 425.8768459 C-83.25941327 431.31929838 -83.25329947 436.76169546 -83.2387352 442.20413017 C-83.2251298 447.32992386 -83.22097867 452.45563948 -83.22397995 457.58144951 C-83.22343111 459.45952784 -83.21947134 461.33760886 -83.21178436 463.21567154 C-83.20177678 465.78750676 -83.2042475 468.35905043 -83.20968628 470.93089294 C-83.2038606 471.66730324 -83.19803491 472.40371353 -83.19203269 473.16243929 C-83.24197512 481.94999699 -84.64302339 489.68126658 -91.09082031 496.08300781 C-97.7046896 502.04986815 -103.14233585 502.90944193 -111.99707031 502.77050781 C-119.29298828 502.10199044 -123.62305378 498.8491421 -128.45019531 493.45410156 C-129.11019531 492.79410156 -129.77019531 492.13410156 -130.45019531 491.45410156 C-130.45019531 490.46410156 -130.45019531 489.47410156 -130.45019531 488.45410156 C-129.79792969 488.174375 -129.14566406 487.89464844 -128.47363281 487.60644531 C-120.83195195 484.10119052 -116.42591462 480.63241703 -112.81738281 473.00097656 C-110.82715403 467.44281269 -110.97451728 461.85784001 -111.01269531 456.01660156 C-110.99271484 454.93572266 -110.97273437 453.85484375 -110.95214844 452.74121094 C-110.95814595 442.85131018 -113.29616132 437.14664405 -119.45019531 429.45410156 C-124.07019531 427.14410156 -128.69019531 424.83410156 -133.45019531 422.45410156 C-133.78019531 327.08410156 -134.11019531 231.71410156 -134.45019531 133.45410156 C-136.10019531 133.78410156 -137.75019531 134.11410156 -139.45019531 134.45410156 C-139.45828217 135.36341431 -139.46636902 136.27272705 -139.47470093 137.20959473 C-139.5528148 145.80145016 -139.64015568 154.39315246 -139.7377224 162.98480988 C-139.78755424 167.40129996 -139.83388491 171.81776764 -139.87207031 176.234375 C-139.90908942 180.5009085 -139.95549334 184.76724833 -140.00825882 189.03361511 C-140.02671479 190.65696294 -140.04185481 192.28035213 -140.05353928 193.90376282 C-140.07055345 196.18701788 -140.09962259 198.46983786 -140.13134766 200.75292969 C-140.14467133 202.04976685 -140.157995 203.346604 -140.17172241 204.68273926 C-140.76660751 212.73927626 -142.82080838 219.015735 -148.82519531 224.70410156 C-165.97786032 236.13921157 -204.25716419 228.45410156 -213.45019531 228.45410156 C-213.45019531 289.50410156 -213.45019531 350.55410156 -213.45019531 413.45410156 C-211.80019531 413.78410156 -210.15019531 414.11410156 -208.45019531 414.45410156 C-207.0737873 414.88711882 -205.70689445 415.35156236 -204.35131836 415.84594727 C-203.57298645 416.12789444 -202.79465454 416.40984161 -201.99273682 416.70033264 C-200.73997955 417.16045998 -200.73997955 417.16045998 -199.46191406 417.62988281 C-198.57799988 417.95133774 -197.69408569 418.27279266 -196.78338623 418.60398865 C-193.89995948 419.65405548 -191.01865242 420.70977927 -188.13769531 421.76660156 C-186.15405312 422.49283958 -184.17041053 423.21907655 -182.18676758 423.9453125 C-178.18705247 425.41071247 -174.18849584 426.87922908 -170.19042969 428.34912109 C-165.75461667 429.97850701 -161.313435 431.59232941 -156.86869812 433.19718933 C-153.8932417 434.27371873 -150.92164724 435.36059106 -147.95108032 436.45053101 C-146.58300651 436.95016638 -145.21336069 437.44551958 -143.84213257 437.93643188 C-141.95588461 438.61273815 -140.07588963 439.30640962 -138.19628906 440.00097656 C-136.62899048 440.57090332 -136.62899048 440.57090332 -135.0300293 441.15234375 C-132.16352253 442.59875371 -130.98558053 443.65177528 -129.45019531 446.45410156 C-128.82553139 449.76627308 -128.94058076 453.08900677 -128.95019531 456.45410156 C-128.92183594 457.35644531 -128.89347656 458.25878906 -128.86425781 459.18847656 C-128.86167969 460.05988281 -128.85910156 460.93128906 -128.85644531 461.82910156 C-128.84935547 462.62058594 -128.84226563 463.41207031 -128.83496094 464.22753906 C-129.7911014 467.68785692 -131.41235321 468.58069819 -134.45019531 470.45410156 C-137.70272685 471.04601542 -140.91104219 471.01098504 -144.20996094 470.98754883 C-145.18777023 470.9961644 -146.16557953 471.00477997 -147.17301941 471.01365662 C-150.40109826 471.03633599 -153.62831046 471.02957425 -156.85644531 471.02050781 C-159.10176858 471.02574225 -161.34708964 471.03201806 -163.59240723 471.03929138 C-168.29657341 471.04969907 -173.00043717 471.04512821 -177.70458984 471.03051758 C-183.7341811 471.0133236 -189.76282 471.03683153 -195.79230499 471.07200718 C-200.42830729 471.09396165 -205.06408099 471.09254445 -209.70011902 471.08424187 C-211.92328435 471.0834214 -214.14646631 471.09030297 -216.36958313 471.10501289 C-219.47712872 471.12242344 -222.58295351 471.10794462 -225.69042969 471.08520508 C-226.60902267 471.09689728 -227.52761566 471.10858948 -228.4740448 471.12063599 C-229.32352188 471.10798203 -230.17299896 471.09532806 -231.04821777 471.08229065 C-232.14877628 471.08141119 -232.14877628 471.08141119 -233.2715683 471.08051395 C-236.84851181 470.0520489 -238.25028314 468.43014966 -240.45019531 465.45410156 C-241.16392148 462.25042044 -241.10395877 459.12644072 -241.0514679 455.85539246 C-241.05574002 454.88331842 -241.06001214 453.91124439 -241.06441373 452.90971357 C-241.07265544 449.6495467 -241.04513813 446.39066375 -241.01782227 443.13061523 C-241.01641206 440.79493236 -241.01720324 438.45924726 -241.02003479 436.12356567 C-241.02147139 429.7788292 -240.99204139 423.43456381 -240.957165 417.08993697 C-240.92910508 411.13234911 -240.9240507 405.17477965 -240.91890564 399.21713463 C-240.90796592 387.41786083 -240.87470062 375.61875998 -240.82739258 363.81958008 C-240.78148855 352.35865137 -240.74610081 340.89776967 -240.72485352 329.43676758 C-240.7235399 328.73016324 -240.72222628 328.02355891 -240.72087286 327.29554232 C-240.71434761 323.7506709 -240.70802908 320.20579915 -240.70181334 316.66092718 C-240.64999042 287.25854046 -240.56156198 257.85632286 -240.45019531 228.45410156 C-241.36816895 228.37518677 -241.36816895 228.37518677 -242.3046875 228.29467773 C-243.11067383 228.21709229 -243.91666016 228.13950684 -244.74707031 228.05957031 C-245.54467773 227.98633545 -246.34228516 227.91310059 -247.1640625 227.83764648 C-253.26547012 226.81401221 -256.9853504 222.17014047 -260.45019531 217.45410156 C-263.15541696 212.81657874 -263.07938422 207.67079439 -262.45019531 202.45410156 C-260.63420647 196.28843885 -256.83079531 191.88324705 -251.45019531 188.45410156 C-247.33873411 186.8945818 -243.83837573 186.18815123 -239.45019531 186.45410156 C-239.53269531 185.58785156 -239.61519531 184.72160156 -239.70019531 183.82910156 C-239.38553891 179.58124018 -238.13713186 177.72199737 -235.45019531 174.45410156 C-231.98696153 171.56807341 -228.96259447 170.91953009 -224.44238281 171.09863281 C-220.26259488 171.84443811 -217.53527581 174.40519042 -214.57519531 177.26660156 C-213.45019531 179.45410156 -213.45019531 179.45410156 -213.45019531 186.45410156 C-203.22019531 186.45410156 -192.99019531 186.45410156 -182.45019531 186.45410156 C-182.47339844 182.75578125 -182.49660156 179.05746094 -182.52050781 175.24707031 C-182.53613798 171.63615257 -182.54826356 168.02523871 -182.56005859 164.41430664 C-182.57007079 161.91884657 -182.58368454 159.42339809 -182.60107422 156.92797852 C-182.62553357 153.32597986 -182.63672659 149.72413732 -182.64550781 146.12207031 C-182.65583038 145.01953415 -182.66615295 143.91699799 -182.67678833 142.78105164 C-182.67909339 126.6023519 -178.99235455 113.89543545 -168.07519531 101.82910156 C-155.29417554 90.26532177 -141.81840794 87.12774281 -124.81933594 87.1953125 C-123.71373825 87.19180786 -122.60814056 87.18830322 -121.46903992 87.18469238 C-117.84810941 87.17595661 -114.22737749 87.18169535 -110.60644531 87.18847656 C-108.07019005 87.18712757 -105.53393504 87.18518509 -102.99768066 87.18267822 C-97.69552904 87.17973799 -92.39344727 87.18379544 -87.09130859 87.19335938 C-80.98882831 87.20424086 -74.88648174 87.20071414 -68.78400469 87.18970656 C-62.87814265 87.17948597 -56.97232162 87.18063259 -51.06645203 87.18647003 C-48.56914755 87.1877983 -46.07183963 87.18618782 -43.57453918 87.18151093 C-40.07662082 87.17639673 -36.57895443 87.18422449 -33.08105469 87.1953125 C-32.06254929 87.19126404 -31.04404388 87.18721558 -29.99467468 87.18304443 C-14.12938249 87.27558667 -1.38368803 91.12971062 10.29980469 102.01660156 C23.00254542 115.77790402 24.52815867 130.50383652 25.11230469 148.51660156 C25.15548828 149.76376953 25.19867188 151.0109375 25.24316406 152.29589844 C25.34842765 155.34854247 25.4505641 158.40125679 25.54980469 161.45410156 C33.45732289 158.74254697 40.19367663 154.76086445 44.54980469 147.45410156 C48.43801248 134.72287245 46.71837268 119.74748851 46.31799316 106.62646484 C46.18309887 101.53190953 46.15744915 96.43686633 46.12207031 91.34082031 C46.03704613 81.37516893 45.83222584 71.41597916 45.54980469 61.45410156 C44.68656082 61.46742523 44.68656082 61.46742523 43.80587769 61.48101807 C37.8036291 61.56967058 31.80156721 61.62990993 25.79882812 61.67382812 C23.56014448 61.69391472 21.32151311 61.72118936 19.08300781 61.75585938 C15.8608712 61.8045062 12.63942967 61.8271003 9.41699219 61.84472656 C8.41989227 61.8653717 7.42279236 61.88601685 6.39547729 61.9072876 C0.44576346 61.90919882 -2.92802695 61.43100548 -7.45019531 57.45410156 C-10.38813144 53.2841277 -10.8350159 50.19656476 -10.05566406 45.30957031 C-9.45019531 43.45410156 -9.45019531 43.45410156 -7.20019531 41.20410156 C-5.17944437 38.64961174 -5.17944437 38.64961174 -5.68066406 36.00878906 C-6.78280176 31.44192017 -8.24805023 27.02057054 -9.77832031 22.58300781 C-10.00269775 21.92800293 -10.2270752 21.27299805 -10.45825195 20.59814453 C-11.10873855 18.72498621 -11.78475615 16.86075271 -12.46191406 14.99707031 C-13.5188279 11.20805511 -13.91738404 8.36275969 -13.45019531 4.45410156 C-10.03081747 -0.73907399 -5.63895828 -0.08990602 0 0 Z " fill="#000000" transform="translate(324.4501953125,9.5458984375)"/>
<path d="M0 0 C3.76875696 2.08086923 7.05696162 4.41734344 10.28515625 7.26171875 C11.21134766 8.04869141 11.21134766 8.04869141 12.15625 8.8515625 C19.59849501 15.65361439 23.7274633 25.01685471 24.62109375 35.0234375 C24.76063129 49.04696048 21.79990122 59.4876693 12.28515625 70.26171875 C4.27635542 78.13703957 -6.4816913 81.90224151 -17.55859375 82.32421875 C-29.38475167 82.09003741 -39.82551678 78.23930963 -48.58984375 70.13671875 C-57.09306534 60.96990637 -61.30309516 49.34563053 -60.95703125 36.92578125 C-59.77040279 23.8728682 -54.25634955 13.40641518 -44.19140625 4.984375 C-31.66080312 -3.73170699 -14.19708879 -6.25374081 0 0 Z " fill="#000000" transform="translate(263.71484375,2.73828125)"/>
</svg>
