<?xml version="1.0" encoding="UTF-8"?>
<svg version="1.1" xmlns="http://www.w3.org/2000/svg" width="512" height="512">
<path d="M0 0 C77.55 0 155.1 0 235 0 C236.98 7.26 238.96 14.52 241 22 C252.64040375 53.21744642 275.74897995 77.72502607 305.70898438 91.99804688 C311.17652568 94.38922223 316.86227602 96.16232261 322.5625 97.90625 C326 99 326 99 327 100 C327.09492722 102.34253782 327.12559791 104.65546104 327.11352539 106.99829102 C327.11367142 107.72995483 327.11381744 108.46161865 327.1139679 109.2154541 C327.11326867 111.64496784 327.10547585 114.07440583 327.09765625 116.50390625 C327.0957921 118.18399514 327.09436819 119.86408457 327.09336853 121.54417419 C327.08954307 125.97473643 327.07971256 130.4052661 327.06866455 134.83581543 C327.05845103 139.35342976 327.05387104 143.87104934 327.04882812 148.38867188 C327.03809031 157.25912893 327.02101356 166.12956176 327 175 C319.70278489 178.39293777 312.34492284 181.52705414 304.85546875 184.46875 C302.77648782 185.29505761 300.6977178 186.12189604 298.61914062 186.94921875 C295.39111532 188.23136567 292.16188807 189.51005902 288.92895508 190.77978516 C285.77531153 192.02008646 282.6275768 193.27447438 279.48046875 194.53125 C278.51787643 194.90536011 277.55528412 195.27947021 276.56352234 195.66491699 C269.93809091 198.32878787 263.68937069 201.23671375 260.625 208.125 C258.4202491 213.88280251 258.4202491 213.88280251 259 224 C246.79 224 234.58 224 222 224 C221.34 218.245625 220.68 212.49125 220 206.5625 C219.68675781 203.86622437 219.68675781 203.86622437 219.3671875 201.11547852 C219.20272729 199.66166603 219.0386408 198.2078112 218.875 196.75390625 C218.78863281 196.02264526 218.70226562 195.29138428 218.61328125 194.53796387 C217.02555884 180.26972635 217.02555884 180.26972635 220.0625 176.3125 C220.701875 175.549375 221.34125 174.78625 222 174 C222.24677006 170.89706707 222.24677006 170.89706707 221 168 C220.18635986 167.50258301 219.37271973 167.00516602 218.53442383 166.49267578 C214.61444712 162.63727051 214.84093677 158.49536407 214.38671875 153.1796875 C214.27454514 152.08196014 214.16237152 150.98423279 214.04679871 149.85324097 C213.80594498 147.47759978 213.574877 145.1009506 213.35247803 142.72351074 C212.99817455 138.98071629 212.60921092 135.24308053 212.20947266 131.50488281 C211.51970469 125.03332895 210.8585922 118.55931784 210.21020508 112.08349609 C209.87505087 108.74759045 209.53458748 105.41231644 209.19147205 102.07722664 C208.85842818 98.82541453 208.53324064 95.5728162 208.20703125 92.3203125 C208.02428398 90.55447311 208.02428398 90.55447311 207.83784485 88.75296021 C207.1528967 81.80854218 206.84721774 74.9774411 207 68 C208.216875 67.608125 209.43375 67.21625 210.6875 66.8125 C215.54957089 64.9795423 218.82993795 62.45192491 221.11401367 57.66552734 C222.6434611 53.06412006 222.32763757 48.43269149 222.3125 43.625 C222.32861328 42.60921875 222.34472656 41.5934375 222.36132812 40.546875 C222.36565274 33.88696094 222.01739578 28.50457947 217.5 23.2578125 C212.67677603 19.61527356 209.59952265 18.87363065 203.63598633 18.82299805 C202.32064407 18.81016281 201.00530182 18.79732758 199.65010071 18.78410339 C198.21074807 18.77593394 196.77139115 18.7684906 195.33203125 18.76171875 C194.60558599 18.75764322 193.87914074 18.7535677 193.13068199 18.74936867 C189.2830064 18.72851884 185.43536632 18.71421442 181.58764648 18.70483398 C177.62776281 18.69379266 173.66844464 18.65941677 169.70876026 18.61966228 C166.65196239 18.59341861 163.59529744 18.58513517 160.53839684 18.58155251 C159.07964969 18.57670376 157.6209078 18.56513888 156.1622715 18.54651451 C148.21781743 18.4514103 141.80370961 18.47767322 135 23 C129.63670942 28.70930933 130.74502951 35.96022859 130.6875 43.3125 C130.65849609 44.53646484 130.62949219 45.76042969 130.59960938 47.02148438 C130.46106175 55.84791278 130.46106175 55.84791278 135 63 C138.67450717 65.89269713 141.44253407 67.22114373 146 68 C144.56565783 85.67035885 143.07203259 103.33629565 141.40874481 120.98668861 C141.03579503 124.95101206 140.67342453 128.91575376 140.33349609 132.88305664 C139.99779454 136.79698333 139.63625269 140.70773788 139.25666046 144.61764336 C139.1183856 146.0875008 138.98915323 147.55824105 138.86962128 149.02974129 C137.73883262 162.81769978 137.73883262 162.81769978 132.30157471 167.69017029 C130.67762554 169.08200417 130.67762554 169.08200417 130.375 172.1875 C130.70945701 175.13225303 130.70945701 175.13225303 133.06713867 176.55200195 C136.15026806 180.45683186 135.08333886 184.21973108 134.55078125 188.98046875 C134.45870895 189.94906326 134.36663666 190.91765778 134.27177429 191.91560364 C133.9721953 195.00861372 133.64216643 198.09756754 133.3125 201.1875 C133.10814338 203.28041599 132.90564683 205.37351449 132.70507812 207.46679688 C132.3287679 211.28262373 131.95235351 215.0983272 131.54418945 218.91088867 C131.46328568 219.67825851 131.3823819 220.44562836 131.29902649 221.23625183 C131 223 131 223 130 224 C128.59651265 224.09860131 127.18819523 224.13078937 125.78125 224.1328125 C124.50701172 224.13474609 124.50701172 224.13474609 123.20703125 224.13671875 C122.31371094 224.13285156 121.42039062 224.12898437 120.5 224.125 C119.16001953 224.13080078 119.16001953 224.13080078 117.79296875 224.13671875 C116.94347656 224.13542969 116.09398437 224.13414062 115.21875 224.1328125 C114.43435547 224.13168457 113.64996094 224.13055664 112.84179688 224.12939453 C111 224 111 224 110 223 C109.77015273 221.64429167 109.59998344 220.27836409 109.45581055 218.91088867 C109.3628923 218.04296188 109.26997406 217.1750351 109.17424011 216.2808075 C108.77473678 212.30296876 108.3771596 208.3250902 107.99584961 204.34545898 C107.79071611 202.24458657 107.57623307 200.14460554 107.35229492 198.0456543 C107.0302549 195.02560812 106.73662689 192.00398354 106.44921875 188.98046875 C106.34421555 188.04180466 106.23921234 187.10314056 106.13102722 186.1360321 C105.55300773 179.56317758 105.55300773 179.56317758 107.93676758 176.55981445 C108.61763428 176.04507568 109.29850098 175.53033691 110 175 C110.75015195 172.04308291 110.75015195 172.04308291 110 169 C107.666508 166.16588845 107.666508 166.16588845 105 164 C102.90685938 161.90685938 103.34105948 157.59705951 103.06030273 154.70410156 C102.97237457 153.83416565 102.88444641 152.96422974 102.79385376 152.06793213 C102.5027216 149.17591646 102.21805068 146.28330429 101.93359375 143.390625 C101.73355839 141.3861784 101.53320131 139.38176388 101.33253479 137.37738037 C100.91203071 133.16754745 100.49455712 128.95742847 100.0793457 124.74707031 C99.54715865 119.35172467 99.00890829 113.9570061 98.46855068 108.5624733 C98.05396259 104.4191201 97.64191348 100.27551762 97.23069954 96.13182831 C97.03316234 94.14306222 96.83499857 92.15435827 96.63619804 90.16571808 C96.35842798 87.38187542 96.0839065 84.59773138 95.81030273 81.81347656 C95.72771713 80.99145752 95.64513153 80.16943848 95.56004333 79.32250977 C95.19080489 75.53130793 94.90087365 71.81512485 95 68 C95.59167969 67.85304688 96.18335938 67.70609375 96.79296875 67.5546875 C102.74924943 65.86399771 105.50965602 64.12644271 109 59 C111.20505611 54.58988777 110.2747268 48.65502452 110.3125 43.8125 C110.34150391 42.59240234 110.37050781 41.37230469 110.40039062 40.11523438 C110.50907377 30.78916803 110.50907377 30.78916803 106 23 C98.66688018 18.07958335 91.2930635 18.43071343 82.7734375 18.50390625 C81.2970879 18.50375102 79.82073789 18.50225813 78.34439087 18.49949646 C75.26293743 18.49811787 72.18195251 18.51058177 69.10058594 18.53344727 C65.16196394 18.56188092 61.22411642 18.55907402 57.28543663 18.54635715 C54.24154098 18.53938593 51.19782273 18.54720478 48.15394974 18.55961418 C46.70196845 18.56411117 45.24996801 18.56448088 43.79798508 18.56054878 C41.76682117 18.5576214 39.73566139 18.57635776 37.70458984 18.59594727 C36.55179535 18.60135025 35.39900085 18.60675323 34.21127319 18.61231995 C29.93081809 19.12907669 26.55412302 20.58246261 23.35546875 23.5 C18.42911631 29.82682052 18.75654456 34.9499065 18.6875 42.6875 C18.64399414 44.28368164 18.64399414 44.28368164 18.59960938 45.91210938 C18.54795449 52.34512916 18.94371135 57.76846352 23 63 C26.31689217 65.64866093 29.88155198 67.06973652 34 68 C34.25792316 77.48497407 33.27018348 86.80890335 32.3203125 96.23046875 C32.14549721 97.99300249 31.9709308 99.75556094 31.79660034 101.5181427 C31.43166742 105.19562046 31.06304385 108.87270517 30.69189453 112.54956055 C30.2178928 117.24931323 29.75424397 121.95002171 29.2934742 126.65108776 C28.9359841 130.28475147 28.57246948 133.91779373 28.20721054 137.55068398 C28.03381207 139.28354608 27.86238955 141.01660714 27.6930275 142.74986839 C27.45535496 145.1740029 27.20942281 147.59716652 26.96142578 150.02026367 C26.89381042 150.72744537 26.82619507 151.43462708 26.75653076 152.16323853 C25.56745329 163.50545152 25.56745329 163.50545152 21.3125 167.5625 C18.64153103 169.81785901 18.64153103 169.81785901 19 173.125 C19.74134957 175.98755916 19.74134957 175.98755916 21.54736328 177.4209137 C23.41337299 179.44935642 23.343447 180.42530357 23.2421875 183.14038086 C23.21479492 183.93838104 23.18740234 184.73638123 23.15917969 185.55856323 C22.91488851 189.30540729 22.56527504 193.025175 22.125 196.75390625 C22.03621582 197.54022934 21.94743164 198.32655243 21.85595703 199.13670349 C21.5753321 201.61253116 21.28779668 204.08749685 21 206.5625 C20.8068311 208.2558069 20.61411872 209.94916594 20.421875 211.64257812 C19.95402721 215.76246187 19.47681265 219.88110504 19 224 C12.73 224 6.46 224 0 224 C0 150.08 0 76.16 0 0 Z " fill="#000000" transform="translate(41,273)"/>
<path d="M0 0 C0.79780687 -0.00611336 1.59561374 -0.01222672 2.41759658 -0.01852533 C5.10176444 -0.03417602 7.78503529 -0.02123896 10.46920776 -0.00850582 C12.40862113 -0.01382882 14.34803038 -0.02089307 16.28743172 -0.02955288 C21.62530975 -0.04823965 26.96291149 -0.04185446 32.30080128 -0.03139985 C38.05412553 -0.02442499 43.80739204 -0.04039268 49.56069946 -0.05339718 C60.83478722 -0.07507079 72.10877417 -0.07490173 83.38287592 -0.06677163 C92.54319389 -0.06047925 101.7034824 -0.06160166 110.86380005 -0.06804371 C112.81724813 -0.06939619 112.81724813 -0.06939619 114.8101598 -0.070776 C117.45551349 -0.07262714 120.10086716 -0.0744897 122.74622083 -0.07636356 C140.51459458 -0.088239 158.28295566 -0.09263569 176.05133057 -0.08142853 C176.74631872 -0.08099056 177.44130687 -0.08055259 178.15735526 -0.08010134 C183.80140941 -0.0764944 189.4454634 -0.07265969 195.08951738 -0.06881041 C217.10984426 -0.05396026 239.13004713 -0.06274514 261.15036011 -0.09076595 C285.88225312 -0.12217696 310.61406992 -0.13710145 335.34598351 -0.12696594 C337.98176446 -0.12594335 340.61754544 -0.12494875 343.25332642 -0.12398243 C344.55027974 -0.12350604 345.84723307 -0.12302965 347.18348801 -0.12253882 C356.33590064 -0.1203714 365.48825567 -0.13019618 374.64065552 -0.14475346 C385.78997019 -0.16223906 396.93911627 -0.16221364 408.08842421 -0.1394018 C413.78018063 -0.12822562 419.47163958 -0.12517348 425.16338348 -0.14370251 C430.36950047 -0.16043297 435.57505884 -0.15425742 440.78113914 -0.12948572 C442.66868143 -0.12457753 444.55626815 -0.12818529 446.44377351 -0.14097316 C449.00223888 -0.15706156 451.55875066 -0.14259797 454.11712646 -0.12025452 C454.85660452 -0.13224619 455.59608257 -0.14423787 456.35796905 -0.15659294 C460.29240357 -0.08602943 461.92213289 0.39505641 465.01559639 2.91420513 C467.02443273 5.46285583 467.72803843 6.40345059 467.62106323 9.56865788 C467.05856323 13.50615788 467.05856323 13.50615788 465.24606323 15.94365788 C458.09527762 21.05136189 452.03808875 18.50615788 442.05856323 18.50615788 C442.38856323 39.29615788 442.71856323 60.08615788 443.05856323 81.50615788 C453.94856323 85.96115788 453.94856323 85.96115788 465.05856323 90.50615788 C467.05856323 92.50615788 467.05856323 92.50615788 467.28903198 94.59990788 C467.27485229 95.39397038 467.26067261 96.18803288 467.24606323 97.00615788 C467.23961792 97.80022038 467.23317261 98.59428288 467.22653198 99.41240788 C467.05856323 101.50615788 467.05856323 101.50615788 466.05856323 103.50615788 C462.85679466 104.57341407 460.54754201 104.63937446 457.18185425 104.65142155 C455.97372574 104.6578014 454.76559723 104.66418125 453.52085876 104.67075443 C451.56145607 104.67242367 451.56145607 104.67242367 449.56246948 104.67412663 C448.20870427 104.67734035 446.85493941 104.68070451 445.50117493 104.68421268 C442.664095 104.69019903 439.82704551 104.69205307 436.98995972 104.69146061 C433.35718904 104.69135897 429.72461375 104.70501501 426.09188938 104.72223282 C423.29603684 104.73335863 420.50023147 104.73537965 417.70435905 104.73485088 C415.7146294 104.73660271 413.72491446 104.747439 411.73521423 104.75840092 C409.91829323 104.75378597 409.91829323 104.75378597 408.06466675 104.7490778 C406.99893936 104.75050282 405.93321198 104.75192783 404.83518982 104.75339603 C402.06297092 104.50655035 400.41742815 103.93606368 398.05856323 102.50615788 C397.9503148 100.90347967 397.87285678 99.29870039 397.80856323 97.69365788 C397.76215698 96.80033756 397.71575073 95.90701725 397.66793823 94.98662663 C398.05856323 92.50615788 398.05856323 92.50615788 402.05856323 89.50615788 C408.65856323 86.86615788 415.25856323 84.22615788 422.05856323 81.50615788 C422.38856323 60.71615788 422.71856323 39.92615788 423.05856323 18.50615788 C383.78856323 18.50615788 344.51856323 18.50615788 304.05856323 18.50615788 C304.05856323 39.29615788 304.05856323 60.08615788 304.05856323 81.50615788 C307.02856323 82.49615788 309.99856323 83.48615788 313.05856323 84.50615788 C315.71764267 85.50426506 318.35961393 86.51569396 320.99606323 87.56865788 C321.65412964 87.82453678 322.31219604 88.08041569 322.99020386 88.3440485 C325.82189612 89.47150837 327.88017452 90.32776916 330.05856323 92.50615788 C330.28903198 94.59990788 330.28903198 94.59990788 330.24606323 97.00615788 C330.23961792 97.80022038 330.23317261 98.59428288 330.22653198 99.41240788 C330.05856323 101.50615788 330.05856323 101.50615788 329.05856323 103.50615788 C325.85679466 104.57341407 323.54754201 104.63937446 320.18185425 104.65142155 C318.97372574 104.6578014 317.76559723 104.66418125 316.52085876 104.67075443 C314.56145607 104.67242367 314.56145607 104.67242367 312.56246948 104.67412663 C311.20870427 104.67734035 309.85493941 104.68070451 308.50117493 104.68421268 C305.664095 104.69019903 302.82704551 104.69205307 299.98995972 104.69146061 C296.35718904 104.69135897 292.72461375 104.70501501 289.09188938 104.72223282 C286.29603684 104.73335863 283.50023147 104.73537965 280.70435905 104.73485088 C278.7146294 104.73660271 276.72491446 104.747439 274.73521423 104.75840092 C272.91829323 104.75378597 272.91829323 104.75378597 271.06466675 104.7490778 C269.99893936 104.75050282 268.93321198 104.75192783 267.83518982 104.75339603 C265.06297092 104.50655035 263.41742815 103.93606368 261.05856323 102.50615788 C260.9503148 100.90347967 260.87285678 99.29870039 260.80856323 97.69365788 C260.76215698 96.80033756 260.71575073 95.90701725 260.66793823 94.98662663 C261.05856323 92.50615788 261.05856323 92.50615788 265.05856323 89.50615788 C271.65856323 86.86615788 278.25856323 84.22615788 285.05856323 81.50615788 C285.38856323 60.71615788 285.71856323 39.92615788 286.05856323 18.50615788 C246.78856323 18.50615788 207.51856323 18.50615788 167.05856323 18.50615788 C167.38856323 39.29615788 167.71856323 60.08615788 168.05856323 81.50615788 C175.64856323 84.47615788 183.23856323 87.44615788 191.05856323 90.50615788 C193.01912033 93.44699352 193.37070868 94.1874374 193.43356323 97.50615788 C193.46192261 98.18678288 193.49028198 98.86740788 193.51950073 99.56865788 C193.05856323 101.50615788 193.05856323 101.50615788 191.40988159 103.10199833 C188.41931389 104.88790459 186.45051169 104.89283877 182.97653198 104.91021061 C181.13442139 104.92923687 181.13442139 104.92923687 179.25509644 104.9486475 C177.91875032 104.94659613 176.58240536 104.94360816 175.24606323 104.93975163 C173.87130475 104.94431418 172.49654855 104.94961998 171.12179565 104.95563602 C168.24352743 104.96456223 165.36553676 104.96214939 162.48727417 104.9522028 C158.80156473 104.94070594 155.11681235 104.96093644 151.43122864 104.99011993 C148.59329156 105.00847792 145.7555841 105.00819054 142.91760254 105.00248241 C141.55884456 105.00232919 140.20007104 105.00837486 138.84136963 105.02077389 C136.94116479 105.03567348 135.0408023 105.02238208 133.14059448 105.00786686 C131.51988037 105.00761761 131.51988037 105.00761761 129.86642456 105.00736332 C126.37425225 104.38400783 125.19734152 103.28747277 123.05856323 100.50615788 C122.49606323 97.56865788 122.49606323 97.56865788 123.05856323 94.50615788 C128.05856323 89.50615788 128.05856323 89.50615788 148.05856323 81.50615788 C148.38856323 60.71615788 148.71856323 39.92615788 149.05856323 18.50615788 C109.78856323 18.50615788 70.51856323 18.50615788 30.05856323 18.50615788 C30.38856323 39.29615788 30.71856323 60.08615788 31.05856323 81.50615788 C38.31856323 84.47615788 45.57856323 87.44615788 53.05856323 90.50615788 C56.48930327 93.93689791 56.48930327 93.93689791 56.49606323 97.50615788 C56.52506714 98.52709538 56.52506714 98.52709538 56.55465698 99.56865788 C55.83088322 102.39536487 54.53547382 103.02561366 52.05856323 104.50615788 C49.2507019 104.89383793 49.2507019 104.89383793 45.97653198 104.91021061 C44.13442139 104.92923687 44.13442139 104.92923687 42.25509644 104.9486475 C40.91875032 104.94659613 39.58240536 104.94360816 38.24606323 104.93975163 C36.87130475 104.94431418 35.49654855 104.94961998 34.12179565 104.95563602 C31.24352743 104.96456223 28.36553676 104.96214939 25.48727417 104.9522028 C21.80156473 104.94070594 18.11681235 104.96093644 14.43122864 104.99011993 C11.59329156 105.00847792 8.7555841 105.00819054 5.91760254 105.00248241 C4.55884456 105.00232919 3.20007104 105.00837486 1.84136963 105.02077389 C-0.05883521 105.03567348 -1.9591977 105.02238208 -3.85940552 105.00786686 C-5.48011963 105.00761761 -5.48011963 105.00761761 -7.13357544 105.00736332 C-10.61174306 104.38650768 -11.8094682 103.27288506 -13.94143677 100.50615788 C-14.11331177 98.14678288 -14.11331177 98.14678288 -13.69143677 95.75615788 C-13.56253052 94.95693913 -13.43362427 94.15772038 -13.30081177 93.33428288 C-13.18221802 92.73100163 -13.06362427 92.12772038 -12.94143677 91.50615788 C-9.50478334 90.02501871 -6.06697182 88.54658684 -2.62893677 87.06865788 C-1.65247192 86.64777897 -0.67600708 86.22690006 0.33004761 85.79326725 C1.26784058 85.39043522 2.20563354 84.98760319 3.17184448 84.57256413 C4.03591919 84.20075016 4.8999939 83.8289362 5.79025269 83.44585514 C7.51911802 82.72963486 9.28324575 82.09793037 11.05856323 81.50615788 C11.38856323 60.71615788 11.71856323 39.92615788 12.05856323 18.50615788 C5.78856323 18.50615788 -0.48143677 18.50615788 -6.94143677 18.50615788 C-11.94143677 15.50615788 -11.94143677 15.50615788 -13.31643677 13.19365788 C-14.09963111 9.8259222 -13.99502575 7.80740335 -12.94143677 4.50615788 C-8.96491749 0.35666601 -5.49915379 -0.06751493 0 0 Z " fill="#000000" transform="translate(28.941436767578125,15.493842124938965)"/>
<path d="M0 0 C57.42 0 114.84 0 174 0 C186.72379039 25.44758079 191.08661993 45.16089573 190 73 C189.96011963 74.12486816 189.96011963 74.12486816 189.91943359 75.27246094 C189.63719908 81.11109689 189.02655679 85.67154675 184.75 89.875 C167.81074653 102.15291214 148.5511355 105.85756901 128 104 C118.740284 102.435108 111.5935342 98.35740143 104 93 C85.48463998 80.0266525 67.1543517 76.96992142 45.09667969 80.60205078 C26.58298564 84.11594474 8.03700918 93.25107223 -5 107 C-5.99 106.67 -6.98 106.34 -8 106 C-19.93268531 80.09734165 -18.67074219 48.38120051 -10.25 21.8125 C-10.03456543 21.12406006 -9.81913086 20.43562012 -9.59716797 19.72631836 C-7.15689046 12.53618487 -3.7414324 6.94837446 0 0 Z M154.0625 29.5625 C152.12544597 32.21353228 151.99831422 32.90896762 152.0625 36.375 C152.54297779 38.23284747 153.02475945 40.09048123 153.53125 41.94140625 C155.41524035 49.02022292 155.53063419 54.53417787 153.4375 61.5625 C152.07111814 66.25374438 151.53361506 69.3075682 153 74 C155.22165544 76.55078958 156.60829443 76.93332671 159.9375 77.5 C163.07604372 76.9875847 164.72843096 76.34253887 166.83203125 73.92578125 C173.15222012 63.50486782 173.33295331 51.12157284 170.75 39.5625 C169.48000711 35.01219372 168.03341179 31.62052375 165 28 C160.52440329 25.76220164 157.77700128 26.32219037 154.0625 29.5625 Z " fill="#000000" transform="translate(306,187)"/>
<path d="M0 0 C5.16192521 3.95785781 10.23824141 6.85414353 16.40161133 9.02783203 C17.22661133 9.34365234 18.05161133 9.65947266 18.90161133 9.98486328 C38.80044525 16.31893978 61.25136568 11.38971802 80.40161133 5.02783203 C79.03508436 9.74986238 77.01078085 13.68625025 74.33911133 17.77783203 C73.7446521 18.69363037 73.7446521 18.69363037 73.13818359 19.62792969 C69.39895045 25.25486652 65.1088598 30.1848791 60.40161133 35.02783203 C59.77899414 35.71232422 59.15637695 36.39681641 58.51489258 37.10205078 C42.13699181 54.57867864 16.85534546 65.10505569 -6.9140625 66.05541992 C-32.11532349 66.49157977 -55.21311229 58.07374694 -74.59838867 42.02783203 C-75.40920898 41.36912109 -76.2200293 40.71041016 -77.05541992 40.03173828 C-85.38487945 32.97936794 -91.70535106 24.76685881 -96.59838867 15.02783203 C-82.53874466 1.02055168 -66.52048763 -8.786097 -46.59838867 -11.97216797 C-45.45370117 -12.15585937 -45.45370117 -12.15585937 -44.28588867 -12.34326172 C-27.26019902 -14.5533272 -13.36386827 -10.29565934 0 0 Z " fill="#000000" transform="translate(403.598388671875,293.97216796875)"/>
<path d="M0 0 C5.94 0 11.88 0 18 0 C18.0093457 2.4327832 18.01869141 4.86556641 18.02832031 7.37207031 C18.06207622 15.40687354 18.11761727 23.44141955 18.18390274 31.476017 C18.22342464 36.34779464 18.25558993 41.21939026 18.27099609 46.09130859 C18.28613173 50.7923628 18.32052192 55.49291673 18.36830902 60.19374847 C18.38315483 61.98785811 18.39104284 63.78203916 18.39188385 65.57621002 C18.39424571 68.08813412 18.4212604 70.59866685 18.45410156 73.11035156 C18.4490712 73.85338028 18.44404083 74.596409 18.43885803 75.36195374 C18.50767367 78.76022093 18.73588002 80.65435767 20.82597351 83.38957214 C23.77441942 85.5736575 26.93387869 86.93179018 30.31640625 88.28515625 C31.03756622 88.58272324 31.7587262 88.88029022 32.5017395 89.18687439 C34.04925133 89.82377805 35.59865775 90.45609422 37.14974976 91.08422852 C39.57890988 92.06915354 42.00149981 93.06890101 44.4230957 94.07226562 C51.37395434 96.94321323 58.33563241 99.77452282 65.37031555 102.43443298 C67.29338348 103.16159475 69.21236288 103.89867001 71.13061523 104.63842773 C73.45664592 105.52883017 75.79200777 106.39532138 78.13696289 107.23461914 C80.95454278 108.31925201 83.48035079 109.33824422 86 111 C87.45703125 114.5625 87.45703125 114.5625 87 118 C84.8832561 120.80231077 83.69746376 121.87427305 80.20761108 122.50336456 C78.58383041 122.50562672 78.58383041 122.50562672 76.92724609 122.50793457 C75.68223328 122.51921387 74.43722046 122.53049316 73.15447998 122.54211426 C71.77746349 122.53433728 70.4004493 122.52614462 69.0234375 122.51757812 C67.57122089 122.52299909 66.11900977 122.53012161 64.66680908 122.53881836 C60.72461725 122.55705799 56.78284401 122.54998178 52.84064484 122.53730202 C48.71585458 122.52717757 44.59110025 122.53656615 40.46630859 122.54284668 C33.53932253 122.55012472 26.61250704 122.54053134 19.68554688 122.52148438 C11.67607899 122.49971523 3.66701837 122.5067665 -4.34243965 122.52879 C-11.21814524 122.5469396 -18.09372819 122.5495045 -24.96945 122.53903532 C-29.07648266 122.53279793 -33.18332386 122.53197138 -37.29034424 122.54518127 C-41.15153323 122.55673288 -45.01219695 122.54872728 -48.87332916 122.52560425 C-50.29069394 122.52031338 -51.7081029 122.52183748 -53.12545013 122.53065491 C-55.05936611 122.54157708 -56.99337864 122.5254546 -58.92724609 122.50793457 C-60.00976654 122.50642647 -61.09228699 122.50491837 -62.20761108 122.50336456 C-65.69769179 121.87423195 -66.88108937 120.80061824 -69 118 C-69.5 114.5625 -69.5 114.5625 -68 111 C-65.90966797 109.83740234 -65.90966797 109.83740234 -63.1171875 108.7734375 C-62.03211914 108.34780518 -60.94705078 107.92217285 -59.82910156 107.48364258 C-59.22054321 107.24940582 -58.61198486 107.01516907 -57.98498535 106.77383423 C-54.23131738 105.31049005 -50.51400936 103.75728004 -46.7890625 102.22265625 C-45.11477436 101.53664296 -43.44029186 100.85110386 -41.765625 100.16601562 C-40.91935547 99.81966064 -40.07308594 99.47330566 -39.20117188 99.11645508 C-37.48741871 98.41532995 -35.77355197 97.71448237 -34.05957031 97.01391602 C-29.12471248 94.99644113 -24.19459733 92.96800645 -19.26818848 90.92999268 C-17.09309712 90.03817127 -14.91076488 89.16704528 -12.72558594 88.30029297 C-11.44972886 87.78257375 -10.17400368 87.2645293 -8.8984375 86.74609375 C-7.79935059 86.30837646 -6.70026367 85.87065918 -5.56787109 85.41967773 C-2.56546119 83.75976011 -2.13730558 83.17415356 -1 80 C-0.79157833 77.36687483 -0.6889072 74.83598005 -0.68115234 72.20214844 C-0.67110672 71.42127869 -0.6610611 70.64040894 -0.65071106 69.83587646 C-0.61987355 67.26038331 -0.60284244 64.68499415 -0.5859375 62.109375 C-0.5672263 60.32146306 -0.54765292 58.53355996 -0.5272522 56.7456665 C-0.4759199 52.0439576 -0.43630004 47.34222006 -0.39910889 42.64038086 C-0.35907614 37.84091095 -0.30798046 33.04156027 -0.2578125 28.2421875 C-0.16104013 18.82820041 -0.07766212 9.41416416 0 0 Z " fill="#000000" transform="translate(384,375)"/>
<path d="M0 0 C0 40.59 0 81.18 0 123 C-3.32920407 122.33415919 -5.76724409 121.8173325 -8.78955078 120.58886719 C-9.49443634 120.3047699 -10.1993219 120.02067261 -10.92556763 119.72796631 C-11.67458344 119.42070618 -12.42359924 119.11344604 -13.1953125 118.796875 C-13.98340302 118.47720764 -14.77149353 118.15754028 -15.58346558 117.82818604 C-17.25018085 117.15106044 -18.91602698 116.47179206 -20.58105469 115.79052734 C-23.09366591 114.7628163 -25.60905237 113.742168 -28.125 112.72265625 C-29.75277543 112.06031658 -31.38038478 111.39756857 -33.0078125 110.734375 C-33.74468292 110.43521179 -34.48155334 110.13604858 -35.24075317 109.82781982 C-41.24350838 107.36711698 -47.08043857 104.69070974 -53 102 C-53 77.25 -53 52.5 -53 27 C-45 24 -45 24 -41.796875 22.82421875 C-27.963228 17.66320429 -15.6545862 11.14463712 -4.24609375 1.7265625 C-2 0 -2 0 0 0 Z " fill="#000000" transform="translate(471,346)"/>
<path d="M0 0 C1.04064 -0.0034177 2.08128 -0.0068354 3.15345454 -0.01035666 C6.65146962 -0.01696181 10.14872273 0.00508484 13.64666748 0.0269165 C16.14968854 0.02804441 18.65271092 0.02741224 21.1557312 0.02514648 C26.55020249 0.02423468 31.94443517 0.03560299 37.3388443 0.05809784 C45.1382202 0.09060031 52.93750252 0.10102304 60.7369388 0.10604981 C73.39082067 0.11480523 86.04459942 0.14142747 98.69842529 0.17926025 C110.99073775 0.21597397 123.28302221 0.24428885 135.57537842 0.2612915 C136.3330244 0.2623424 137.09067038 0.26339329 137.87127534 0.26447603 C141.67214672 0.26969617 145.4730183 0.274751 149.27389002 0.27972364 C180.80805489 0.32119337 212.34209162 0.39194574 243.87615967 0.48101807 C243.87615967 6.42101807 243.87615967 12.36101807 243.87615967 18.48101807 C212.00238551 18.54944914 180.12863225 18.60254362 148.2548018 18.63421405 C144.49219441 18.6379662 140.72958716 18.64184916 136.96697998 18.64581299 C136.21790954 18.64659992 135.46883909 18.64738685 134.69706954 18.64819763 C122.5666634 18.66125317 110.43629989 18.68490782 98.30591904 18.71247645 C85.85993614 18.74052654 73.41397559 18.75719348 60.96796238 18.76328355 C53.28749 18.76740082 45.60713811 18.78040702 37.92670281 18.80476747 C32.03831308 18.82249313 26.14998527 18.82438468 20.26156807 18.82034111 C17.8452448 18.82116769 15.42891705 18.8271516 13.01262093 18.83863449 C9.71711756 18.85352984 6.42213245 18.84998211 3.12661743 18.84178162 C2.16746646 18.85052014 1.20831548 18.85925866 0.22009933 18.86826199 C-4.96874862 18.83329134 -8.65878831 18.43801219 -13.12384033 15.48101807 C-14.94462757 12.55192556 -15.13941486 10.86259408 -14.99884033 7.41851807 C-12.6211827 -0.56361826 -7.21750297 -0.08610435 0 0 Z " fill="#000000" transform="translate(30.12384033203125,238.51898193359375)"/>
<path d="M0 0 C9.24 0 18.48 0 28 0 C29.62220546 3.24441091 29.59223833 6.85375655 29.93969727 10.42529297 C30.07158951 11.73282532 30.07158951 11.73282532 30.20614624 13.06677246 C30.49677535 15.95820424 30.78168249 18.8501687 31.06640625 21.7421875 C31.26647057 23.74759759 31.46682736 25.75297851 31.66746521 27.7583313 C32.08764709 31.96641485 32.5051612 36.17475173 32.9206543 40.38330078 C33.45351329 45.77976824 33.99156836 51.17570127 34.53144932 56.57147026 C34.94567518 60.71481655 35.35783611 64.85836609 35.76930046 69.00198746 C35.9669846 70.99156544 36.16514989 72.98109567 36.36380196 74.97057724 C36.64109373 77.75216452 36.9157755 80.53399707 37.18969727 83.31591797 C37.27228287 84.13996124 37.35486847 84.96400452 37.43995667 85.8130188 C37.774329 89.23353538 38 92.5591946 38 96 C22.49 96 6.98 96 -9 96 C-9 89.7282777 -8.92604695 83.80062068 -8.28149414 77.61621094 C-8.20507187 76.84410278 -8.1286496 76.07199463 -8.0499115 75.27648926 C-7.79978355 72.76194471 -7.54262324 70.24817778 -7.28515625 67.734375 C-7.10781311 65.96945921 -6.93085333 64.20450486 -6.7542572 62.43951416 C-6.38486484 58.75786443 -6.0122208 55.07656423 -5.63696289 51.39550781 C-5.15697318 46.68640578 -4.68307674 41.97671633 -4.21134281 37.26678085 C-3.846694 33.62916255 -3.47989154 29.99176416 -3.1123333 26.35443878 C-2.93689947 24.61780227 -2.76188258 22.88112359 -2.58729744 21.14440155 C-2.3428544 18.7181275 -2.09577132 16.29213689 -1.84790039 13.86621094 C-1.77668976 13.15543396 -1.70547913 12.44465698 -1.6321106 11.71234131 C-1.22541942 7.76355215 -0.65423029 3.92538173 0 0 Z " fill="#000000" transform="translate(203,341)"/>
<path d="M0 0 C9.24 0 18.48 0 28 0 C29.89099581 17.88184386 31.77530478 35.76436643 33.64862061 53.64807129 C33.95790738 56.59846404 34.26807044 59.54876269 34.57861328 62.49902344 C35.01666052 66.66542028 35.44704116 70.83255499 35.875 75 C35.99464111 76.13260254 36.11428223 77.26520508 36.23754883 78.43212891 C36.34220459 79.46515137 36.44686035 80.49817383 36.5546875 81.5625 C36.68593018 82.83287109 36.68593018 82.83287109 36.81982422 84.12890625 C37.06768913 88.0786235 37 92.042513 37 96 C21.49 96 5.98 96 -10 96 C-8.51674882 77.44072648 -6.76688325 58.9171508 -4.91333008 40.39208984 C-4.51030458 36.36224953 -4.11283143 32.33188063 -3.71656704 28.30137062 C-3.4078535 25.16996417 -3.09558161 22.03892028 -2.78227425 18.90797043 C-2.63387958 17.41931148 -2.48676567 15.93052426 -2.34097099 14.44160843 C-2.13917272 12.38466917 -1.93241944 10.3282872 -1.72436523 8.27197266 C-1.60826401 7.10526031 -1.49216278 5.93854797 -1.37254333 4.73648071 C-1 2 -1 2 0 0 Z " fill="#000000" transform="translate(92,341)"/>
<path d="M0 0 C16.83 0 33.66 0 51 0 C51.66 6.5175 52.32 13.035 53 19.75 C53.20882812 21.80186523 53.41765625 23.85373047 53.6328125 25.96777344 C53.79703279 27.59829141 53.9611053 29.22882427 54.125 30.859375 C54.21136719 31.70258301 54.29773438 32.54579102 54.38671875 33.41455078 C54.46792969 34.22617676 54.54914063 35.03780273 54.6328125 35.87402344 C54.73940186 36.92659332 54.73940186 36.92659332 54.84814453 38.00042725 C54.99963404 39.99518125 55 41.99950191 55 44 C35.53 44 16.06 44 -4 44 C-4 37.9787776 -3.97636536 32.50515243 -3.37890625 26.6015625 C-3.24806641 25.29832031 -3.11722656 23.99507813 -2.98242188 22.65234375 C-2.87885376 21.66016846 -2.87885376 21.66016846 -2.77319336 20.64794922 C-2.560763 18.60832236 -2.35699244 16.5679588 -2.15429688 14.52734375 C-1.13616071 4.54464286 -1.13616071 4.54464286 0 0 Z " fill="#000000" transform="translate(192,453)"/>
<path d="M0 0 C16.83 0 33.66 0 51 0 C55 33.33333333 55 33.33333333 55 44 C35.53 44 16.06 44 -4 44 C-2.77697693 29.32372311 -1.465406 14.65405999 0 0 Z " fill="#000000" transform="translate(80,453)"/>
<path d="M0 0 C20.13 0 40.26 0 61 0 C61 5.94 61 11.88 61 18 C40.87 18 20.74 18 0 18 C0 12.06 0 6.12 0 0 Z " fill="#000000" transform="translate(187,307)"/>
<path d="M0 0 C20.13 0 40.26 0 61 0 C61 5.94 61 11.88 61 18 C40.87 18 20.74 18 0 18 C0 12.06 0 6.12 0 0 Z " fill="#000000" transform="translate(75,307)"/>
<path d="M0 0 C2.64365079 1.87613927 2.95241281 2.85723843 4 6 C4.08650584 7.48844716 4.11770173 8.98048257 4.11352539 10.47143555 C4.11344986 11.37214279 4.11337433 12.27285004 4.11329651 13.20085144 C4.10813522 14.16968765 4.10297394 15.13852386 4.09765625 16.13671875 C4.0962413 17.13129593 4.09482635 18.12587311 4.09336853 19.15058899 C4.08776761 22.32958982 4.07521496 25.50852043 4.0625 28.6875 C4.05748512 30.84179586 4.05292219 32.99609282 4.04882812 35.15039062 C4.03779787 40.43362084 4.02053262 45.71679851 4 51 C-1.94 51 -7.88 51 -14 51 C-14.09885488 44.37976445 -14.17146298 37.75995821 -14.21972656 31.13916016 C-14.23984556 28.88680539 -14.26714408 26.63450287 -14.30175781 24.38232422 C-14.35026209 21.14537669 -14.37296605 17.90911953 -14.390625 14.671875 C-14.41127014 13.66445251 -14.43191528 12.65703003 -14.45318604 11.61907959 C-14.45543255 4.62449285 -14.45543255 4.62449285 -12.10058594 1.39550781 C-7.95402968 -1.35922436 -4.76915534 -1.11410596 0 0 Z " fill="#000000" transform="translate(141,171)"/>
<path d="M0 0 C8.58 0 17.16 0 26 0 C26 8.58 26 17.16 26 26 C17.42 26 8.84 26 0 26 C0 17.42 0 8.84 0 0 Z " fill="#000000" transform="translate(50,196)"/>
</svg>
