<?xml version="1.0" encoding="UTF-8"?>
<svg version="1.1" xmlns="http://www.w3.org/2000/svg" width="512" height="512">
<path d="M0 0 C0.91168945 0.33773437 1.82337891 0.67546875 2.76269531 1.0234375 C3.56231689 1.32789795 4.36193848 1.6323584 5.18579102 1.94604492 C11.23205133 3.77822774 17.31262305 3.87307461 23.56787109 3.85644531 C24.41917603 3.85831345 25.27048096 3.86018158 26.14758301 3.86210632 C27.98469873 3.86609074 29.82181935 3.86818335 31.65893936 3.86856842 C35.56749409 3.87200365 39.47588535 3.89338214 43.38438225 3.91379929 C50.65097264 3.95174764 57.91738097 3.98307684 65.18408203 3.98095703 C70.24983788 3.98017069 75.3149842 4.00349036 80.3805809 4.04283905 C82.30785254 4.05330331 84.23519447 4.05481995 86.1624794 4.04718781 C88.85557604 4.03758036 91.54681716 4.0587161 94.23974609 4.08691406 C95.43058304 4.07161903 95.43058304 4.07161903 96.64547729 4.05601501 C100.65194883 4.13124377 102.55114011 4.55600265 105.74533081 7.05194092 C108.29036997 10.41156562 108.77441406 12.53075546 108.77441406 16.73046875 C107.1669185 20.45309006 105.31918415 22.78334152 101.77441406 24.73046875 C98.51484948 25.10033233 95.29938678 25.01157885 92.02441406 24.91796875 C88.97191406 24.85609375 85.91941406 24.79421875 82.77441406 24.73046875 C82.77441406 36.28046875 82.77441406 47.83046875 82.77441406 59.73046875 C85.74441406 60.06046875 88.71441406 60.39046875 91.77441406 60.73046875 C97.4448584 63.67473793 101.68783252 67.74124628 103.89624023 73.81665039 C105.09808578 78.36320904 105.08004333 82.86158355 105.07519531 87.5390625 C105.07948044 88.46461441 105.08376556 89.39016632 105.08818054 90.34376526 C105.0938994 92.2927265 105.09444222 94.24170907 105.09008789 96.19067383 C105.08692737 99.15548451 105.11041979 102.11929673 105.13574219 105.08398438 C105.13801554 106.98567584 105.13871851 108.88736996 105.13769531 110.7890625 C105.14690506 111.66638535 105.15611481 112.54370819 105.16560364 113.44761658 C105.11371375 120.42615685 104.04929512 126.10560599 99.33691406 131.54296875 C96.77441406 133.73046875 96.77441406 133.73046875 94.46191406 135.04296875 C92.38464384 137.12023897 92.50366213 137.86550778 92.46191406 140.73046875 C92.55787787 143.39725251 92.91334738 145.14726869 93.77441406 147.73046875 C95.9317647 148.5865339 95.9317647 148.5865339 98.58691406 149.10546875 C113.52658546 152.87420862 126.6353769 160.00395866 135.77441406 172.73046875 C138.08877348 176.61754058 140.08317449 180.53479771 141.77441406 184.73046875 C142.15623888 185.61725327 142.15623888 185.61725327 142.54577732 186.52195263 C145.92340375 195.71403717 145.20249251 205.47587756 145.1784668 215.12036133 C145.18417523 217.18939074 145.19114132 219.25841701 145.19926453 221.32743835 C145.21716029 226.92675971 145.21603406 232.52592403 145.21032214 238.12526536 C145.20722459 242.80939691 145.21332917 247.49349855 145.21936089 252.17762583 C145.23339326 263.23408397 145.23185601 274.29046481 145.22045898 285.34692383 C145.20898369 296.73042889 145.22304662 308.11369818 145.24985546 319.49717218 C145.27205222 329.29114332 145.27864073 339.08504068 145.27277905 348.87903517 C145.26941724 354.71944589 145.27177274 360.55970556 145.28903008 366.40009499 C145.30456011 371.89548256 145.30047651 377.39052254 145.28172493 382.88589668 C145.27805556 384.89452806 145.28109891 386.90318553 145.29161072 388.91179276 C145.38202467 407.62745511 142.37353934 422.30813244 129.15722656 436.375 C117.59069249 447.80880336 104.45674412 453.05339614 88.29833984 453.00512695 C86.94761887 453.01279335 86.94761887 453.01279335 85.5696106 453.02061462 C82.61957993 453.03441186 79.66978548 453.0335613 76.71972656 453.03125 C74.65143753 453.03514238 72.58314929 453.03947816 70.51486206 453.04423523 C66.18940637 453.05167627 61.86403233 453.05142156 57.53857422 453.04614258 C52.01884702 453.04035116 46.49945573 453.05728154 40.97978401 453.08048725 C36.71074497 453.09527946 32.44178581 453.09608883 28.17272568 453.09297752 C26.13873505 453.09348799 24.10473962 453.09867364 22.07077408 453.10878944 C1.71366728 453.19761916 1.71366728 453.19761916 -7.22558594 449.73046875 C-8.3303125 449.30507813 -9.43503906 448.8796875 -10.57324219 448.44140625 C-25.02857271 441.32813569 -35.70810498 429.91903994 -41.22558594 414.73046875 C-43.59886303 407.26498752 -43.57356909 399.94769296 -43.63964844 392.16796875 C-43.65838799 390.76691584 -43.67796342 389.36587389 -43.69833374 387.96484375 C-43.74936702 384.30221048 -43.7891455 380.63954073 -43.82647705 376.97674561 C-43.8666988 373.22919913 -43.91770762 369.4818006 -43.96777344 365.734375 C-44.06419097 358.39984157 -44.14870339 351.06523574 -44.22558594 343.73046875 C-45.17385254 344.54741211 -46.12211914 345.36435547 -47.09912109 346.20605469 C-48.3625824 347.29237332 -49.62609419 348.37863323 -50.88964844 349.46484375 C-51.51234619 350.00157715 -52.13504395 350.53831055 -52.77661133 351.09130859 C-72.72595712 368.22812367 -96.28241925 379.48196091 -123.22558594 377.73046875 C-146.7827824 375.70802504 -164.28532825 365.99254717 -182.82714844 352.015625 C-193.95250495 343.64437441 -204.62793204 336.75267975 -218.83496094 336.4140625 C-219.92517548 336.38289085 -219.92517548 336.38289085 -221.03741455 336.35108948 C-223.35004585 336.28591363 -225.66278687 336.22685835 -227.97558594 336.16796875 C-229.54721169 336.12475309 -231.1188265 336.08113783 -232.69042969 336.03710938 C-236.53537047 335.93026519 -240.38042118 335.82890851 -244.22558594 335.73046875 C-244.31839844 337.33921875 -244.31839844 337.33921875 -244.41308594 338.98046875 C-245.22558594 342.73046875 -245.22558594 342.73046875 -247.38439941 344.93249512 C-250.72942335 347.04930962 -252.56638903 347.23660237 -256.49707031 347.24804688 C-257.74186157 347.26065552 -258.98665283 347.27326416 -260.26916504 347.28625488 C-261.61922779 347.2790948 -262.96928535 347.27089074 -264.31933594 347.26171875 C-265.71268993 347.26441557 -267.10604208 347.26829958 -268.49938965 347.27331543 C-271.4146523 347.2792017 -274.32942354 347.27067654 -277.24462891 347.25195312 C-280.97396714 347.22916301 -284.70215386 347.24229092 -288.43144989 347.26624298 C-291.30719618 347.28072518 -294.18267126 347.27608412 -297.0584259 347.26573181 C-298.43309161 347.26307116 -299.80778226 347.266311 -301.18241882 347.27565002 C-303.10630801 347.28585341 -305.030284 347.26753346 -306.95410156 347.24804688 C-308.04710571 347.2448645 -309.14010986 347.24168213 -310.26623535 347.23840332 C-313.91431031 346.61225805 -315.58682743 345.27454598 -318.22558594 342.73046875 C-319.82645221 339.52873621 -319.72475683 336.20469816 -319.22558594 332.73046875 C-317.43194683 329.92043415 -316.20677658 328.22106407 -313.22558594 326.73046875 C-297.05558594 326.73046875 -280.88558594 326.73046875 -264.22558594 326.73046875 C-264.22558594 293.73046875 -264.22558594 260.73046875 -264.22558594 226.73046875 C-280.39558594 226.73046875 -296.56558594 226.73046875 -313.22558594 226.73046875 C-319.01293452 222.10058988 -319.01293452 222.10058988 -319.53417969 218.7421875 C-319.57671875 217.97519531 -319.61925781 217.20820313 -319.66308594 216.41796875 C-319.72367187 215.65871094 -319.78425781 214.89945313 -319.84667969 214.1171875 C-319.08527092 211.19127079 -317.77946713 209.67266635 -315.42765808 207.80409241 C-310.35283963 205.32985688 -304.34697843 206.02000742 -298.81542969 206.06640625 C-297.40108321 206.06303429 -295.98673956 206.0581785 -294.57240295 206.0519104 C-291.61593898 206.04455912 -288.66023293 206.05518805 -285.70385742 206.07861328 C-281.92164648 206.10712829 -278.14120752 206.09067188 -274.35906124 206.06075096 C-271.44123566 206.04265181 -268.52382786 206.04844709 -265.60598946 206.06138992 C-264.21178538 206.06471545 -262.81754287 206.06066683 -261.42338371 206.04899216 C-259.47326293 206.03624139 -257.52300835 206.05913488 -255.57299805 206.08349609 C-254.46524521 206.08747406 -253.35749237 206.09145203 -252.21617126 206.09555054 C-248.24654588 206.9383245 -246.72115574 208.59563802 -244.22558594 211.73046875 C-243.91308594 215.04296875 -243.91308594 215.04296875 -244.22558594 217.73046875 C-242.71544922 217.70690308 -242.71544922 217.70690308 -241.17480469 217.68286133 C-237.35783226 217.62762323 -233.54089319 217.59378602 -229.72363281 217.56567383 C-228.0868532 217.55079692 -226.45011187 217.53048895 -224.81347656 217.50415039 C-210.84391547 217.2853397 -196.32295251 217.52761467 -183.78808594 224.48046875 C-182.79301025 225.00543945 -182.79301025 225.00543945 -181.77783203 225.54101562 C-176.47331803 228.41478123 -171.78935254 231.78551796 -167.22558594 235.73046875 C-153.50998423 247.19973569 -141.96349503 251.18909306 -123.94042969 251.1015625 C-122.59004191 251.10827667 -121.23966231 251.1168647 -119.88929749 251.12721252 C-114.21453871 251.1668625 -108.53986482 251.16851842 -102.86499023 251.16625977 C-99.37022224 251.16620829 -95.87595049 251.18554912 -92.38131905 251.21559334 C-90.4306637 251.22627377 -88.47992572 251.21433431 -86.52928162 251.20176697 C-76.62472694 251.28425284 -68.21835909 253.06666245 -60.76464844 259.9375 C-57.96970844 263.19353416 -56.11846352 266.90603347 -54.22558594 270.73046875 C-50.28581396 268.90836856 -47.17499406 266.94071742 -44.22558594 263.73046875 C-42.802149 258.65818417 -43.03915761 253.691263 -43.20605469 248.48046875 C-43.21498399 246.97943243 -43.21874071 245.47835737 -43.21760559 243.97729492 C-43.22510551 240.02969073 -43.28779224 236.08511741 -43.36682129 232.1383667 C-43.48758421 225.85311886 -43.54144293 219.56790907 -43.56276894 213.28161621 C-43.58050668 211.11005844 -43.63222704 208.94137217 -43.68803406 206.77050781 C-43.93141782 190.92532164 -38.85047989 176.73992345 -27.97558594 164.98046875 C-18.41822679 156.0645431 -6.94136227 151.37596663 5.62207031 148.5390625 C6.33234375 148.27222656 7.04261719 148.00539062 7.77441406 147.73046875 C9.01737876 144.00157465 9.71518403 140.577004 8.77441406 136.73046875 C7.17541067 135.17100115 5.507989 134.15812701 3.59472656 133.01171875 C-0.43783929 130.17334622 -2.283755 125.46159257 -3.22558594 120.73046875 C-3.32748829 119.28273694 -3.38342846 117.83131419 -3.40258789 116.38012695 C-3.41542313 115.52856522 -3.42825836 114.67700348 -3.44148254 113.79963684 C-3.44886948 112.88606918 -3.45625641 111.97250153 -3.46386719 111.03125 C-3.47193893 110.08162888 -3.48001068 109.13200775 -3.48832703 108.15361023 C-3.50214609 106.14384779 -3.51287797 104.1340621 -3.52075195 102.12426758 C-3.53225798 100.07894973 -3.55268786 98.03366159 -3.58227539 95.98852539 C-3.62515804 93.02339398 -3.64115077 90.05915386 -3.65136719 87.09375 C-3.66887527 86.1903035 -3.68638336 85.28685699 -3.704422 84.35603333 C-3.68097838 77.40586693 -2.32470851 71.08603371 2.5151825 65.84565735 C7.79118426 61.01755846 11.50022965 59.73046875 18.77441406 59.73046875 C18.77441406 48.18046875 18.77441406 36.63046875 18.77441406 24.73046875 C15.80441406 24.73046875 12.83441406 24.73046875 9.77441406 24.73046875 C6.13378906 24.1015625 6.13378906 24.1015625 2.52441406 23.16796875 C1.85821045 22.99668457 1.19200684 22.82540039 0.50561523 22.64892578 C-5.39498195 21.07606109 -11.14167552 19.09222931 -16.91308594 17.10546875 C-40.06642107 9.21266218 -62.47630804 10.10961243 -85.19433594 18.70703125 C-89.29082243 20.09012334 -91.95669456 20.42901461 -96.22558594 19.73046875 C-99.03562054 17.93682964 -100.73499061 16.7116594 -102.22558594 13.73046875 C-102.8042607 6.67063664 -102.8042607 6.67063664 -100.64355469 3.16015625 C-97.78840528 0.29116928 -94.97327372 -1.02193539 -91.22558594 -2.33203125 C-90.52409424 -2.58098145 -89.82260254 -2.82993164 -89.09985352 -3.08642578 C-59.15008641 -13.25878728 -29.28976569 -10.87933637 0 0 Z M38.77441406 24.73046875 C38.77441406 36.28046875 38.77441406 47.83046875 38.77441406 59.73046875 C46.69441406 59.73046875 54.61441406 59.73046875 62.77441406 59.73046875 C62.77441406 48.18046875 62.77441406 36.63046875 62.77441406 24.73046875 C54.85441406 24.73046875 46.93441406 24.73046875 38.77441406 24.73046875 Z M17.77441406 79.73046875 C16.21966142 82.83997404 16.63241882 86.13493905 16.64160156 89.546875 C16.64064484 90.318535 16.63968811 91.09019501 16.63870239 91.88523865 C16.6380216 93.51683636 16.63986887 95.14843678 16.64404297 96.7800293 C16.64939993 99.28635696 16.64409087 101.792506 16.63769531 104.29882812 C16.63835597 105.88151081 16.63963687 107.46419339 16.64160156 109.046875 C16.63957733 109.80102188 16.6375531 110.55516876 16.63546753 111.33216858 C16.3322311 114.8227871 16.3322311 114.8227871 17.77441406 117.73046875 C19.82998068 117.82460562 21.88881587 117.84789873 23.9465332 117.84399414 C24.59041489 117.84414017 25.23429657 117.84428619 25.89768982 117.84443665 C28.03501709 117.8437376 30.17225819 117.83594566 32.30957031 117.828125 C33.78787692 117.82626079 35.26618414 117.8248369 36.74449158 117.82383728 C40.64240209 117.82001234 44.54027555 117.81018227 48.43817139 117.7991333 C53.11125167 117.78712391 57.78434432 117.78251683 62.45743561 117.77667999 C69.56312089 117.76697049 76.66872483 117.7478138 83.77441406 117.73046875 C83.77441406 105.19046875 83.77441406 92.65046875 83.77441406 79.73046875 C61.99441406 79.73046875 40.21441406 79.73046875 17.77441406 79.73046875 Z M30.77441406 138.73046875 C29.78441406 143.35046875 28.79441406 147.97046875 27.77441406 152.73046875 C23.37817846 161.10425085 18.05719021 166.13550495 8.95410156 168.99609375 C6.85911555 169.62357509 4.75976444 170.2347312 2.65991211 170.84570312 C-7.87476875 173.99802769 -15.00365128 179.95403763 -20.28808594 189.6875 C-22.55211776 194.68360869 -23.35288908 199.4457271 -23.33911133 204.88793945 C-23.3390358 205.8885994 -23.33896027 206.88925934 -23.33888245 207.92024231 C-23.33372116 208.98812485 -23.32855988 210.05600739 -23.32324219 211.15625 C-23.32182724 212.25897751 -23.32041229 213.36170502 -23.31895447 214.49784851 C-23.31336598 218.01291642 -23.30081553 221.52792016 -23.28808594 225.04296875 C-23.28306945 227.42903554 -23.2785068 229.81510332 -23.27441406 232.20117188 C-23.26340031 238.04429265 -23.24667357 243.88737612 -23.22558594 249.73046875 C-18.98482219 248.12535958 -15.71919993 246.08576756 -12.03808594 243.41796875 C-0.59461234 235.32487191 10.45861837 230.23648215 24.77441406 231.73046875 C36.7664531 234.14623536 46.59919679 239.69575529 53.77441406 249.73046875 C55.36476525 252.91117112 55.56378854 256.31377326 54.77441406 259.73046875 C51.52604785 264.24109145 47.77991457 267.5293257 43.33691406 270.85546875 C38.29440022 274.72052582 33.38870236 278.69489244 28.58691406 282.85546875 C23.71449298 287.07082893 18.79462035 291.20993143 13.79394531 295.2734375 C10.06654846 298.30646806 6.35763357 301.36154324 2.64941406 304.41796875 C1.35514957 305.48438269 0.06087844 306.55078859 -1.23339844 307.6171875 C-2.3114978 308.57830444 -2.3114978 308.57830444 -3.41137695 309.55883789 C-5.79276753 311.39647727 -7.86866411 312.600775 -10.5222168 313.94702148 C-15.94017872 317.0187875 -20.19667156 320.17937346 -23.22558594 325.73046875 C-26.0374883 337.42627783 -25.08143265 349.81882235 -24.6260376 361.74487305 C-24.50881266 365.3076652 -24.47008471 368.86932573 -24.4349184 372.43373394 C-24.38995085 376.72467167 -24.30547115 381.01452519 -24.21386719 385.3046875 C-24.19876917 386.10677832 -24.18367115 386.90886913 -24.16811562 387.73526573 C-23.85190206 401.786743 -21.63315417 413.01974301 -11.60058594 423.4140625 C-3.57660287 430.86225049 5.38983825 432.87609464 16.07788086 432.89160156 C16.90135513 432.89656647 17.72482941 432.90153137 18.57325745 432.90664673 C21.29005784 432.92121733 24.0067998 432.92806263 26.72363281 432.93359375 C28.62067159 432.93935038 30.51771037 432.94510804 32.41474915 432.9508667 C36.39165517 432.96136287 40.36854107 432.96721426 44.34545898 432.97070312 C49.42147002 432.9761781 54.49721152 433.00019071 59.57313824 433.02867508 C63.49299374 433.04737515 67.41278533 433.05251102 71.33268166 433.054039 C73.20283287 433.05705057 75.07298336 433.06502808 76.94309044 433.07822418 C91.63336751 433.17446622 103.51332416 432.40587707 114.75097656 421.87890625 C122.24836295 413.87105952 124.9269672 405.39216751 124.91485596 394.6100769 C124.91782708 393.78475373 124.9207982 392.95943056 124.92385936 392.1090976 C124.93254104 389.33948582 124.93405417 386.56991729 124.93554688 383.80029297 C124.9401755 381.81595263 124.94520022 379.83161319 124.95059204 377.84727478 C124.96371559 372.4523845 124.97016117 367.05750666 124.9746027 361.6626029 C124.9775341 358.2908661 124.98163908 354.9191327 124.98610687 351.54739761 C124.99978301 340.99468021 125.00944854 330.44197057 125.01330876 319.88924491 C125.01778694 307.71440694 125.03532326 295.53968138 125.06430936 283.36487758 C125.08594333 273.95070348 125.096014 264.53656095 125.09734988 255.12236226 C125.09839687 249.50162442 125.104282 243.88099224 125.12216949 238.26028061 C125.13867929 232.96941939 125.1407915 227.67874291 125.13203049 222.38786507 C125.13126162 220.45053804 125.13558298 218.51320097 125.14548874 216.57589912 C125.2173782 201.63468012 124.39412581 190.25285599 113.77441406 178.73046875 C107.38234445 173.22042173 100.434381 170.84772705 92.49194336 168.56616211 C85.26218207 166.42462248 80.399099 163.31538025 75.96191406 157.23046875 C73.77441406 152.73046875 73.77441406 152.73046875 70.77441406 138.73046875 C57.57441406 138.73046875 44.37441406 138.73046875 30.77441406 138.73046875 Z M-244.22558594 238.73046875 C-244.22558594 263.81046875 -244.22558594 288.89046875 -244.22558594 314.73046875 C-234.65558594 315.06046875 -225.08558594 315.39046875 -215.22558594 315.73046875 C-197.38025515 318.17503461 -185.07743638 324.94805711 -170.74780273 335.45727539 C-150.2720154 350.46029137 -130.98191137 359.75060449 -104.99023438 356.44628906 C-90.49267725 353.83518872 -79.1434893 346.18729975 -68.22558594 336.73046875 C-66.52181773 335.32906682 -64.81338031 333.93332442 -63.10058594 332.54296875 C-56.95600665 327.51558569 -50.82867844 322.46732151 -44.70214844 317.41796875 C-41.74092152 314.97763858 -38.77729489 312.54027357 -35.81152344 310.10546875 C-29.26766398 304.73033893 -22.73833313 299.34279168 -16.28808594 293.85546875 C-11.94340113 290.15985352 -7.54023022 286.55359604 -3.06933594 283.01171875 C0.66094579 280.01929495 4.34008407 276.96666093 8.02441406 273.91796875 C15.51093312 267.72881284 23.10266867 261.68792556 30.77441406 255.73046875 C28.56847348 253.21236676 26.904708 252.18220442 23.64941406 251.41796875 C22.94558594 251.23621094 22.24175781 251.05445313 21.51660156 250.8671875 C10.78995138 250.332383 3.21936895 256.63017623 -5.16308594 262.41796875 C-6.60635439 263.39919989 -8.05054559 264.37907503 -9.49560547 265.35766602 C-12.52548013 267.4126643 -15.54979327 269.47548523 -18.56982422 271.54492188 C-25.49128914 276.28597526 -32.44587372 280.97806378 -39.39651489 285.67617798 C-41.54712785 287.13178649 -43.69521028 288.59105143 -45.8425293 290.05151367 C-49.62793062 292.62460228 -53.42306913 295.18275286 -57.22558594 297.73046875 C-58.25973633 298.42543457 -59.29388672 299.12040039 -60.359375 299.83642578 C-61.76654785 300.76044189 -61.76654785 300.76044189 -63.20214844 301.703125 C-63.98928223 302.22269775 -64.77641602 302.74227051 -65.58740234 303.27758789 C-71.70814408 306.64835728 -77.0795828 308.18161 -84.046875 308.1027832 C-84.7828894 308.10643387 -85.51890381 308.11008453 -86.27722168 308.11384583 C-88.68212791 308.12187661 -91.08634459 308.10840974 -93.49121094 308.09375 C-95.1741333 308.09323071 -96.85705627 308.09375106 -98.53997803 308.09526062 C-102.05343776 308.09517125 -105.56666637 308.08480926 -109.08007812 308.06665039 C-113.5814996 308.04389429 -118.08258596 308.04343549 -122.58404922 308.05016804 C-126.05331397 308.0535089 -129.52250236 308.04687688 -132.99175262 308.0370388 C-134.65193024 308.03319379 -136.31211636 308.03203569 -137.97229767 308.03362465 C-140.28898844 308.03399563 -142.60524892 308.02136843 -144.921875 308.00512695 C-146.23899475 308.00051956 -147.5561145 307.99591217 -148.91314697 307.99116516 C-151.99662923 307.74848816 -153.69204841 307.43685667 -156.22558594 305.73046875 C-158.53134525 302.50240571 -158.62210458 299.61635143 -158.22558594 295.73046875 C-155.96088006 291.09811581 -155.96088006 291.09811581 -153.22558594 289.73046875 C-150.93929282 289.61959133 -148.64975681 289.57388965 -146.36083984 289.55688477 C-145.65496231 289.55019775 -144.94908478 289.54351074 -144.22181702 289.53662109 C-142.68692381 289.52255975 -141.15200957 289.51066915 -139.6170845 289.50067329 C-137.18779118 289.4842781 -134.75865354 289.46104062 -132.32943726 289.43577576 C-125.42185205 289.36496132 -118.51420299 289.30488915 -111.60644531 289.25366211 C-107.38302407 289.22186138 -103.15978117 289.18058205 -98.93650436 289.13346672 C-97.32659489 289.11745194 -95.71664433 289.10512794 -94.10667801 289.09655952 C-91.85397501 289.0843985 -89.60169075 289.06024549 -87.34912109 289.03344727 C-86.06719879 289.0231398 -84.78527649 289.01283234 -83.46450806 289.00221252 C-80.40063624 288.74515537 -78.7222013 288.46727719 -76.22558594 286.73046875 C-73.71558873 282.96547294 -73.6108185 281.18753269 -74.22558594 276.73046875 C-76.98240152 273.32713376 -78.70474902 271.96845776 -83.06369019 271.28634644 C-86.6668981 271.12039145 -90.23992037 271.11755585 -93.84667969 271.1640625 C-95.19223391 271.16109605 -96.53778456 271.15535378 -97.88331604 271.14698792 C-102.1434664 271.12630612 -106.40297816 271.14580892 -110.66308594 271.16796875 C-115.57587664 271.18925261 -120.48799489 271.19322477 -125.400774 271.16746712 C-127.34294577 271.16417478 -129.28511087 271.18558718 -131.22715759 271.20787048 C-150.52380424 271.15127974 -167.1955284 264.22800865 -181.16699219 250.875 C-188.33052999 244.10029723 -198.26995193 238.58503953 -208.3515625 238.61694336 C-209.16318848 238.61706421 -209.97481445 238.61718506 -210.81103516 238.61730957 C-211.65424316 238.62242554 -212.49745117 238.6275415 -213.36621094 238.6328125 C-214.14851074 238.63381958 -214.93081055 238.63482666 -215.73681641 238.63586426 C-218.64975457 238.64108306 -221.56267178 238.65504432 -224.47558594 238.66796875 C-230.99308594 238.68859375 -237.51058594 238.70921875 -244.22558594 238.73046875 Z " fill="#000000" transform="translate(343.2255859375,34.26953125)"/>
<path d="M0 0 C4.56588047 1.92585468 6.68168965 5.85987973 9.22265625 9.9375 C9.93292969 11.04996094 10.64320313 12.16242188 11.375 13.30859375 C16.93746927 22.20183993 21.79699326 31.43167457 26.22265625 40.9375 C26.60679687 41.75605469 26.9909375 42.57460937 27.38671875 43.41796875 C30.59013341 51.39656695 30.87167206 61.8877387 27.66015625 69.875 C23.49339682 77.66566639 17.000816 84.78909877 8.6171875 87.90625 C-1.66204319 90.96875183 -10.54496129 90.67597789 -20.203125 85.68359375 C-28.10054696 80.81241079 -33.73408601 73.62452535 -36.46484375 64.6875 C-38.62072038 45.71578568 -28.31947404 29.351007 -18.65234375 13.75 C-18.16185547 12.94812256 -17.67136719 12.14624512 -17.16601562 11.32006836 C-12.9141914 4.61576118 -8.705695 -1.62777603 0 0 Z M-3.77734375 29.9375 C-9.06509578 37.72272449 -15.5872176 47.46409581 -16.77734375 56.9375 C-15.7266356 61.98089911 -13.6202927 64.57491967 -9.77734375 67.9375 C-6.24388776 69.70422799 -2.62530107 69.57778001 1.22265625 68.9375 C4.94077706 67.13685739 7.37773647 64.80702839 9.0859375 61.02734375 C11.26813705 50.87537192 3.49668738 39.9176768 -1.578125 31.6328125 C-2.17173828 30.79363281 -2.17173828 30.79363281 -2.77734375 29.9375 C-3.10734375 29.9375 -3.43734375 29.9375 -3.77734375 29.9375 Z " fill="#000000" transform="translate(271.77734375,75.0625)"/>
<path d="M0 0 C5.52861956 2.3229494 7.82852449 6.82954822 10.8125 11.75 C11.33658447 12.60110352 11.86066895 13.45220703 12.40063477 14.32910156 C33.25115603 48.50105572 33.25115603 48.50105572 29.37109375 65.8046875 C26.81999041 74.06431357 22.38833783 80.29641962 14.98828125 84.85546875 C5.29269496 89.87618441 -2.74114528 91.31479181 -13.375 88.5625 C-23.04912212 85.37520222 -29.56008853 79.03028967 -34.16015625 70.04296875 C-37.54292324 61.81419136 -37.13326347 52.07463205 -34.125 43.8125 C-33.12740934 41.50539597 -32.10180683 39.25563531 -31 37 C-30.65114746 36.28150879 -30.30229492 35.56301758 -29.94287109 34.82275391 C-25.65046811 26.10853792 -20.99667537 17.63838712 -15.6875 9.5 C-15.29151611 8.88334473 -14.89553223 8.26668945 -14.48754883 7.63134766 C-10.66956097 1.96966828 -6.95669361 -0.8695867 0 0 Z M-4 30 C-5.83719135 33.2993628 -7.63995912 36.61639287 -9.4375 39.9375 C-9.95376953 40.86369141 -10.47003906 41.78988281 -11.00195312 42.74414062 C-13.98901174 48.30826943 -16.47888362 53.54250214 -16 60 C-14.07297405 63.85405189 -11.92161689 67.09218638 -8 69 C-3.3112192 69.72617829 0.07733226 69.44424743 4.375 67.375 C7.35453923 64.67922641 8.72865406 62.81403781 10 59 C9.64660943 53.2185303 7.82339228 48.96530905 5.1875 43.9375 C4.84396484 43.25623047 4.50042969 42.57496094 4.14648438 41.87304688 C2.01786571 37.71565095 -0.2714629 33.7939095 -3 30 C-3.33 30 -3.66 30 -4 30 Z " fill="#000000" transform="translate(213,148)"/>
<path d="M0 0 C3.4153137 2.41918054 4.69248754 4.01596013 5.9375 8 C6.03452247 12.65707876 5.00433879 14.93827042 1.8125 18.3125 C-1.78147168 20.46888301 -3.86672399 20.5166595 -8 20 C-10.85746217 18.73001681 -12.48137263 17.7161997 -14.3125 15.1875 C-15.24508259 12.22019177 -15.37237901 10.10315844 -15 7 C-11.11151985 0.13035174 -7.67537919 -1.16655159 0 0 Z " fill="#000000" transform="translate(63,332)"/>
</svg>
