<?xml version="1.0" encoding="UTF-8"?>
<svg version="1.1" xmlns="http://www.w3.org/2000/svg" width="512" height="512">
<path d="M0 0 C0.84775497 -0.01268417 1.69550995 -0.02536835 2.56895447 -0.03843689 C3.4814949 -0.03550125 4.39403534 -0.03256561 5.33422852 -0.02954102 C6.74527611 -0.03740379 6.74527611 -0.03740379 8.18482971 -0.04542542 C10.1744793 -0.05184933 12.16416684 -0.05050385 14.15380859 -0.04199219 C17.19836103 -0.03348853 20.24103371 -0.06222812 23.28540039 -0.09399414 C25.21834254 -0.09560639 27.15128801 -0.09502818 29.08422852 -0.09204102 C29.99474472 -0.10327499 30.90526093 -0.11450897 31.84336853 -0.12608337 C38.11738998 -0.0569145 38.11738998 -0.0569145 41.31884766 2.18505859 C44.20502855 6.58132107 43.83440342 10.82842928 43.6159668 15.9309082 C43.56092748 17.50102856 43.5070873 19.07119128 43.45426941 20.64138794 C43.42538321 21.47505009 43.396497 22.30871223 43.36673546 23.16763687 C41.00042187 81.31663375 41.00042187 81.31663375 64.06819153 133.54147339 C67.43930515 138.32958905 68.90168638 142.61468725 69.77563477 148.40405273 C70.41887695 147.96834961 71.06211914 147.53264648 71.72485352 147.08374023 C81.04965645 140.93814971 90.7289658 135.57006626 101.77563477 133.40405273 C101.74083008 132.38827148 101.70602539 131.37249023 101.67016602 130.32592773 C101.36538713 117.70531096 102.24702347 106.42367999 110.77563477 96.40405273 C118.30695097 88.82286026 125.80625951 85.38907202 136.46313477 84.96655273 C146.49134532 85.13706428 154.83386063 88.57213256 162.09204102 95.51342773 C172.01041462 106.65146213 171.95521819 119.19700847 171.77563477 133.40405273 C172.58000977 133.58967773 172.58000977 133.58967773 173.40063477 133.77905273 C198.76180589 140.45304514 221.62649594 158.6731777 234.99829102 181.03686523 C242.29273701 193.80465875 246.15979132 206.79109638 247.77563477 221.40405273 C248.91778442 221.38834229 248.91778442 221.38834229 250.08300781 221.37231445 C253.54301637 221.33066254 257.00297208 221.30469714 260.46313477 221.27905273 C261.66131836 221.26229492 262.85950195 221.24553711 264.09399414 221.22827148 C265.25092773 221.22182617 266.40786133 221.21538086 267.59985352 221.20874023 C268.66292725 221.1982666 269.72600098 221.18779297 270.82128906 221.17700195 C274.62217213 221.4691118 277.40465321 222.30358973 280.3948288 224.70375156 C282.15154791 226.86694584 282.15679421 228.01931742 282.17004395 230.78416443 C282.18139374 231.67967514 282.19274353 232.57518585 282.20443726 233.49783325 C282.20150665 234.47807465 282.19857605 235.45831604 282.19555664 236.46826172 C282.20402618 237.50280991 282.21249573 238.53735809 282.22122192 239.60325623 C282.24468512 243.03567701 282.24561122 246.46765142 282.24438477 249.90014648 C282.25148506 252.28849975 282.25918386 254.67685131 282.26745605 257.06520081 C282.28092541 262.08143849 282.28246051 267.09751879 282.27661133 272.11376953 C282.27073903 278.51933635 282.30119358 284.924139 282.34172821 291.32955837 C282.36768692 296.26864132 282.37047469 301.20754289 282.36683655 306.14668465 C282.3685228 308.50641855 282.37811729 310.86616128 282.39598083 313.22582817 C282.51273491 330.56864076 281.41824114 343.19884162 269.00219727 356.27124023 C255.39858605 369.20855212 241.53714944 367.40405273 222.77563477 367.40405273 C222.77563477 393.14405273 222.77563477 418.88405273 222.77563477 445.40405273 C224.42563477 445.73405273 226.07563477 446.06405273 227.77563477 446.40405273 C235.9155385 450.04345081 242.45527974 456.97609188 246.27563477 464.96655273 C249.39506954 473.89314956 249.34457272 485.52355201 245.22485352 494.09545898 C239.31612267 503.50801944 232.23168471 508.91870275 221.77563477 512.40405273 C209.43868466 513.258257 199.54147839 512.19400213 189.59204102 504.15405273 C182.26132619 497.09134254 178.8278519 487.93455743 178.40063477 477.84155273 C178.82176089 467.99772948 182.73963036 459.05813794 189.99047852 452.35717773 C194.54389868 448.69019711 198.72108366 445.40405273 204.77563477 445.40405273 C204.77563477 436.82405273 204.77563477 428.24405273 204.77563477 419.40405273 C86.63563477 419.40405273 -31.50436523 419.40405273 -153.22436523 419.40405273 C-153.22436523 427.98405273 -153.22436523 436.56405273 -153.22436523 445.40405273 C-151.24436523 445.73405273 -149.26436523 446.06405273 -147.22436523 446.40405273 C-137.60601951 451.18116444 -131.83577359 458.45849882 -128.22436523 468.40405273 C-125.71467214 476.76969639 -127.28584647 485.36376521 -130.22436523 493.40405273 C-132.16186523 496.77905273 -132.16186523 496.77905273 -134.22436523 499.40405273 C-135.02874023 500.64155273 -135.02874023 500.64155273 -135.84936523 501.90405273 C-141.63349163 507.99260684 -149.60592752 511.98858658 -157.95874023 512.73999023 C-170.541093 513.02786252 -178.73667106 510.73709877 -188.02124023 501.91967773 C-195.67660762 493.17844264 -196.91223603 483.51676243 -196.39038086 472.35571289 C-195.60826061 463.16119921 -189.86145637 456.38484458 -183.22436523 450.40405273 C-179.35501169 447.69245852 -176.02265883 445.40405273 -171.22436523 445.40405273 C-171.22436523 419.66405273 -171.22436523 393.92405273 -171.22436523 367.40405273 C-179.47436523 367.40405273 -187.72436523 367.40405273 -196.22436523 367.40405273 C-209.01076329 362.75445344 -219.18871726 357.73811982 -225.79858398 345.48608398 C-230.3408398 335.63368383 -230.3408398 335.63368383 -230.37153625 329.97010803 C-230.38226921 328.60950005 -230.38226921 328.60950005 -230.39321899 327.22140503 C-230.39725235 325.7321904 -230.39725235 325.7321904 -230.40136719 324.21289062 C-230.40793839 323.1654921 -230.41450958 322.11809357 -230.42127991 321.03895569 C-230.44101378 317.56820609 -230.45267374 314.0974997 -230.46264648 310.62670898 C-230.46672201 309.44293608 -230.47079754 308.25916317 -230.47499657 307.03951836 C-230.49585442 300.77797494 -230.51015924 294.51645345 -230.51953125 288.25488281 C-230.53061475 281.77693295 -230.56503813 275.29932479 -230.60470295 268.82149601 C-230.63079679 263.84845829 -230.6392165 258.87550304 -230.64281273 253.90240288 C-230.64769485 251.51372397 -230.65935466 249.12504913 -230.67785072 246.73643684 C-230.70209508 243.39888169 -230.70130415 240.06222489 -230.69433594 236.72460938 C-230.707146 235.73382385 -230.71995605 234.74303833 -230.7331543 233.722229 C-230.68237883 227.06880146 -230.68237883 227.06880146 -228.44499207 223.82151794 C-224.88744686 221.55067419 -221.97955071 221.27830219 -217.82299805 221.29052734 C-216.95046387 221.29064819 -216.07792969 221.29076904 -215.17895508 221.29089355 C-214.27097168 221.29600952 -213.36298828 221.30112549 -212.42749023 221.30639648 C-211.16557861 221.3079071 -211.16557861 221.3079071 -209.87817383 221.30944824 C-206.74355705 221.31466978 -203.60895973 221.32863105 -200.47436523 221.34155273 C-189.95561523 221.37249023 -189.95561523 221.37249023 -179.22436523 221.40405273 C-179.55436523 204.57405273 -179.88436523 187.74405273 -180.22436523 170.40405273 C-183.19436523 169.08405273 -186.16436523 167.76405273 -189.22436523 166.40405273 C-191.71264648 164.65795898 -191.71264648 164.65795898 -193.53686523 162.96655273 C-194.15174805 162.4109668 -194.76663086 161.85538086 -195.40014648 161.28295898 C-206.77417773 149.56795036 -205.83620409 135.10019847 -205.69091797 119.76293945 C-205.66168924 116.38370529 -205.67039551 113.00601824 -205.68334961 109.62670898 C-205.6771188 107.4691493 -205.66873303 105.31159452 -205.65795898 103.15405273 C-205.66089462 102.14882568 -205.66383026 101.14359863 -205.66685486 100.10791016 C-205.54802001 91.31365989 -205.54802001 91.31365989 -202.22436523 87.40405273 C-198.83635482 85.14537913 -197.61560458 85.13960578 -193.63891602 85.09765625 C-192.49407745 85.08166885 -191.34923889 85.06568146 -190.16970825 85.04920959 C-188.93219818 85.04384689 -187.69468811 85.03848419 -186.41967773 85.03295898 C-185.14841034 85.02393051 -183.87714294 85.01490204 -182.56735229 85.00559998 C-179.87556802 84.99107874 -177.18420871 84.98141102 -174.49243164 84.97851562 C-171.04990854 84.97313383 -167.60856006 84.93546328 -164.16636848 84.88977146 C-160.87587477 84.85280228 -157.58535123 84.85148471 -154.29467773 84.84545898 C-153.06121613 84.82592667 -151.82775452 84.80639435 -150.55691528 84.78627014 C-145.69606899 84.81193412 -142.25465228 84.84198031 -137.94677734 87.19213867 C-135.28424791 92.15716166 -135.52998076 96.80214537 -135.59545898 102.35327148 C-135.59304703 103.52106644 -135.59063507 104.68886139 -135.58815002 105.89204407 C-135.58912887 108.36247145 -135.60253107 110.83292067 -135.62744141 113.30322266 C-135.6615868 117.06091075 -135.64813998 120.81622498 -135.62866211 124.57397461 C-135.63556554 126.97958348 -135.64524239 129.38518632 -135.65795898 131.79077148 C-135.65051918 133.46160042 -135.65051918 133.46160042 -135.64292908 135.16618347 C-135.79869803 145.6341049 -138.80510857 154.78869237 -146.22436523 162.40405273 C-150.67159475 165.93983592 -154.93590904 168.28867026 -160.22436523 170.40405273 C-160.55436523 187.23405273 -160.88436523 204.06405273 -161.22436523 221.40405273 C-139.11436523 221.40405273 -117.00436523 221.40405273 -94.22436523 221.40405273 C-94.55436523 204.57405273 -94.88436523 187.74405273 -95.22436523 170.40405273 C-99.18436523 168.42405273 -103.14436523 166.44405273 -107.22436523 164.40405273 C-116.21484993 155.91303941 -119.77613332 147.3122668 -120.33164978 135.03251648 C-120.38827194 132.42422293 -120.41520274 129.81762045 -120.42749023 127.20874023 C-120.43319031 126.25766388 -120.43889038 125.30658752 -120.44476318 124.32669067 C-120.45415724 122.32823787 -120.46072473 120.32976996 -120.46459961 118.33129883 C-120.47435881 115.28105949 -120.50545649 112.23147969 -120.53686523 109.18139648 C-120.54339151 107.2321817 -120.54864345 105.28296215 -120.55249023 103.33374023 C-120.56483704 102.42735809 -120.57718384 101.52097595 -120.58990479 100.58712769 C-120.57187496 95.45268241 -120.15951003 91.81364783 -117.22436523 87.40405273 C-113.83197305 85.14245795 -112.62026685 85.14361817 -108.63891602 85.11352539 C-107.49407745 85.10076569 -106.34923889 85.08800598 -105.16970825 85.07485962 C-103.31344315 85.07152115 -103.31344315 85.07152115 -101.41967773 85.06811523 C-99.51277664 85.05813004 -99.51277664 85.05813004 -97.56735229 85.04794312 C-94.87556987 85.03780819 -92.18419121 85.03226217 -89.49243164 85.03344727 C-86.05006978 85.03365034 -82.60853457 85.00636155 -79.16636848 84.97190285 C-75.87583604 84.94426019 -72.58531053 84.94548385 -69.29467773 84.94311523 C-67.44448532 84.92155869 -67.44448532 84.92155869 -65.55691528 84.89956665 C-64.4057724 84.90571991 -63.25462952 84.91187317 -62.06860352 84.91821289 C-60.55328537 84.91393784 -60.55328537 84.91393784 -59.00735474 84.90957642 C-55.4248946 85.54610117 -53.7665194 86.83598236 -51.22436523 89.40405273 C-50.08794244 92.19346198 -50.08970674 94.89667437 -50.06323242 97.89038086 C-50.05362488 98.77230103 -50.04401733 99.65422119 -50.03411865 100.56286621 C-50.02774384 101.98472229 -50.02774384 101.98472229 -50.02124023 103.43530273 C-50.01554016 104.42220093 -50.00984009 105.40909912 -50.00396729 106.42590332 C-49.99452381 108.51724174 -49.98798589 110.60859499 -49.98413086 112.69995117 C-49.97448544 115.8646127 -49.94348067 119.02860771 -49.91186523 122.19311523 C-49.83128485 137.33159241 -49.96796414 150.4817235 -60.85327148 162.15014648 C-65.3882668 166.36948088 -69.24040795 167.74451617 -75.22436523 170.40405273 C-75.55436523 187.23405273 -75.88436523 204.06405273 -76.22436523 221.40405273 C-62.36436523 221.40405273 -48.50436523 221.40405273 -34.22436523 221.40405273 C-34.41579102 213.25008789 -34.41579102 213.25008789 -34.61108398 204.93139648 C-34.66745586 201.43580463 -34.72041502 197.94079269 -34.76147461 194.44506836 C-34.82661261 188.92602604 -34.90264726 183.40903612 -35.05419922 177.89160156 C-35.68837673 154.13527591 -34.63900206 137.12525972 -21.449646 116.64880371 C-8.20926529 95.6723747 -8.49820647 76.58736084 -8.98474121 52.50744629 C-9.08957806 46.64272082 -9.10759738 40.77716299 -9.13360882 34.91164875 C-9.15457527 30.36137777 -9.18946233 25.81287275 -9.26997375 21.26322937 C-9.28122787 20.43378311 -9.29248199 19.60433685 -9.30407715 18.74975586 C-9.32524757 17.21021754 -9.35406256 15.67075607 -9.39225769 14.13154602 C-9.4476449 9.15847693 -8.90016601 5.60472845 -5.86338806 1.61680603 C-3.78183836 0.07661622 -2.57550077 0.01867427 0 0 Z M8.77563477 18.40405273 C8.77563477 23.68405273 8.77563477 28.96405273 8.77563477 34.40405273 C14.38563477 34.40405273 19.99563477 34.40405273 25.77563477 34.40405273 C25.77563477 29.12405273 25.77563477 23.84405273 25.77563477 18.40405273 C20.16563477 18.40405273 14.55563477 18.40405273 8.77563477 18.40405273 Z M8.77563477 52.40405273 C8.9702832 55.19100586 9.16493164 57.97795898 9.36547852 60.84936523 C10.90214484 93.03408987 2.05654384 115.47909001 -14.35792542 142.84700012 C-15.30540652 144.25270796 -15.30540652 144.25270796 -15.22436523 145.40405273 C6.22563477 145.40405273 27.67563477 145.40405273 49.77563477 145.40405273 C42.84657392 130.72168256 42.84657392 130.72168256 35.05541992 117.11010742 C23.23656541 97.06507077 24.99583924 75.00351998 25.77563477 52.40405273 C20.16563477 52.40405273 14.55563477 52.40405273 8.77563477 52.40405273 Z M-187.22436523 103.40405273 C-187.29340405 108.56406498 -187.35308558 113.72246149 -187.38916016 118.88256836 C-187.40420519 120.63620447 -187.42464627 122.3898032 -187.45068359 124.14331055 C-187.48725644 126.67042283 -187.50413444 129.19703569 -187.51733398 131.72436523 C-187.53281784 132.50272736 -187.5483017 133.28108948 -187.56425476 134.08303833 C-187.56599277 139.76137018 -186.48163498 143.95696713 -182.50561523 148.26733398 C-181.62389648 148.98469727 -181.62389648 148.98469727 -180.72436523 149.71655273 C-180.13655273 150.20768555 -179.54874023 150.69881836 -178.94311523 151.20483398 C-175.09933625 153.88674341 -170.73643489 154.10378546 -166.22436523 153.40405273 C-160.92412999 151.26670652 -157.87765059 148.49113505 -155.07611084 143.45677185 C-153.56964641 139.82617098 -153.73305394 136.28553546 -153.83374023 132.40795898 C-153.84222992 131.15764137 -153.84222992 131.15764137 -153.85089111 129.88206482 C-153.87312328 127.24295441 -153.92329219 124.60524654 -153.97436523 121.96655273 C-153.99444737 120.16774434 -154.01269513 118.36891448 -154.02905273 116.57006836 C-154.06952885 112.18043319 -154.14783702 107.79379606 -154.22436523 103.40405273 C-165.11436523 103.40405273 -176.00436523 103.40405273 -187.22436523 103.40405273 Z M-102.22436523 103.40405273 C-102.26561523 108.68405273 -102.30686523 113.96405273 -102.34936523 119.40405273 C-102.36757324 121.05405273 -102.38578125 122.70405273 -102.40454102 124.40405273 C-102.41039173 125.73738278 -102.41548591 127.07071644 -102.41967773 128.40405273 C-102.42990967 129.0756543 -102.4401416 129.74725586 -102.45068359 130.43920898 C-102.45345872 138.12075185 -101.1334449 144.34224918 -95.79077148 149.99389648 C-92.0092146 153.39824071 -88.22805217 153.81053803 -83.20874023 153.65014648 C-78.46581153 153.06194863 -75.74422768 150.93573023 -72.47436523 147.59155273 C-68.5089777 141.9739204 -67.93436158 136.90064242 -68.02905273 130.16186523 C-68.03329758 129.0093074 -68.03329758 129.0093074 -68.03762817 127.83346558 C-68.04875213 125.39849753 -68.07384163 122.96390812 -68.09936523 120.52905273 C-68.10940512 118.87020391 -68.11852921 117.21134927 -68.12670898 115.55249023 C-68.14695768 111.50275065 -68.18611978 107.45382155 -68.22436523 103.40405273 C-79.44436523 103.40405273 -90.66436523 103.40405273 -102.22436523 103.40405273 Z M124.02563477 109.21655273 C119.01097561 116.32065321 119.77563477 120.01476262 119.77563477 129.40405273 C130.99563477 129.40405273 142.21563477 129.40405273 153.77563477 129.40405273 C153.84819576 116.77020123 153.84819576 116.77020123 147.34204102 106.81420898 C143.56048413 103.40986475 139.77932171 102.99756744 134.76000977 103.15795898 C130.01708106 103.74615684 127.29549721 105.87237524 124.02563477 109.21655273 Z M73.77563477 168.40405273 C72.57293945 169.37084961 72.57293945 169.37084961 71.34594727 170.35717773 C56.16275433 183.12808768 47.98137016 200.28032651 43.77563477 219.40405273 C43.77563477 220.06405273 43.77563477 220.72405273 43.77563477 221.40405273 C105.15563477 221.40405273 166.53563477 221.40405273 229.77563477 221.40405273 C224.61344099 197.31381513 214.28691144 177.76359498 193.81469727 163.31420898 C156.73704891 139.46549936 108.28060823 139.30926674 73.77563477 168.40405273 Z M-16.22436523 163.40405273 C-16.22436523 171.32405273 -16.22436523 179.24405273 -16.22436523 187.40405273 C-8.97570888 187.72667043 -1.75208967 188.00463339 5.49804688 188.1730957 C7.95951837 188.24329868 10.42041006 188.33869707 12.87988281 188.46020508 C25.80462522 189.71073208 25.80462522 189.71073208 37.74783325 186.0612793 C41.24334346 182.34787263 42.9219986 178.08985122 44.77563477 173.40405273 C46.65820312 170.6887207 46.65820312 170.6887207 48.33813477 168.65405273 C50.36792268 166.32116544 50.36792268 166.32116544 50.77563477 163.40405273 C28.66563477 163.40405273 6.55563477 163.40405273 -16.22436523 163.40405273 Z M-16.22436523 205.40405273 C-16.22436523 210.68405273 -16.22436523 215.96405273 -16.22436523 221.40405273 C-2.36436523 221.40405273 11.49563477 221.40405273 25.77563477 221.40405273 C27.26063477 213.48405273 27.26063477 213.48405273 28.77563477 205.40405273 C13.92563477 205.40405273 -0.92436523 205.40405273 -16.22436523 205.40405273 Z M-212.22436523 239.40405273 C-220.23908322 294.58268497 -220.23908322 294.58268497 -206.09936523 341.59155273 C-205.58116211 342.22448242 -205.06295898 342.85741211 -204.52905273 343.50952148 C-195.910243 350.59447525 -186.15978236 349.97310173 -175.58119202 349.91871643 C-173.77388312 349.92404494 -171.96657867 349.93111238 -170.15928262 349.93976349 C-165.20493801 349.95837721 -160.25089258 349.95209016 -155.29653561 349.94161046 C-149.94877787 349.9346149 -144.60108137 349.95061909 -139.25334167 349.96360779 C-128.78157452 349.98524692 -118.30991604 349.9851211 -107.83813388 349.97698224 C-99.32679067 349.97068177 -90.81547915 349.97181972 -82.30413628 349.97825432 C-81.09263469 349.97915597 -79.88113311 349.98005763 -78.63291935 349.98098661 C-76.17174446 349.98283781 -73.71056958 349.98470037 -71.24939471 349.98657417 C-48.17122408 350.00315231 -25.0931146 349.99443326 -2.01494765 349.97758859 C19.09745348 349.96289139 40.20971229 349.97752034 61.32209509 350.00635875 C83.00286176 350.03575291 104.68356275 350.04672497 126.36434847 350.03717655 C128.81676232 350.036154 131.26917617 350.03515939 133.72159004 350.03419304 C134.92820833 350.03371665 136.13482662 350.03324026 137.37800909 350.03274943 C145.87790051 350.03058535 154.37772973 350.04038911 162.87760735 350.05496407 C173.23800387 350.07248154 183.59821895 350.07237829 193.95860832 350.04961241 C199.24394133 350.0384651 204.52895459 350.03531909 209.81427383 350.05391312 C214.65473995 350.07072294 219.49460754 350.06435976 224.33503491 350.03969633 C226.0839202 350.03481434 227.83285382 350.03832519 229.58169865 350.05118377 C240.24621714 350.12392318 248.69017744 349.46551484 257.21313477 342.37670898 C257.72875977 341.74635742 258.24438477 341.11600586 258.77563477 340.46655273 C259.31188477 339.8387793 259.84813477 339.21100586 260.40063477 338.56420898 C278.15972734 310.66427093 263.77563477 272.47657777 263.77563477 239.40405273 C106.69563477 239.40405273 -50.38436523 239.40405273 -212.22436523 239.40405273 Z M-153.22436523 367.40405273 C-153.22436523 378.62405273 -153.22436523 389.84405273 -153.22436523 401.40405273 C-35.08436523 401.40405273 83.05563477 401.40405273 204.77563477 401.40405273 C204.77563477 390.18405273 204.77563477 378.96405273 204.77563477 367.40405273 C86.63563477 367.40405273 -31.50436523 367.40405273 -153.22436523 367.40405273 Z M-172.97436523 465.71655273 C-177.09902893 470.64323437 -178.7624138 473.74495745 -178.50561523 480.19702148 C-177.88634659 485.05656013 -175.78607439 488.10629011 -172.16186523 491.21655273 C-167.18952551 494.91935891 -163.32248034 495.05317743 -157.22436523 494.40405273 C-153.23569596 493.08951955 -150.63185489 490.86515945 -147.84936523 487.71655273 C-145.48810882 482.90322235 -144.31108189 478.45012129 -145.88842773 473.18920898 C-147.85854056 468.88859684 -150.06155833 465.80923006 -154.22436523 463.40405273 C-161.23847333 460.86787806 -166.99149808 460.68550535 -172.97436523 465.71655273 Z M202.23266602 465.76733398 C199.09944802 469.32321482 196.81587 472.69823329 196.74438477 477.50561523 C197.09750924 482.78482615 198.18825479 486.34464907 201.77563477 490.40405273 C206.61386131 494.08110491 210.34183256 495.05791125 216.41235352 494.79077148 C221.23303926 494.001932 223.91988354 491.3523176 227.08813477 487.84155273 C230.24636617 483.27966294 230.41051244 478.77815812 229.77563477 473.40405273 C227.97404294 468.12281498 224.72981575 464.88114322 219.77563477 462.40405273 C213.26545521 460.82900929 207.45989834 461.14884264 202.23266602 465.76733398 Z " fill="#000000" transform="translate(230.224365234375,-0.404052734375)"/>
<path d="M0 0 C5.94 0 11.88 0 18 0 C18.08169062 3.31300867 18.14083043 6.62396048 18.1875 9.9375 C18.21263672 10.86369141 18.23777344 11.78988281 18.26367188 12.74414062 C18.35569723 21.48654902 16.65980145 29.1164577 11 36 C2.84270049 43.57593295 -5.26730446 44.31744833 -16 44.125 C-16.96550781 44.11597656 -17.93101562 44.10695313 -18.92578125 44.09765625 C-21.28396326 44.07430791 -23.6420158 44.03844539 -26 44 C-26 38.06 -26 32.12 -26 26 C-17.3125 25.625 -17.3125 25.625 -14.6027832 25.52197266 C-8.5535774 25.24721017 -8.5535774 25.24721017 -3 23 C-1.22729377 20.11763387 -0.72200102 17.80935853 -0.5859375 14.453125 C-0.54726563 13.60878906 -0.50859375 12.76445312 -0.46875 11.89453125 C-0.4378125 11.02183594 -0.406875 10.14914062 -0.375 9.25 C-0.33632813 8.36183594 -0.29765625 7.47367187 -0.2578125 6.55859375 C-0.16379678 4.37272833 -0.08081998 2.18639308 0 0 Z " fill="#000000" transform="translate(452,281)"/>
<path d="M0 0 C5.94 0 11.88 0 18 0 C18.04898438 1.32515625 18.09796875 2.6503125 18.1484375 4.015625 C18.22348318 5.76043717 18.29903024 7.50522782 18.375 9.25 C18.4059375 10.12269531 18.436875 10.99539063 18.46875 11.89453125 C18.50742187 12.73886719 18.54609375 13.58320313 18.5859375 14.453125 C18.63306885 15.61569824 18.63306885 15.61569824 18.68115234 16.80175781 C19.03601847 19.24832334 19.70792779 20.8991301 21 23 C25.39392121 25.60442749 30.34089096 25.43597225 35.3125 25.625 C38.179375 25.74875 41.04625 25.8725 44 26 C44 31.94 44 37.88 44 44 C40.68699133 44.08169062 37.37603952 44.14083043 34.0625 44.1875 C33.13630859 44.21263672 32.21011719 44.23777344 31.25585938 44.26367188 C22.25977972 44.35836745 14.88599583 42.48584696 7.79296875 36.80859375 C2.78588922 31.75787954 0.20778945 25.56734627 -0.11352539 18.50463867 C-0.10828857 17.6510376 -0.10305176 16.79743652 -0.09765625 15.91796875 C-0.09443359 14.98662109 -0.09121094 14.05527344 -0.08789062 13.09570312 C-0.07951172 12.13599609 -0.07113281 11.17628906 -0.0625 10.1875 C-0.05798828 9.20845703 -0.05347656 8.22941406 -0.04882812 7.22070312 C-0.03708702 4.81377569 -0.01915289 2.40687987 0 0 Z " fill="#000000" transform="translate(42,281)"/>
<path d="M0 0 C14.52 0 29.04 0 44 0 C44 5.94 44 11.88 44 18 C29.48 18 14.96 18 0 18 C0 12.06 0 6.12 0 0 Z " fill="#000000" transform="translate(349,187)"/>
<path d="M0 0 C5.94 0 11.88 0 18 0 C18 5.94 18 11.88 18 18 C12.06 18 6.12 18 0 18 C0 12.06 0 6.12 0 0 Z " fill="#000000" transform="translate(409,187)"/>
</svg>
