<?xml version="1.0" encoding="UTF-8"?>
<svg version="1.1" xmlns="http://www.w3.org/2000/svg" width="512" height="512">
<path d="M0 0 C1.17592712 -0.01283524 2.35185425 -0.02567047 3.56341553 -0.03889465 C4.84347473 -0.04628159 6.12353394 -0.05366852 7.44238281 -0.0612793 C8.76030823 -0.06935104 10.07823364 -0.07742279 11.43609619 -0.08573914 C14.23718131 -0.10078255 17.038241 -0.11060732 19.83935547 -0.11816406 C23.3895455 -0.12912547 26.93909068 -0.16339449 30.48905563 -0.20333576 C33.24671398 -0.22979407 36.00422701 -0.23788221 38.76200104 -0.24144554 C40.69483966 -0.24855834 42.62757782 -0.27488865 44.5602417 -0.30183411 C56.34821518 -0.27342098 67.26778956 2.49863885 77.70800781 7.98950195 C78.37968994 8.3356958 79.05137207 8.68188965 79.7434082 9.03857422 C85.11335084 11.8790408 89.89371135 15.0773077 94.39550781 19.17700195 C95.1521875 19.85375977 95.90886719 20.53051758 96.68847656 21.2277832 C108.18713321 32.07157498 117.0560789 47.42113044 117.73144531 63.4621582 C118.0551479 83.99869913 114.32883144 101.51915571 99.7956543 116.92407227 C85.8841521 130.99796554 69.74230444 138.44481413 49.9250989 138.58289427 C48.63364316 138.57688422 47.34218743 138.57087417 46.01159668 138.56468201 C44.59498153 138.56886383 43.17836974 138.57434596 41.76176405 138.58100182 C37.9012359 138.59536371 34.04092291 138.591241 30.18038344 138.58383501 C26.00443671 138.57908262 21.82853515 138.5916313 17.65260315 138.60185242 C9.48466311 138.61900444 1.31680011 138.61988804 -6.85115325 138.61463951 C-13.49217182 138.61059042 -20.13316769 138.61205013 -26.77418518 138.61738777 C-27.72104353 138.61813619 -28.66790188 138.61888462 -29.64345291 138.61965572 C-31.56725673 138.62118726 -33.49106055 138.62272561 -35.41486436 138.62427069 C-53.43469797 138.63798232 -71.4544881 138.63256709 -89.47432071 138.62108547 C-105.94543691 138.61115107 -122.4164408 138.62409973 -138.88753968 138.64801966 C-155.82009502 138.67242363 -172.75259808 138.68201555 -189.68517065 138.67536694 C-199.18358471 138.67187805 -208.68191239 138.67408517 -218.18031311 138.69161797 C-226.26454957 138.70635602 -234.34863879 138.70695426 -242.43287241 138.68954705 C-246.55392692 138.68104853 -250.67471857 138.67885934 -254.7957592 138.69419861 C-258.57464353 138.70808978 -262.35304091 138.70322641 -266.13189739 138.68395937 C-268.13263358 138.67844959 -270.13339483 138.69243366 -272.13408327 138.70731348 C-285.99556469 138.5950036 -297.77077164 134.30642902 -308.08105469 124.9230957 C-318.73783071 113.82080229 -323.04092916 101.20695554 -322.96801758 86.11425781 C-322.6439743 72.01333436 -317.06713199 60.12362513 -306.91699219 50.36450195 C-295.40856344 40.57532018 -283.9202014 37.87357268 -269.25723267 37.90957642 C-267.89229404 37.90583702 -266.52735756 37.90123435 -265.16242445 37.89584577 C-261.42166978 37.88363631 -257.68100469 37.8838738 -253.94023466 37.88623452 C-249.90196072 37.8866432 -245.86371531 37.87559874 -241.82545471 37.86611938 C-233.91787179 37.84952028 -226.01031869 37.84401035 -218.1027198 37.84289463 C-211.6746602 37.84194375 -205.24661042 37.83783147 -198.81855392 37.83149338 C-180.58877504 37.81388485 -162.35901969 37.80465404 -144.12923224 37.80615433 C-142.65567244 37.80627419 -142.65567244 37.80627419 -141.15234375 37.80639648 C-140.16876957 37.80647825 -139.18519538 37.80656001 -138.17181592 37.80664425 C-122.22861294 37.8074573 -106.2855044 37.78831378 -90.34232874 37.76011975 C-73.96704724 37.7313903 -57.5918118 37.71757945 -41.21650445 37.7193073 C-32.02494783 37.71997113 -22.83349024 37.71448202 -13.64195633 37.6929512 C-5.81699735 37.67473874 2.00781769 37.67039269 9.83278869 37.68397005 C13.82382826 37.69049906 17.81459166 37.69061946 21.80560493 37.67326355 C25.46240125 37.65752478 29.1187026 37.66040418 32.7754869 37.67783181 C34.71804264 37.68234838 36.66061378 37.66725076 38.60310972 37.65135252 C47.40339696 37.72073449 55.27386503 39.29913408 61.97753906 45.45825195 C67.79422159 52.50877623 70.33381968 59.98136377 69.84472656 69.06762695 C68.7515121 76.63457228 66.04064176 82.19025939 60.66503906 87.60668945 C53.40256092 92.63167433 46.79271554 93.76094809 38.08988953 93.68493652 C36.42874948 93.69429647 36.42874948 93.69429647 34.73405105 93.7038455 C31.03984779 93.71974349 27.34630724 93.70718325 23.65209961 93.69458008 C20.99717801 93.70000245 18.3423014 93.70698143 15.68739319 93.71582031 C9.23621003 93.733566 2.78521348 93.72978415 -3.66597686 93.71816975 C-8.90792515 93.70912399 -14.14982127 93.70791634 -19.39177513 93.71226501 C-20.13874837 93.71287795 -20.8857216 93.71349088 -21.65533039 93.71412238 C-23.17288367 93.71540131 -24.69043694 93.71669817 -26.20799019 93.71801275 C-40.42151036 93.72940594 -54.63492715 93.71632263 -68.84843036 93.69481128 C-81.04589648 93.67692305 -93.24321041 93.680061 -105.44067383 93.69848633 C-119.61223248 93.71988372 -133.78370079 93.72832675 -147.95527333 93.71603727 C-149.46561156 93.71476308 -150.97594981 93.7135056 -152.48628807 93.71226501 C-153.22938011 93.71164791 -153.97247214 93.71103081 -154.73808211 93.71039501 C-159.97666352 93.70694007 -165.21518762 93.71277314 -170.45376015 93.72218323 C-176.83322963 93.73339123 -183.21250221 93.73038785 -189.59194908 93.70906025 C-192.84724004 93.69853621 -196.10213394 93.69659823 -199.35743332 93.70765686 C-202.88321752 93.71853313 -206.40806796 93.70494366 -209.93379211 93.68493652 C-210.96655771 93.69385941 -211.99932331 93.7027823 -213.06338483 93.71197557 C-219.97110301 93.63556027 -219.97110301 93.63556027 -223.23820782 91.27025604 C-224.71106557 89.01372323 -225.14625862 87.85005395 -225.10449219 85.17700195 C-225.11996094 84.18700195 -225.11996094 84.18700195 -225.13574219 83.17700195 C-224.3498507 80.21835165 -222.98187229 79.08028722 -220.60449219 77.17700195 C-217.58063602 76.67477989 -217.58063602 76.67477989 -213.9690094 76.67147827 C-213.30350049 76.66538815 -212.63799159 76.65929803 -211.95231575 76.65302336 C-209.72346985 76.63741361 -207.49569711 76.65021445 -205.2668457 76.6628418 C-203.6684705 76.65738146 -202.07010053 76.65014032 -200.47174072 76.64125061 C-197.03022427 76.62590572 -193.58900597 76.62311462 -190.14746284 76.63001633 C-184.70585073 76.64079318 -179.26455074 76.62343218 -173.82298279 76.60220337 C-165.21589481 76.57193107 -156.60889912 76.56024753 -148.00176233 76.55662692 C-132.58933565 76.54998197 -117.17697303 76.520984 -101.76462501 76.47153056 C-96.35518651 76.455028 -90.94588219 76.44961679 -85.53642094 76.45312095 C-82.17102287 76.453558 -78.80567545 76.4459932 -75.44029236 76.43644524 C-73.87982322 76.4337626 -72.31934383 76.43451392 -70.75887871 76.43895531 C-68.62810924 76.44460041 -66.49770663 76.43804555 -64.36695862 76.42855835 C-63.17474481 76.42822287 -61.98253099 76.42788738 -60.75418949 76.42754173 C-57.5936126 76.17613655 -55.3963564 75.66538994 -52.60449219 74.17700195 C-51.42372329 70.88771717 -51.48877449 69.52415506 -52.60449219 66.17700195 C-56.45740116 64.07879189 -59.84920277 63.92586003 -64.18145752 63.92303467 C-64.82866438 63.91991469 -65.47587123 63.91679471 -66.14269042 63.91358018 C-68.30355393 63.90562609 -70.46413458 63.91191368 -72.625 63.91821289 C-74.17761906 63.91550177 -75.73023683 63.91194015 -77.28285217 63.90759277 C-81.49586804 63.8984779 -85.7087859 63.90201012 -89.92180347 63.90835094 C-94.33652317 63.9134192 -98.75123456 63.90871686 -103.16595459 63.90557861 C-110.58379621 63.90193985 -118.00159802 63.90673411 -125.41943359 63.91625977 C-133.98141661 63.9271281 -142.54330425 63.92363018 -151.10528493 63.91260695 C-158.46513407 63.90351234 -165.82495459 63.9022599 -173.18480754 63.90748429 C-177.57641965 63.91059412 -181.96798705 63.91104089 -186.35959625 63.90441132 C-190.4931627 63.8986074 -194.6266071 63.90269019 -198.76016045 63.91419983 C-200.27218613 63.91683088 -201.78422219 63.91610809 -203.29624367 63.9116745 C-219.19527859 63.61124458 -219.19527859 63.61124458 -232.60449219 71.17700195 C-236.46188438 75.87856509 -237.86709035 81.13724424 -237.60449219 87.17700195 C-236.52702943 92.59964236 -234.6731522 97.32826951 -230.60449219 101.17700195 C-222.79503846 106.11016865 -215.18733166 106.32499098 -206.17576599 106.31071472 C-205.12625529 106.31298028 -204.07674459 106.31524583 -202.99543053 106.31758004 C-199.47895747 106.32390965 -195.96252305 106.32309133 -192.44604492 106.32226562 C-189.92441254 106.32525783 -187.40278061 106.3286605 -184.88114929 106.33244324 C-178.74142178 106.34036453 -172.60170842 106.34349773 -166.46197628 106.34405562 C-161.46747339 106.34453136 -156.47297365 106.34658903 -151.47847176 106.34975624 C-137.30269033 106.35856197 -123.12691647 106.36317597 -108.95113229 106.36242577 C-108.18729526 106.36238581 -107.42345822 106.36234585 -106.63647461 106.36230469 C-105.48931126 106.36224337 -105.48931126 106.36224337 -104.31897289 106.36218081 C-91.93825891 106.36177478 -79.5575754 106.37133354 -67.17687022 106.38544305 C-54.44928566 106.39983276 -41.72171594 106.40671175 -28.99412304 106.40584928 C-21.85478209 106.40551811 -14.71547305 106.4082296 -7.57613945 106.41902733 C-0.856304 106.42912572 5.86345312 106.42877049 12.58329582 106.4215107 C15.0434415 106.42046781 17.50359142 106.42281007 19.96372986 106.42887115 C47.34340443 107.05712275 47.34340443 107.05712275 70.83300781 94.42700195 C79.05398943 85.48817995 81.92744041 74.71974493 81.70019531 62.80200195 C80.7615277 51.63426415 75.69662625 41.72798724 67.26269531 34.2980957 C56.05894556 26.28681228 43.88596057 25.05053588 30.54394531 25.03637695 C28.4553926 25.01806484 26.3668506 24.99849603 24.27832031 24.9777832 C21.01511205 24.94874409 17.7526041 24.92699929 14.48925781 24.92651367 C11.31936833 24.92317995 8.15105987 24.88866173 4.98144531 24.84887695 C4.00944183 24.85594666 3.03743835 24.86301636 2.03598022 24.87030029 C-2.46102826 24.78959605 -5.62407273 24.65290848 -9.20361328 21.76000977 C-12.92344104 17.75799861 -12.99464794 15.0451581 -12.96386719 9.7277832 C-12.38489184 5.61831691 -10.60534289 3.96350618 -7.60449219 1.17700195 C-4.96443609 -0.1430261 -2.95674016 0.0280685 0 0 Z " fill="#000000" transform="translate(358.6044921875,311.822998046875)"/>
<path d="M0 0 C82.83 0 165.66 0 251 0 C238.32823758 57.02293091 238.32823758 57.02293091 217.75 70.625 C198.28711922 82.41349283 179.57382079 83.61471344 157.34375 83.53125 C154.78560235 83.53395158 152.2274557 83.5378395 149.66931152 83.54284668 C144.33395565 83.54871036 138.99887828 83.54067297 133.66357422 83.52148438 C127.54391051 83.49972539 121.42478035 83.50678048 115.30512953 83.52879 C109.35546011 83.54931058 103.40595264 83.54690869 97.45625305 83.53526306 C94.95274274 83.53261918 92.44921855 83.53578183 89.94572449 83.54518127 C63.9565983 83.62137514 41.77980561 80.16888792 22.1875 61.625 C10.48597099 49.40201248 6.52447108 33.41095743 3.1875 17.3125 C2.8739682 15.84680782 2.55951941 14.38131149 2.24414062 12.91601562 C0 2.39513967 0 2.39513967 0 0 Z " fill="#000000" transform="translate(74,252)"/>
<path d="M0 0 C2.17802197 0.28294327 4.35605667 0.56578859 6.53410339 0.84854126 C11.07382671 1.4390414 15.61308882 2.03295521 20.15209961 2.62890625 C25.95197635 3.38979834 31.75334185 4.1386294 37.55516529 4.88451195 C42.04365558 5.46350792 46.53105569 6.05063115 51.0181942 6.6400032 C53.15671875 6.91957439 55.29562424 7.19624844 57.43491554 7.46989059 C60.42630331 7.85341047 63.41598229 8.24832755 66.40551758 8.64599609 C67.27688858 8.75519882 68.14825958 8.86440155 69.04603577 8.97691345 C77.92739132 10.18309506 86.29674817 12.0493759 92.29296875 19.1640625 C96.12607722 25.08383356 97.49808925 31.19995905 96.29296875 38.1640625 C93.92576324 45.54930733 90.03076235 50.34410002 83.29296875 54.1640625 C71.03293299 58.25074109 54.92897317 54.07208052 42.48828125 52.390625 C40.31177274 52.10321964 38.13516548 51.81656133 35.95846558 51.53060913 C31.42429565 50.93293504 26.89103664 50.32890627 22.35839844 49.71972656 C16.5664799 48.94144867 10.77304573 48.17525194 4.97896004 47.41329384 C0.49512207 46.82298602 -3.98813108 46.22833686 -8.47119522 45.63218307 C-10.6071955 45.34827307 -12.74331015 45.06522202 -14.8795433 44.78306961 C-17.86540863 44.38762233 -20.85050814 43.98682969 -23.83544922 43.58447266 C-25.14014915 43.41291908 -25.14014915 43.41291908 -26.47120667 43.23789978 C-44.8117683 40.74111857 -44.8117683 40.74111857 -51.45703125 33.2265625 C-56.15509566 26.83197482 -56.4941718 20.91436942 -55.70703125 13.1640625 C-53.92220906 6.47662745 -49.28714512 2.01168387 -43.70703125 -1.8359375 C-32.04499445 -7.43371517 -12.45094208 -1.62876814 0 0 Z " fill="#000000" transform="translate(181.70703125,164.8359375)"/>
<path d="M0 0 C1.66649478 3.16709415 2.91852857 6.40649847 4.1875 9.75 C7.89226194 18.57699802 12.88981821 24.40210249 21.56129456 28.66325378 C25.361649 30.14058573 29.06218202 30.88194971 33.07006836 31.4855957 C33.8510662 31.60922894 34.63206404 31.73286219 35.43672848 31.86024189 C44.96072734 33.34596004 54.51267384 34.6404646 64.06640625 35.91796875 C65.03264357 36.04760828 65.99888088 36.17724781 66.99439812 36.31081581 C72.09696641 36.99508127 77.20000651 37.67569225 82.3034668 38.35327148 C87.51752425 39.04631392 92.72971339 39.75250384 97.94160557 40.46161938 C102.00655243 41.01215603 106.07278878 41.55267402 110.13941765 42.09063148 C112.06009476 42.34644099 113.98029123 42.60589113 115.89993477 42.86934471 C125.08696968 44.12701221 134.17689787 45.21843713 143.46069336 45.2590332 C144.14455644 45.26317073 144.82841951 45.26730825 145.53300571 45.27157116 C154.63585024 45.1575968 162.53145654 41.34334584 169 35 C170.70056158 32.74800916 172.21937086 30.46700364 173.67578125 28.05078125 C174.94835475 26.07998158 176.28246142 24.58658256 178 23 C178.48384174 32.83811547 178.06376537 40.82796732 174 50 C172.17139577 51.82860423 169.27043848 51.1503158 166.81466675 51.1673584 C165.83461566 51.17604848 165.83461566 51.17604848 164.83476555 51.18491411 C162.62927156 51.20305752 160.42380335 51.21386978 158.21826172 51.22460938 C156.6432827 51.23577886 155.06830608 51.247292 153.49333191 51.25912476 C148.30548434 51.29575934 143.11761206 51.32091516 137.9296875 51.34375 C136.60657429 51.3496688 136.60657429 51.3496688 135.25673151 51.35570717 C126.93956622 51.39213583 118.62239257 51.42358718 110.30517387 51.44481659 C99.66087508 51.47238465 89.01724325 51.52312287 78.37322223 51.60529089 C70.8929064 51.66108224 63.41277148 51.69005285 55.93225491 51.6992898 C51.46319681 51.70554875 46.99491972 51.72368131 42.52608871 51.77067566 C38.31841715 51.81437295 34.11195271 51.82482179 29.90409279 51.81004715 C28.36215075 51.8103756 26.82015657 51.82263722 25.2784214 51.84789658 C13.68158554 52.02781898 13.68158554 52.02781898 9.58426285 49.52345276 C7.78105923 47.77080721 6.39118462 46.08890019 5 44 C4.51506514 43.32662346 4.03013027 42.65324692 3.53050041 41.95946503 C-3.45191989 31.9563399 -5.17163968 19.77983807 -3.1875 7.875 C-2.52352624 4.51020063 -1.94740483 2.92110725 0 0 Z " fill="#000000" transform="translate(112,187)"/>
<path d="M0 0 C4.83970115 2.67051239 7.62093113 6.00059707 10.0625 11 C11.54893419 18.16191021 11.84447303 25.05275313 8.08203125 31.52734375 C4.36317236 36.51126901 -0.07370549 40.0772411 -6.25 41.3125 C-15.13365331 42.34065886 -21.08355197 38.92719176 -28.8125 34.8125 C-30.02322269 34.18452575 -31.23480648 33.55820877 -32.44726562 32.93359375 C-35.39037214 31.40927564 -38.32370393 29.86877627 -41.25 28.3125 C-41.25 27.6525 -41.25 26.9925 -41.25 26.3125 C-40.33476562 26.26351562 -39.41953125 26.21453125 -38.4765625 26.1640625 C-37.28804688 26.08929688 -36.09953125 26.01453125 -34.875 25.9375 C-33.09996094 25.83308594 -33.09996094 25.83308594 -31.2890625 25.7265625 C-28.14437681 25.61032654 -28.14437681 25.61032654 -26.25 23.3125 C-26.25 20.6725 -26.25 18.0325 -26.25 15.3125 C-31.53 14.6525 -36.81 13.9925 -42.25 13.3125 C-39.46667532 10.52917532 -37.46563873 9.20706112 -34.03125 7.4296875 C-33.01675781 6.90246094 -32.00226563 6.37523438 -30.95703125 5.83203125 C-29.89871094 5.28933594 -28.84039062 4.74664062 -27.75 4.1875 C-26.69167969 3.63707031 -25.63335937 3.08664063 -24.54296875 2.51953125 C-15.72180985 -2.04236414 -9.49117842 -4.32235829 0 0 Z " fill="#000000" transform="translate(443.25,116.6875)"/>
<path d="M0 0 C1.21091803 0.62304967 2.42250273 1.24480545 3.63476562 1.86523438 C6.57580097 3.3767625 9.50945534 4.90100132 12.4375 6.4375 C12.4375 7.0975 12.4375 7.7575 12.4375 8.4375 C11.46167969 8.46328125 10.48585938 8.4890625 9.48046875 8.515625 C8.20816406 8.57234375 6.93585938 8.6290625 5.625 8.6875 C4.36042969 8.73390625 3.09585938 8.7803125 1.79296875 8.828125 C-1.59809051 9.12331757 -1.59809051 9.12331757 -3.51171875 11.3203125 C-4.75699823 13.43545461 -4.75699823 13.43545461 -4.5625 16.0625 C-3.77427316 18.55883607 -3.77427316 18.55883607 -1.625 19.6875 C2.69088222 20.74445075 7.01294835 21.11102823 11.4375 21.4375 C8.6646289 23.60144084 5.85810193 25.40734771 2.77734375 27.1015625 C1.90142578 27.58367187 1.02550781 28.06578125 0.12304688 28.5625 C-0.78380859 29.0575 -1.69066406 29.5525 -2.625 30.0625 C-3.53572266 30.56523437 -4.44644531 31.06796875 -5.38476562 31.5859375 C-12.24948947 35.34964755 -17.67435894 37.55691845 -25.6171875 36.046875 C-31.5219675 34.25476278 -35.14670979 30.47809853 -38.5625 25.4375 C-41.49983767 19.43554002 -41.72394733 12.46297086 -39.875 6.0546875 C-37.1333498 0.04590415 -32.77384737 -3.76688774 -26.75 -6.4375 C-16.76569278 -9.56740787 -8.66679376 -4.5516255 0 0 Z " fill="#000000" transform="translate(344.5625,122.5625)"/>
<path d="M0 0 C0.66 0 1.32 0 2 0 C3.95889539 3.74970665 5.91701863 7.499816 7.875 11.25 C8.70837891 12.84521484 8.70837891 12.84521484 9.55859375 14.47265625 C10.09355469 15.49746094 10.62851562 16.52226562 11.1796875 17.578125 C11.67194824 18.52075195 12.16420898 19.46337891 12.67138672 20.43457031 C13.1098291 21.28116211 13.54827148 22.12775391 14 23 C14.57186035 24.08667969 14.57186035 24.08667969 15.15527344 25.1953125 C17.15674358 29.47128571 16.65158375 34.78383491 15.34765625 39.21875 C12.58859826 45.37630431 8.17221605 49.48285319 2.125 52.375 C-4.8354635 53.7670927 -11.79219681 53.8230983 -18 50 C-22.37358248 45.94496585 -26.45630821 41.47652257 -27.40185547 35.43041992 C-27.6726322 26.77507819 -25.20307035 20.8387328 -21.125 13.3125 C-20.29162109 11.68924805 -20.29162109 11.68924805 -19.44140625 10.03320312 C-15.33904656 2.16952328 -15.33904656 2.16952328 -13 1 C-12.93941406 1.74765625 -12.87882812 2.4953125 -12.81640625 3.265625 C-12.73261719 4.25046875 -12.64882813 5.2353125 -12.5625 6.25 C-12.48128906 7.22453125 -12.40007812 8.1990625 -12.31640625 9.203125 C-12.04925416 11.56461753 -11.64628032 13.71901065 -11 16 C-6.9899066 16.17864631 -6.9899066 16.17864631 -3 16 C-0.14206684 13.14206684 -0.59200059 10.85334416 -0.375 6.875 C-0.30023438 5.59367188 -0.22546875 4.31234375 -0.1484375 2.9921875 C-0.09945313 2.00476563 -0.05046875 1.01734375 0 0 Z " fill="#000000" transform="translate(385,159)"/>
<path d="M0 0 C5.33157143 2.33514563 8.58871416 6.45061327 11.515625 11.3828125 C13.97730246 18.76784487 12.9854481 25.12466017 9.7421875 32.109375 C8.56426915 34.42051391 7.36320639 36.71998614 6.140625 39.0078125 C5.52934419 40.20084835 4.91995511 41.39485544 4.3125 42.58984375 C-0.15572836 51.21848918 -0.15572836 51.21848918 -2.484375 52.3828125 C-2.51015625 51.49078125 -2.5359375 50.59875 -2.5625 49.6796875 C-2.61921875 48.50921875 -2.6759375 47.33875 -2.734375 46.1328125 C-2.78078125 44.97265625 -2.8271875 43.8125 -2.875 42.6171875 C-3.57906937 38.88020394 -4.43880328 37.60480857 -7.484375 35.3828125 C-10.65475171 35.36911123 -10.65475171 35.36911123 -13.484375 36.3828125 C-14.90072333 39.21550916 -14.8306755 41.85747688 -15.046875 45.0078125 C-15.13066406 46.19632813 -15.21445312 47.38484375 -15.30078125 48.609375 C-15.36136719 49.52460937 -15.42195313 50.43984375 -15.484375 51.3828125 C-19.73935246 47.53543618 -21.99785872 42.37808908 -24.671875 37.3828125 C-25.51008789 35.89587891 -25.51008789 35.89587891 -26.36523438 34.37890625 C-29.97366135 27.62026524 -31.63968336 22.05741639 -30.484375 14.3828125 C-28.3142766 7.69219001 -24.63371449 3.98991961 -18.71875 0.2734375 C-13.12267607 -1.9571654 -5.76870989 -1.43310717 0 0 Z " fill="#000000" transform="translate(387.484375,62.6171875)"/>
<path d="M0 0 C5.46384786 0.90763192 9.75999346 3.19955718 14.625 5.75 C15.48351562 6.18054688 16.34203125 6.61109375 17.2265625 7.0546875 C25.14680893 11.18806611 25.14680893 11.18806611 27 16 C26.92657532 19.5978095 26.39744561 21.44063211 24.3125 24.375 C21.25039216 26.52675145 19.67572916 26.60011905 16 26 C10.28344161 22.65255222 8.04762398 17.02129219 5.1875 11.3125 C4.68541016 10.33732422 4.18332031 9.36214844 3.66601562 8.35742188 C0 1.18998724 0 1.18998724 0 0 Z " fill="#000000" transform="translate(401,159)"/>
<path d="M0 0 C-1.54647729 5.21005718 -3.79681264 9.83479862 -6.3125 14.625 C-6.69083984 15.37523437 -7.06917969 16.12546875 -7.45898438 16.8984375 C-9.71869006 21.2113783 -11.7199408 24.40311015 -16 27 C-19.77910616 27 -22.00693033 26.83289714 -24.9375 24.375 C-26.4590889 20.97380129 -26.51749792 18.68717269 -26 15 C-22.00515208 10.04087844 -16.91907145 7.53937319 -11.3125 4.6875 C-10.44560547 4.23310547 -9.57871094 3.77871094 -8.68554688 3.31054688 C-2.28847509 0 -2.28847509 0 0 0 Z " fill="#000000" transform="translate(357,159)"/>
<path d="M0 0 C3.33943217 0.09107542 3.94802163 0.28706839 6.625 2.5625 C8.40301176 5.97035587 8.83460213 7.65295532 8.125 11.4375 C4.08266167 16.37177128 -0.94077081 18.89041658 -6.5625 21.75 C-7.8628418 22.4315918 -7.8628418 22.4315918 -9.18945312 23.12695312 C-15.58652491 26.4375 -15.58652491 26.4375 -17.875 26.4375 C-16.30130562 20.89380391 -13.68916413 16.17259074 -10.875 11.1875 C-10.42382812 10.3728125 -9.97265625 9.558125 -9.5078125 8.71875 C-4.94095084 0.55784929 -4.94095084 0.55784929 0 0 Z " fill="#000000" transform="translate(418.875,87.5625)"/>
<path d="M0 0 C4.49040355 3.50194994 6.73284762 8.61476385 9.3125 13.5625 C9.77978516 14.42552734 10.24707031 15.28855469 10.72851562 16.17773438 C11.16486328 17.00724609 11.60121094 17.83675781 12.05078125 18.69140625 C12.44950439 19.44623291 12.84822754 20.20105957 13.2590332 20.97875977 C14 23 14 23 13 26 C9.38770572 24.09836879 5.7867586 22.17617448 2.1875 20.25 C1.16333984 19.71117188 0.13917969 19.17234375 -0.91601562 18.6171875 C-2.39038086 17.82441406 -2.39038086 17.82441406 -3.89453125 17.015625 C-4.80050049 16.53383789 -5.70646973 16.05205078 -6.63989258 15.55566406 C-9.13163744 13.91323122 -10.51255208 12.57927494 -12 10 C-11.8754052 6.44904821 -11.75679626 3.98712556 -9.5625 1.125 C-6.08873746 -1.37610903 -4.12165503 -1.07163031 0 0 Z " fill="#000000" transform="translate(342,89)"/>
<path d="M0 0 C3.46546137 0.7094151 4.97219087 1.64308049 7.15625 4.44140625 C8.19921795 7.5292945 8.50897466 10.19969865 8.15625 13.44140625 C5.91103824 17.85440868 5.91103824 17.85440868 3.15625 19.44140625 C-0.31273914 20.1631798 -3.3725943 20.14501889 -6.84375 19.44140625 C-9.42012471 17.55625402 -10.44042428 16.24805768 -11.84375 13.44140625 C-12.35136671 9.04206144 -12.10175237 6.89915239 -9.90625 3.00390625 C-6.30980804 -0.00536151 -4.55567213 -0.35686098 0 0 Z " fill="#000000" transform="translate(380.84375,126.55859375)"/>
</svg>
