<?xml version="1.0" encoding="UTF-8"?>
<svg version="1.1" xmlns="http://www.w3.org/2000/svg" width="512" height="512">
<path d="M0 0 C0.75410156 0.66386719 1.50820312 1.32773437 2.28515625 2.01171875 C15.89481806 14.64092465 25.0799244 33.35176717 26.10979271 51.98663521 C26.27934753 57.58778642 26.23007354 63.19011245 26.1953125 68.79296875 C26.19236534 70.39017599 26.19032905 71.98738516 26.18920898 73.58459473 C26.17879959 79.45225962 26.15087728 85.31988294 26.125 91.1875 C26.08375 104.325625 26.0425 117.46375 26 131 C76.49 131 126.98 131 179 131 C183.94967021 78.92017323 183.94967021 78.92017323 164.98046875 27.74609375 C155.75365364 19.61120942 145.15984815 16.03090177 133 16 C122.63544833 16.66681032 112.22087715 21.05241425 104.58984375 28.1796875 C95.77386419 38.27365918 92.89782397 48.44132781 91.72265625 61.44921875 C90.46478087 67.62980642 87.10208869 71.46778475 82 75 C76.60080143 76.79973286 71.06442735 76.70112627 65.6875 74.875 C61.56156808 71.99644284 58.62212349 68.86637047 57 64 C55.38590225 42.11706818 62.5984265 22.21173514 76.6875 5.375 C91.09069424 -10.10636042 111.00776507 -18.91860613 132.0168457 -19.9765625 C153.97044533 -20.57372174 173.78950408 -12.64439716 190 2 C206.12029378 17.61467571 213.50914248 38.18921278 214.05546498 60.2385416 C214.14705176 66.76974355 214.12531143 73.30134702 214.11352539 79.83300781 C214.11324295 82.03179422 214.11340237 84.23058072 214.1139679 86.42936707 C214.11425363 92.36855803 214.10839306 98.30772861 214.10139394 104.24691486 C214.09512316 110.46488147 214.09455366 116.68284859 214.09336853 122.90081787 C214.09044229 133.99438907 214.08322926 145.08795187 214.07372581 156.18151924 C214.06514754 166.24877929 214.05891011 176.31603785 214.05493164 186.38330078 C214.05453756 187.37772178 214.05453756 187.37772178 214.05413551 188.39223209 C214.05283036 191.71843235 214.05156894 195.04463263 214.05032361 198.37083292 C214.03988403 225.91389379 214.02230586 253.45694637 214 281 C214.88799789 280.99229584 215.77599579 280.98459167 216.69090271 280.97665405 C218.44190025 280.96766586 218.44190025 280.96766586 220.22827148 280.95849609 C221.96245583 280.94693985 221.96245583 280.94693985 223.73167419 280.93515015 C239.17226077 281.241521 252.84412801 288.38882828 263.93017578 298.68554688 C271.71859584 305.82089349 279.35000395 308.40949995 289.84765625 308.26953125 C298.5806169 307.52284688 304.88077962 302.95864718 311.65234375 297.70703125 C315.80021583 294.69102443 320.01818403 294.36062255 325 295 C330.29117901 296.76053696 333.94910061 299.24059696 337 304 C338.84778577 309.54335732 338.70552538 315.60121371 337.0625 321.1875 C327.47762519 334.25778384 311.69783204 341.51528398 296 344 C274.48572963 345.32696713 257.50731931 340.57921464 241.25 326.25 C232.75923244 318.79845384 225.77907279 316.15218341 214.37890625 316.5703125 C206.09789343 317.62338927 200.8632182 321.9954408 194.75 327.375 C181.06609076 339.40379249 164.09944514 344.91468956 146.015625 344.3828125 C130.53167364 343.17951423 117.35894528 337.22988768 105.6015625 327.18359375 C97.22129804 320.14970811 90.18332436 316.42008018 79.07421875 316.70703125 C70.12102137 317.56025845 64.51676238 322.00007239 57.95727539 327.78271484 C43.39156036 340.52585028 26.39948784 344.93803588 7.38671875 344.17480469 C-8.13805161 343.03776136 -20.96917885 336.00611891 -32.45751953 325.85961914 C-40.34975047 318.93361064 -47.52673689 316.60919275 -57.90234375 316.72265625 C-66.77270101 317.51684965 -73.42750221 323.13917502 -80.0078125 328.6953125 C-95.32029126 341.2956179 -112.52873232 345.47250336 -132 344 C-146.79557314 342.19129007 -161.41387547 334.76559266 -171.2109375 323.4453125 C-174.86311802 318.4534675 -174.59140539 312.95570221 -174 307 C-172.28468354 301.63841084 -168.8526612 298.68445087 -164 296 C-158.69608195 294.23202732 -154.02727735 294.23530801 -149 296.625 C-146.12109515 298.20502395 -143.5827424 300.03968808 -141 302.0625 C-133.51878869 307.78939625 -126.3706655 309.04523636 -117 308 C-109.52065753 306.31798895 -104.38559206 302.1472106 -98.65234375 297.2421875 C-83.70566091 284.60684737 -66.36692355 279.66697675 -47 281 C-34.89908138 282.35190986 -22.52111258 287.04414337 -13.26928711 295.1394043 C-12.65290878 295.6761528 -12.03653046 296.21290131 -11.401474 296.76591492 C-10.70774437 297.37678703 -10.70774437 297.37678703 -10 298 C-9.90863669 267.00975336 -9.83790314 236.01954252 -9.79573868 205.02919306 C-9.7907362 201.36573461 -9.78555888 197.70227642 -9.78027344 194.03881836 C-9.77869957 192.94488248 -9.77869957 192.94488248 -9.77709392 191.82884689 C-9.75971588 180.03941008 -9.72819264 168.25005174 -9.69138882 156.46066139 C-9.65390679 144.35252064 -9.63174884 132.24442083 -9.62364602 120.13622445 C-9.6186628 113.3399062 -9.60673516 106.5437512 -9.57707977 99.74749184 C-9.54983647 93.34451319 -9.54157314 86.94178461 -9.54756927 80.53875351 C-9.54647303 78.1947042 -9.53857273 75.85064612 -9.5231781 73.50664711 C-9.42932771 58.47365286 -9.36802372 45.36695552 -18.73046875 32.8046875 C-20 31 -20 31 -21 28 C-22.83922866 26.94193397 -22.83922866 26.94193397 -25 26 C-26.40571941 25.03507979 -27.80108675 24.05495976 -29.1875 23.0625 C-39.24741486 16.34496728 -50.28707363 14.8902855 -62.125 17.0625 C-73.28844578 19.79188873 -82.68691744 25.97446774 -88.7578125 35.86328125 C-92.42995088 42.84389213 -94.34809471 49.25831151 -95.4140625 57.01171875 C-96.52905882 64.69385442 -97.68729065 69.4309601 -104.0625 74.375 C-108.85128866 76.81049981 -113.77312982 76.84861542 -119 76 C-123.6382555 74.32249759 -126.9330638 71.72158149 -129.5 67.5 C-134.69042983 55.05687134 -129.37977961 38.75496759 -124.8125 26.75 C-116.01760501 7.20875915 -100.31870442 -6.54153171 -80.81640625 -14.97265625 C-53.60492181 -24.89862075 -21.40296471 -19.95320952 0 0 Z M26 166 C26 187.78 26 209.56 26 232 C76.49 232 126.98 232 179 232 C179 210.22 179 188.44 179 166 C128.51 166 78.02 166 26 166 Z M26 267 C26 279.87 26 292.74 26 306 C30.48276027 304.20689589 32.59529502 302.87333372 36.125 299.8125 C52.05459932 286.58031283 69.07739813 280.27911365 90 282 C104.7974326 284.10755467 116.69580373 290.40101299 128 300 C136.37158973 306.87335319 142.79936237 309.64893634 153.82421875 309.34375 C164.19505742 308.2211992 171.88612982 301.11387018 179 294 C179 285.09 179 276.18 179 267 C128.51 267 78.02 267 26 267 Z " fill="#000000" transform="translate(174,22)"/>
<path d="M0 0 C0.845625 0.26683594 1.69125 0.53367187 2.5625 0.80859375 C10.60833686 3.63720827 17.08756293 8.66718323 23.53125 14.15625 C30.94863017 20.44693951 38.80839856 24.86866485 48.8203125 24.31640625 C58.28985502 22.94179524 65.74834987 18.17017052 72.5625 11.625 C86.36520234 -0.77263684 104.63150871 -4.16779208 122.57714844 -3.20703125 C138.6129326 -1.83678287 151.4353736 6.06813369 163.125 16.546875 C169.74611236 22.19641109 176.92144056 24.58328496 185.58984375 24.30078125 C194.51865031 23.18648935 200.6314332 19.07846272 207.3203125 13.30859375 C222.93486557 -0.1435941 239.2701244 -4.05895895 259.421875 -3.1953125 C274.00575889 -2.09047281 285.43709891 4.58343967 296.3671875 13.81640625 C304.49106128 20.55415914 311.67116173 24.54760245 322.46484375 24.23828125 C330.63717608 23.47015756 336.11355911 19.80377887 342.51953125 14.83984375 C348.0012889 10.77384713 352.26691474 10.32775852 359 11 C364.67458978 12.92721917 368.32050871 16.64101742 371 22 C371.70742567 28.56895266 371.90599322 34.5989249 367.859375 40.06640625 C355.20332404 53.22763572 338.06351659 59.8906152 320 60.375 C302.08627396 59.91361624 285.47739955 53.14196565 272.4375 40.8125 C265.19024304 34.20659321 257.9102972 32.25200491 248.16796875 32.62890625 C239.22498168 33.6764818 234.08643538 37.5575503 227.6796875 43.625 C214.30211107 55.48151089 197.52570891 60.4605722 179.87890625 60.2734375 C163.66305396 59.13032606 149.54825538 52.59685754 137.49389648 41.85961914 C129.4690386 34.73956741 122.19193251 32.61051206 111.5703125 32.73046875 C103.15338396 33.36588239 97.86050094 37.65922144 91.53125 42.9140625 C76.40948886 55.37551381 59.79432842 61.60911578 40 60 C23.72313668 57.70271842 10.91726791 51.43751873 -1.0625 40.25 C-8.09302965 34.03068531 -15.56150041 32.25718752 -24.84375 32.63671875 C-33.94130864 33.68383874 -39.46526501 37.97220482 -46.10668945 43.85302734 C-50.99702543 48.14385635 -56.0828932 51.26698654 -62 54 C-62.83144531 54.38800781 -63.66289063 54.77601563 -64.51953125 55.17578125 C-79.62067826 61.71564806 -97.61925636 62.2474789 -112.99462891 56.21777344 C-122.78198776 52.02020277 -134.07634851 46.44103851 -139.765625 37.1015625 C-141.76743363 32.07170158 -141.65848814 27.32643739 -141 22 C-138.84062362 17.52129344 -136.07047061 14.81801812 -132 12 C-127.1081101 10.36937003 -121.72414881 9.83394368 -116.8828125 11.90625 C-114.84277891 13.18434333 -112.92400474 14.55323863 -111 16 C-102.6002697 21.96439183 -95.49386754 25.15571228 -85 24 C-77.12598459 22.46731647 -71.90192297 18.49323748 -66.04101562 13.28759766 C-47.93501141 -2.61618155 -23.02378556 -7.91442629 0 0 Z " fill="#000000" transform="translate(141,378)"/>
<path d="M0 0 C6.78603678 5.45419779 13.27626619 7.38228571 21.9453125 6.953125 C31.0062239 5.80951482 37.03675711 1.59143377 43.7578125 -4.359375 C57.30595988 -16.33747922 74.10463225 -21.82801176 92.17578125 -20.76953125 C108.26564553 -19.01882063 121.80915265 -13.37473477 133.6328125 -2.296875 C140.98399617 4.49862864 148.43565502 7.33559685 158.5078125 7.015625 C166.93503582 5.90984293 172.18286467 2.43403171 178.5078125 -2.984375 C194.82311496 -16.09047766 211.87120657 -22.64265033 233.0078125 -20.359375 C247.15240895 -18.17431891 258.82574705 -12.12210621 269.5703125 -2.859375 C277.21788486 3.69776174 284.29565564 7.12873433 294.5078125 7.015625 C303.88571671 6.26089641 311.47989012 0.94543451 318.5078125 -4.984375 C322.69146313 -7.07620031 327.95188869 -6.41372908 332.5078125 -5.984375 C337.52572934 -3.56502224 341.00739905 0.0147981 343.5078125 5.015625 C343.99149666 10.31236299 344.26039199 15.2710089 342.1328125 20.203125 C328.89266063 34.38900201 313.68737784 42.00988503 294.18359375 43.01171875 C274.97294813 43.03213389 259.64888273 36.12497221 245.3203125 23.765625 C237.81492293 17.391847 230.24885284 14.38870976 220.2890625 15.1953125 C212.1778994 16.59477374 205.51933128 21.06050433 199.5078125 26.515625 C186.05153981 38.70953279 168.49425897 43.62527299 150.5703125 42.953125 C135.13385887 41.44968784 122.55162326 35.49262994 110.9453125 25.390625 C103.51891546 18.92820553 96.55389009 14.89683692 86.5078125 15.015625 C76.35676655 15.78020699 68.97905619 20.53866617 61.7578125 27.453125 C49.34884556 39.00495765 33.08944652 42.99872221 16.5078125 43.015625 C-0.07471448 42.02963691 -14.09027073 35.6377047 -26.5546875 24.890625 C-33.65290625 18.79583115 -40.89351319 14.64879668 -50.4921875 15.015625 C-58.66147669 16.13944256 -64.35365963 18.60787425 -70.4921875 24.015625 C-85.61291263 37.11315451 -102.81428249 44.17962273 -123.07421875 42.765625 C-139.94195595 40.68272912 -153.72492051 34.43063146 -165.4921875 22.015625 C-169.42565578 16.63114398 -169.28000806 11.46700006 -168.4921875 5.015625 C-166.07283474 -0.00229184 -162.4930144 -3.48396155 -157.4921875 -5.984375 C-152.11098344 -6.47577238 -147.18443309 -6.84708844 -142.3046875 -4.359375 C-141.3765625 -3.575625 -140.4484375 -2.791875 -139.4921875 -1.984375 C-137.98382212 -0.9247348 -136.46191441 0.11579127 -134.9296875 1.140625 C-134.20652344 1.63820313 -133.48335937 2.13578125 -132.73828125 2.6484375 C-126.09866102 6.68994547 -118.62936476 7.79369335 -110.9921875 6.453125 C-103.68731032 4.51115941 -97.74435225 0.33378031 -92.3671875 -4.859375 C-83.86265062 -12.71551633 -71.81513285 -17.93826849 -60.4921875 -19.984375 C-59.66074219 -20.13648438 -58.82929687 -20.28859375 -57.97265625 -20.4453125 C-35.59503397 -23.46478177 -16.6680565 -14.23004227 0 0 Z " fill="#000000" transform="translate(168.4921875,466.984375)"/>
</svg>
