<?xml version="1.0" standalone="no"?>
<!DOCTYPE svg PUBLIC "-//W3C//DTD SVG 20010904//EN"
 "http://www.w3.org/TR/2001/REC-SVG-20010904/DTD/svg10.dtd">
<svg version="1.0" xmlns="http://www.w3.org/2000/svg"
 width="512.000000pt" height="512.000000pt" viewBox="0 0 512.000000 512.000000"
 preserveAspectRatio="xMidYMid meet">

<g transform="translate(0.000000,512.000000) scale(0.100000,-0.100000)"
fill="#000000" stroke="none">
<path d="M695 4406 c-50 -22 -83 -69 -90 -128 -3 -29 -5 -395 -3 -812 l3 -760
109 127 110 127 73 0 73 0 0 261 0 260 37 16 c58 24 285 80 415 102 324 56
675 81 1138 81 655 0 1118 -52 1503 -167 l87 -26 0 -264 0 -263 88 0 87 0 90
-110 c50 -60 93 -110 98 -110 10 0 8 1517 -2 1564 -12 48 -54 93 -102 107 -30
10 -43 8 -83 -9 -75 -34 -86 -67 -86 -283 l0 -176 -105 28 c-210 55 -518 103
-875 136 -276 25 -1128 25 -1400 0 -357 -33 -650 -79 -868 -135 l-112 -29 0
176 c0 212 -11 249 -82 281 -51 23 -63 24 -103 6z"/>
<path d="M1705 3464 c-16 -2 -70 -9 -120 -15 -103 -12 -223 -38 -342 -75 l-83
-25 0 -274 0 -275 690 0 690 0 0 275 0 274 -82 25 c-128 39 -199 55 -305 72
-96 14 -388 27 -448 18z"/>
<path d="M3150 3463 c-183 -18 -300 -41 -457 -89 l-83 -25 0 -274 0 -275 690
0 690 0 0 275 0 274 -85 26 c-242 74 -545 109 -755 88z"/>
<path d="M84 2966 c-17 -8 -42 -29 -55 -47 l-24 -34 -3 -1028 c-2 -1005 -2
-1029 17 -1073 16 -36 29 -49 67 -66 40 -17 53 -19 83 -9 48 14 90 59 102 107
4 22 9 119 9 217 l0 177 2280 0 2280 0 0 -177 c0 -98 5 -195 9 -217 12 -48 54
-93 102 -107 30 -10 43 -8 83 9 37 17 51 30 66 64 19 42 20 74 20 1063 0 974
-1 1022 -19 1055 -27 52 -64 75 -119 75 -53 0 -89 -21 -119 -70 -16 -26 -18
-58 -21 -252 l-4 -223 -2278 0 -2278 0 -4 223 c-3 210 -4 224 -26 258 -37 61
-104 83 -168 55z"/>
</g>
</svg>
